version 1.00
120
[0.003997,0.751189,-0.127892][0,1,-1.19209e-007][0.648105,0.203566,0][-0.035719,0.751189,-0.122868][0,1,-1.19209e-007][0.643753,0.212107,0][0,0.751189,3.57628e-007][0,1,-1.19209e-007][0.618964,0.192872,0][-0.035719,0.751189,-0.122868][0,1,-1.19209e-007][0.643753,0.212107,0][-0.071939,0.751189,-0.105816][0,1,-1.19209e-007][0.636974,0.218886,0][0,0.751189,3.57628e-007][0,1,-1.19209e-007][0.618964,0.192872,0][-0.071939,0.751189,-0.105816][0,1,-1.19209e-007][0.636974,0.218886,0][-0.101117,0.751189,-0.0784066][0,1,-1.19209e-007][0.628433,0.223238,0][0,0.751189,3.57628e-007][0,1,-1.19209e-007][0.618964,0.192872,0][-0.101117,0.751189,-0.0784066][0,1,-1.19209e-007][0.628433,0.223238,0][-0.120397,0.751189,-0.0433217][0,1,-1.19209e-007][0.618964,0.224737,0][0,0.751189,3.57628e-007][0,1,-1.19209e-007][0.618964,0.192872,0][-0.120397,0.751189,-0.0433217][0,1,-1.19209e-007][0.618964,0.224737,0][-0.127892,0.751189,-0.00399667][0,1,-1.19209e-007][0.609496,0.223238,0][0,0.751189,3.57628e-007][0,1,-1.19209e-007][0.618964,0.192872,0][-0.127892,0.751189,-0.00399667][0,1,-1.19209e-007][0.609496,0.223238,0][-0.122867,0.751189,0.0357193][0,1,-1.19209e-007][0.600955,0.218886,0][0,0.751189,3.57628e-007][0,1,-1.19209e-007][0.618964,0.192872,0][-0.122867,0.751189,0.0357193][0,1,-1.19209e-007][0.600955,0.218886,0][-0.105815,0.75119,0.0719393][0,1,-1.19209e-007][0.594177,0.212107,0][0,0.751189,3.57628e-007][0,1,-1.19209e-007][0.618964,0.192872,0][-0.105815,0.75119,0.0719393][0,1,-1.19209e-007][0.594177,0.212107,0][-0.078406,0.75119,0.101117][0,1,-1.19209e-007][0.589825,0.203566,0][0,0.751189,3.57628e-007][0,1,-1.19209e-007][0.618964,0.192872,0][-0.078406,0.75119,0.101117][0,1,-1.19209e-007][0.589825,0.203566,0][-0.043322,0.75119,0.120396][0,1,-1.19209e-007][0.588325,0.194098,0][0,0.751189,3.57628e-007][0,1,-1.19209e-007][0.618964,0.192872,0][-0.043322,0.75119,0.120396][0,1,-1.19209e-007][0.588325,0.194098,0][-0.003997,0.75119,0.127891][0,1,-1.19209e-007][0.589825,0.184629,0][0,0.751189,3.57628e-007][0,1,-1.19209e-007][0.618964,0.192872,0][-0.003997,0.75119,0.127891][0,1,-1.19209e-007][0.589825,0.184629,0][0.035719,0.75119,0.122867][0,1,-1.19209e-007][0.594177,0.176088,0][0,0.751189,3.57628e-007][0,1,-1.19209e-007][0.618964,0.192872,0][0.035719,0.75119,0.122867][0,1,-1.19209e-007][0.594177,0.176088,0][0.071939,0.75119,0.105815][0,1,-1.19209e-007][0.600955,0.16931,0][0,0.751189,3.57628e-007][0,1,-1.19209e-007][0.618964,0.192872,0][0.071939,0.75119,0.105815][0,1,-1.19209e-007][0.600955,0.16931,0][0.101117,0.75119,0.0784063][0,1,-1.19209e-007][0.609496,0.164958,0][0,0.751189,3.57628e-007][0,1,-1.19209e-007][0.618964,0.192872,0][0.101117,0.75119,0.0784063][0,1,-1.19209e-007][0.609496,0.164958,0][0.120397,0.751189,0.0433214][0,1,-1.19209e-007][0.618964,0.163458,0][0,0.751189,3.57628e-007][0,1,-1.19209e-007][0.618964,0.192872,0][0.120397,0.751189,0.0433214][0,1,-1.19209e-007][0.618964,0.163458,0][0.127892,0.751189,0.00399631][0,1,-1.19209e-007][0.628433,0.164958,0][0,0.751189,3.57628e-007][0,1,-1.19209e-007][0.618964,0.192872,0][0.127892,0.751189,0.00399631][0,1,-1.19209e-007][0.628433,0.164958,0][0.122867,0.751189,-0.0357196][0,1,-1.19209e-007][0.636974,0.16931,0][0,0.751189,3.57628e-007][0,1,-1.19209e-007][0.618964,0.192872,0][0.122867,0.751189,-0.0357196][0,1,-1.19209e-007][0.636974,0.16931,0][0.105815,0.751189,-0.0719396][0,1,-1.19209e-007][0.643753,0.176088,0][0,0.751189,3.57628e-007][0,1,-1.19209e-007][0.618964,0.192872,0][0.105815,0.751189,-0.0719396][0,1,-1.19209e-007][0.643753,0.176088,0][0.078406,0.751189,-0.101118][0,1,-1.19209e-007][0.648105,0.184629,0][0,0.751189,3.57628e-007][0,1,-1.19209e-007][0.618964,0.192872,0][0.078406,0.751189,-0.101118][0,1,-1.19209e-007][0.648105,0.184629,0][0.043322,0.751189,-0.120397][0,1,-1.19209e-007][0.649604,0.194098,0][0,0.751189,3.57628e-007][0,1,-1.19209e-007][0.618964,0.192872,0][0.043322,0.751189,-0.120397][0,1,-1.19209e-007][0.649604,0.194098,0][0.003997,0.751189,-0.127892][0,1,-1.19209e-007][0.648105,0.203566,0][0,0.751189,3.57628e-007][0,1,-1.19209e-007][0.618964,0.192872,0][-0.028576,-0.75119,-0.0982964][-0.114837,-0.911468,-0.395016][0.032076,0.275104,0][-0.035719,-0.725917,-0.122867][-0.196168,-0.711475,-0.674775][0.032076,0.31735,0][0.003997,-0.725917,-0.127891][0.0219574,-0.711477,-0.702366][0.020687,0.31735,0][0.003997,-0.725917,-0.127891][0.0219574,-0.711477,-0.702366][0.020687,0.31735,0][0.003198,-0.75119,-0.102315][0.0128565,-0.911471,-0.411164][0.021826,0.275104,0][-0.028576,-0.75119,-0.0982964][-0.114837,-0.911468,-0.395016][0.032076,0.275104,0][0.043322,-0.725917,-0.120396][0.237919,-0.711478,-0.661206][0.237076,0.31735,0][0.034658,-0.75119,-0.0963194][0.139277,-0.911471,-0.387069][0.237075,0.275104,0][0.003198,-0.75119,-0.102315][0.0128565,-0.911471,-0.411164][0.247326,0.275104,0][0.003198,-0.75119,-0.102315][0.0128565,-0.911471,-0.411164][0.247326,0.275104,0][0.003997,-0.725917,-0.127891][0.0219574,-0.711477,-0.702366][0.248464,0.31735,0][0.043322,-0.725917,-0.120396][0.237919,-0.711478,-0.661206][0.237076,0.31735,0][-0.057553,-0.75119,-0.0846544][-0.231284,-0.911469,-0.340194][0.043465,0.275104,0][-0.071939,-0.725917,-0.105815][-0.395085,-0.711473,-0.581132][0.043465,0.31735,0][-0.035719,-0.725917,-0.122867][-0.196168,-0.711475,-0.674775][0.032076,0.31735,0][-0.035719,-0.725917,-0.122867][-0.196168,-0.711475,-0.674775][0.032076,0.31735,0][-0.028576,-0.75119,-0.0982964][-0.114837,-0.911468,-0.395016][0.032076,0.275104,0][-0.057553,-0.75119,-0.0846544][-0.231284,-0.911469,-0.340194][0.043465,0.275104,0][-0.080896,-0.75119,-0.0627264][-0.325091,-0.911468,-0.252075][0.054853,0.275104,0][-0.101117,-0.725917,-0.0784064][-0.555326,-0.711473,-0.430603][0.054853,0.31735,0][-0.071939,-0.725917,-0.105815][-0.395085,-0.711473,-0.581132][0.043465,0.31735,0][-0.071939,-0.725917,-0.105815][-0.395085,-0.711473,-0.581132][0.043465,0.31735,0][-0.057553,-0.75119,-0.0846544][-0.231284,-0.911469,-0.340194][0.043465,0.275104,0][-0.080896,-0.75119,-0.0627264][-0.325091,-0.911468,-0.252075][0.054853,0.275104,0][-0.09632,-0.75119,-0.0346584][-0.387073,-0.911469,-0.13928][0.066242,0.275104,0][-0.120397,-0.725917,-0.0433214][-0.66121,-0.711474,-0.237921][0.066242,0.31735,0][-0.101117,-0.725917,-0.0784064][-0.555326,-0.711473,-0.430603][0.054853,0.31735,0][-0.101117,-0.725917,-0.0784064][-0.555326,-0.711473,-0.430603][0.054853,0.31735,0][-0.080896,-0.75119,-0.0627264][-0.325091,-0.911468,-0.252075][0.054853,0.275104,0][-0.09632,-0.75119,-0.0346584][-0.387073,-0.911469,-0.13928][0.066242,0.275104,0][-0.102316,-0.75119,-0.00319743][-0.411167,-0.911469,-0.0128493][0.077631,0.275104,0][-0.127892,-0.725917,-0.00399643][-0.702365,-0.711478,-0.0219485][0.077631,0.31735,0][-0.120397,-0.725917,-0.0433214][-0.66121,-0.711474,-0.237921][0.066242,0.31735,0][-0.120397,-0.725917,-0.0433214][-0.66121,-0.711474,-0.237921][0.066242,0.31735,0][-0.09632,-0.75119,-0.0346584][-0.387073,-0.911469,-0.13928][0.066242,0.275104,0][-0.102316,-0.75119,-0.00319743][-0.411167,-0.911469,-0.0128493][0.077631,0.275104,0][-0.098296,-0.75119,0.0285766][-0.395012,-0.91147,0.114838][0.08902,0.275104,0][-0.122867,-0.725917,0.0357196][-0.674775,-0.711473,0.196174][0.08902,0.31735,0][-0.127892,-0.725917,-0.00399643][-0.702365,-0.711478,-0.0219485][0.077631,0.31735,0][-0.127892,-0.725917,-0.00399643][-0.702365,-0.711478,-0.0219485][0.077631,0.31735,0][-0.102316,-0.75119,-0.00319743][-0.411167,-0.911469,-0.0128493][0.077631,0.275104,0][-0.098296,-0.75119,0.0285766][-0.395012,-0.91147,0.114838][0.08902,0.275104,0][-0.084655,-0.75119,0.0575526][-0.340197,-0.911467,0.231288][0.100409,0.275104,0][-0.105815,-0.725916,0.0719396][-0.581129,-0.711471,0.395091][0.100409,0.31735,0][-0.122867,-0.725917,0.0357196][-0.674775,-0.711473,0.196174][0.08902,0.31735,0][-0.122867,-0.725917,0.0357196][-0.674775,-0.711473,0.196174][0.08902,0.31735,0][-0.098296,-0.75119,0.0285766][-0.395012,-0.91147,0.114838][0.08902,0.275104,0][-0.084655,-0.75119,0.0575526][-0.340197,-0.911467,0.231288][0.100409,0.275104,0][-0.062726,-0.751189,0.0808956][-0.25207,-0.911471,0.325086][0.111798,0.275104,0][-0.078406,-0.725916,0.101118][-0.430595,-0.711483,0.55532][0.111798,0.31735,0][-0.105815,-0.725916,0.0719396][-0.581129,-0.711471,0.395091][0.100409,0.31735,0][-0.105815,-0.725916,0.0719396][-0.581129,-0.711471,0.395091][0.100409,0.31735,0][-0.084655,-0.75119,0.0575526][-0.340197,-0.911467,0.231288][0.100409,0.275104,0][-0.062726,-0.751189,0.0808956][-0.25207,-0.911471,0.325086][0.111798,0.275104,0][-0.034658,-0.751189,0.0963196][-0.139277,-0.911471,0.387069][0.123187,0.275104,0][-0.043322,-0.725916,0.120397][-0.237919,-0.711478,0.661206][0.123187,0.31735,0][-0.078406,-0.725916,0.101118][-0.430595,-0.711483,0.55532][0.111798,0.31735,0][-0.078406,-0.725916,0.101118][-0.430595,-0.711483,0.55532][0.111798,0.31735,0][-0.062726,-0.751189,0.0808956][-0.25207,-0.911471,0.325086][0.111798,0.275104,0][-0.034658,-0.751189,0.0963196][-0.139277,-0.911471,0.387069][0.123187,0.275104,0][-0.003198,-0.751189,0.102316][-0.0128569,-0.91147,0.411164][0.134576,0.275104,0][-0.003997,-0.725916,0.127892][-0.0219579,-0.711477,0.702366][0.134576,0.31735,0][-0.043322,-0.725916,0.120397][-0.237919,-0.711478,0.661206][0.123187,0.31735,0][-0.043322,-0.725916,0.120397][-0.237919,-0.711478,0.661206][0.123187,0.31735,0][-0.034658,-0.751189,0.0963196][-0.139277,-0.911471,0.387069][0.123187,0.275104,0][-0.003198,-0.751189,0.102316][-0.0128569,-0.91147,0.411164][0.134576,0.275104,0][0.028576,-0.751189,0.0982966][0.114837,-0.911468,0.395016][0.145965,0.275104,0][0.035719,-0.725916,0.122868][0.196168,-0.711475,0.674775][0.145965,0.31735,0][-0.003997,-0.725916,0.127892][-0.0219579,-0.711477,0.702366][0.134576,0.31735,0][-0.003997,-0.725916,0.127892][-0.0219579,-0.711477,0.702366][0.134576,0.31735,0][-0.003198,-0.751189,0.102316][-0.0128569,-0.91147,0.411164][0.134576,0.275104,0][0.028576,-0.751189,0.0982966][0.114837,-0.911468,0.395016][0.145965,0.275104,0][0.057553,-0.751189,0.0846546][0.231284,-0.911469,0.340194][0.157353,0.275104,0][0.071939,-0.725916,0.105816][0.395085,-0.711473,0.581132][0.157353,0.31735,0][0.035719,-0.725916,0.122868][0.196168,-0.711475,0.674775][0.145965,0.31735,0][0.035719,-0.725916,0.122868][0.196168,-0.711475,0.674775][0.145965,0.31735,0][0.028576,-0.751189,0.0982966][0.114837,-0.911468,0.395016][0.145965,0.275104,0][0.057553,-0.751189,0.0846546][0.231284,-0.911469,0.340194][0.157353,0.275104,0][0.080896,-0.75119,0.0627266][0.32509,-0.911468,0.252075][0.168742,0.275104,0][0.101117,-0.725916,0.0784066][0.555325,-0.711474,0.430603][0.168742,0.31735,0][0.071939,-0.725916,0.105816][0.395085,-0.711473,0.581132][0.157353,0.31735,0][0.071939,-0.725916,0.105816][0.395085,-0.711473,0.581132][0.157353,0.31735,0][0.057553,-0.751189,0.0846546][0.231284,-0.911469,0.340194][0.157353,0.275104,0][0.080896,-0.75119,0.0627266][0.32509,-0.911468,0.252075][0.168742,0.275104,0][0.09632,-0.75119,0.0346586][0.387073,-0.911469,0.13928][0.180131,0.275104,0][0.120397,-0.725917,0.0433216][0.66121,-0.711474,0.237921][0.180131,0.31735,0][0.101117,-0.725916,0.0784066][0.555325,-0.711474,0.430603][0.168742,0.31735,0][0.101117,-0.725916,0.0784066][0.555325,-0.711474,0.430603][0.168742,0.31735,0][0.080896,-0.75119,0.0627266][0.32509,-0.911468,0.252075][0.168742,0.275104,0][0.09632,-0.75119,0.0346586][0.387073,-0.911469,0.13928][0.180131,0.275104,0][0.102316,-0.75119,0.00319755][0.411167,-0.911469,0.0128494][0.19152,0.275104,0][0.127892,-0.725917,0.00399655][0.702365,-0.711478,0.0219486][0.19152,0.31735,0][0.120397,-0.725917,0.0433216][0.66121,-0.711474,0.237921][0.180131,0.31735,0][0.120397,-0.725917,0.0433216][0.66121,-0.711474,0.237921][0.180131,0.31735,0][0.09632,-0.75119,0.0346586][0.387073,-0.911469,0.13928][0.180131,0.275104,0][0.102316,-0.75119,0.00319755][0.411167,-0.911469,0.0128494][0.19152,0.275104,0][0.098296,-0.75119,-0.0285764][0.395012,-0.91147,-0.114838][0.202909,0.275104,0][0.122867,-0.725917,-0.0357194][0.674775,-0.711473,-0.196174][0.202909,0.31735,0][0.127892,-0.725917,0.00399655][0.702365,-0.711478,0.0219486][0.19152,0.31735,0][0.127892,-0.725917,0.00399655][0.702365,-0.711478,0.0219486][0.19152,0.31735,0][0.102316,-0.75119,0.00319755][0.411167,-0.911469,0.0128494][0.19152,0.275104,0][0.098296,-0.75119,-0.0285764][0.395012,-0.91147,-0.114838][0.202909,0.275104,0][0.084655,-0.75119,-0.0575524][0.340197,-0.911467,-0.231288][0.214298,0.275104,0][0.105815,-0.725917,-0.0719394][0.581129,-0.711472,-0.39509][0.214298,0.31735,0][0.122867,-0.725917,-0.0357194][0.674775,-0.711473,-0.196174][0.202909,0.31735,0][0.122867,-0.725917,-0.0357194][0.674775,-0.711473,-0.196174][0.202909,0.31735,0][0.098296,-0.75119,-0.0285764][0.395012,-0.91147,-0.114838][0.202909,0.275104,0][0.084655,-0.75119,-0.0575524][0.340197,-0.911467,-0.231288][0.214298,0.275104,0][0.062726,-0.75119,-0.0808954][0.25207,-0.911472,-0.325085][0.225687,0.275104,0][0.078406,-0.725917,-0.101117][0.430595,-0.711483,-0.555319][0.225687,0.31735,0][0.105815,-0.725917,-0.0719394][0.581129,-0.711472,-0.39509][0.214298,0.31735,0][0.105815,-0.725917,-0.0719394][0.581129,-0.711472,-0.39509][0.214298,0.31735,0][0.084655,-0.75119,-0.0575524][0.340197,-0.911467,-0.231288][0.214298,0.275104,0][0.062726,-0.75119,-0.0808954][0.25207,-0.911472,-0.325085][0.225687,0.275104,0][0.034658,-0.75119,-0.0963194][0.139277,-0.911471,-0.387069][0.237075,0.275104,0][0.043322,-0.725917,-0.120396][0.237919,-0.711478,-0.661206][0.237076,0.31735,0][0.078406,-0.725917,-0.101117][0.430595,-0.711483,-0.555319][0.225687,0.31735,0][0.078406,-0.725917,-0.101117][0.430595,-0.711483,-0.555319][0.225687,0.31735,0][0.062726,-0.75119,-0.0808954][0.25207,-0.911472,-0.325085][0.225687,0.275104,0][0.034658,-0.75119,-0.0963194][0.139277,-0.911471,-0.387069][0.237075,0.275104,0][-0.035719,0.751189,-0.122868][-0.27916,0,-0.960245][0.032076,0.702877,0][0.003997,0.751189,-0.127892][0.0312459,0,-0.999512][0.020687,0.702877,0][0.003997,-0.725917,-0.127891][0.0312459,0,-0.999512][0.020687,0.31735,0][0.003997,-0.725917,-0.127891][0.0312459,0,-0.999512][0.020687,0.31735,0][-0.035719,-0.725917,-0.122867][-0.27916,0,-0.960245][0.032076,0.31735,0][-0.035719,0.751189,-0.122868][-0.27916,0,-0.960245][0.032076,0.702877,0][-0.071939,0.751189,-0.105816][-0.562228,0,-0.826982][0.043465,0.702877,0][-0.035719,0.751189,-0.122868][-0.27916,0,-0.960245][0.032076,0.702877,0][-0.035719,-0.725917,-0.122867][-0.27916,0,-0.960245][0.032076,0.31735,0][-0.035719,-0.725917,-0.122867][-0.27916,0,-0.960245][0.032076,0.31735,0][-0.071939,-0.725917,-0.105815][-0.562228,0,-0.826982][0.043465,0.31735,0][-0.071939,0.751189,-0.105816][-0.562228,0,-0.826982][0.043465,0.702877,0][-0.101117,0.751189,-0.0784066][-0.79026,0,-0.612772][0.054853,0.702877,0][-0.071939,0.751189,-0.105816][-0.562228,0,-0.826982][0.043465,0.702877,0][-0.071939,-0.725917,-0.105815][-0.562228,0,-0.826982][0.043465,0.31735,0][-0.071939,-0.725917,-0.105815][-0.562228,0,-0.826982][0.043465,0.31735,0][-0.101117,-0.725917,-0.0784064][-0.79026,0,-0.612772][0.054853,0.31735,0][-0.101117,0.751189,-0.0784066][-0.79026,0,-0.612772][0.054853,0.702877,0][-0.120397,0.751189,-0.0433217][-0.940938,0,-0.338578][0.066242,0.702877,0][-0.101117,0.751189,-0.0784066][-0.79026,0,-0.612772][0.054853,0.702877,0][-0.101117,-0.725917,-0.0784064][-0.79026,0,-0.612772][0.054853,0.31735,0][-0.101117,-0.725917,-0.0784064][-0.79026,0,-0.612772][0.054853,0.31735,0][-0.120397,-0.725917,-0.0433214][-0.940938,0,-0.338578][0.066242,0.31735,0][-0.120397,0.751189,-0.0433217][-0.940938,0,-0.338578][0.066242,0.702877,0][-0.127892,0.751189,-0.00399667][-0.999512,0,-0.0312339][0.077631,0.702877,0][-0.120397,0.751189,-0.0433217][-0.940938,0,-0.338578][0.066242,0.702877,0][-0.120397,-0.725917,-0.0433214][-0.940938,0,-0.338578][0.066242,0.31735,0][-0.120397,-0.725917,-0.0433214][-0.940938,0,-0.338578][0.066242,0.31735,0][-0.127892,-0.725917,-0.00399643][-0.999512,0,-0.0312339][0.077631,0.31735,0][-0.127892,0.751189,-0.00399667][-0.999512,0,-0.0312339][0.077631,0.702877,0][-0.122867,0.751189,0.0357193][-0.960241,0,0.279171][0.08902,0.702877,0][-0.127892,0.751189,-0.00399667][-0.999512,0,-0.0312339][0.077631,0.702877,0][-0.127892,-0.725917,-0.00399643][-0.999512,0,-0.0312339][0.077631,0.31735,0][-0.127892,-0.725917,-0.00399643][-0.999512,0,-0.0312339][0.077631,0.31735,0][-0.122867,-0.725917,0.0357196][-0.960241,0,0.279171][0.08902,0.31735,0][-0.122867,0.751189,0.0357193][-0.960241,0,0.279171][0.08902,0.702877,0][-0.105815,0.75119,0.0719393][-0.826982,0,0.562228][0.100409,0.702877,0][-0.122867,0.751189,0.0357193][-0.960241,0,0.279171][0.08902,0.702877,0][-0.122867,-0.725917,0.0357196][-0.960241,0,0.279171][0.08902,0.31735,0][-0.122867,-0.725917,0.0357196][-0.960241,0,0.279171][0.08902,0.31735,0][-0.105815,-0.725916,0.0719396][-0.826982,0,0.562228][0.100409,0.31735,0][-0.105815,0.75119,0.0719393][-0.826982,0,0.562228][0.100409,0.702877,0][-0.078406,0.75119,0.101117][-0.612768,0,0.790263][0.111798,0.702877,0][-0.105815,0.75119,0.0719393][-0.826982,0,0.562228][0.100409,0.702877,0][-0.105815,-0.725916,0.0719396][-0.826982,0,0.562228][0.100409,0.31735,0][-0.105815,-0.725916,0.0719396][-0.826982,0,0.562228][0.100409,0.31735,0][-0.078406,-0.725916,0.101118][-0.612768,0,0.790263][0.111798,0.31735,0][-0.078406,0.75119,0.101117][-0.612768,0,0.790263][0.111798,0.702877,0][-0.043322,0.75119,0.120396][-0.338573,0,0.94094][0.123187,0.702877,0][-0.078406,0.75119,0.101117][-0.612768,0,0.790263][0.111798,0.702877,0][-0.078406,-0.725916,0.101118][-0.612768,0,0.790263][0.111798,0.31735,0][-0.078406,-0.725916,0.101118][-0.612768,0,0.790263][0.111798,0.31735,0][-0.043322,-0.725916,0.120397][-0.338573,0,0.94094][0.123187,0.31735,0][-0.043322,0.75119,0.120396][-0.338573,0,0.94094][0.123187,0.702877,0][-0.003997,0.75119,0.127891][-0.0312466,0,0.999512][0.134576,0.702877,0][-0.043322,0.75119,0.120396][-0.338573,0,0.94094][0.123187,0.702877,0][-0.043322,-0.725916,0.120397][-0.338573,0,0.94094][0.123187,0.31735,0][-0.043322,-0.725916,0.120397][-0.338573,0,0.94094][0.123187,0.31735,0][-0.003997,-0.725916,0.127892][-0.0312466,0,0.999512][0.134576,0.31735,0][-0.003997,0.75119,0.127891][-0.0312466,0,0.999512][0.134576,0.702877,0][0.035719,0.75119,0.122867][0.27916,0,0.960245][0.145965,0.702877,0][-0.003997,0.75119,0.127891][-0.0312466,0,0.999512][0.134576,0.702877,0][-0.003997,-0.725916,0.127892][-0.0312466,0,0.999512][0.134576,0.31735,0][-0.003997,-0.725916,0.127892][-0.0312466,0,0.999512][0.134576,0.31735,0][0.035719,-0.725916,0.122868][0.27916,0,0.960245][0.145965,0.31735,0][0.035719,0.75119,0.122867][0.27916,0,0.960245][0.145965,0.702877,0][0.071939,0.75119,0.105815][0.562228,0,0.826982][0.157353,0.702877,0][0.035719,0.75119,0.122867][0.27916,0,0.960245][0.145965,0.702877,0][0.035719,-0.725916,0.122868][0.27916,0,0.960245][0.145965,0.31735,0][0.035719,-0.725916,0.122868][0.27916,0,0.960245][0.145965,0.31735,0][0.071939,-0.725916,0.105816][0.562228,0,0.826982][0.157353,0.31735,0][0.071939,0.75119,0.105815][0.562228,0,0.826982][0.157353,0.702877,0][0.101117,0.75119,0.0784063][0.79026,0,0.612772][0.168742,0.702877,0][0.071939,0.75119,0.105815][0.562228,0,0.826982][0.157353,0.702877,0][0.071939,-0.725916,0.105816][0.562228,0,0.826982][0.157353,0.31735,0][0.071939,-0.725916,0.105816][0.562228,0,0.826982][0.157353,0.31735,0][0.101117,-0.725916,0.0784066][0.79026,0,0.612772][0.168742,0.31735,0][0.101117,0.75119,0.0784063][0.79026,0,0.612772][0.168742,0.702877,0][0.120397,0.751189,0.0433214][0.940939,0,0.338577][0.180131,0.702877,0][0.101117,0.75119,0.0784063][0.79026,0,0.612772][0.168742,0.702877,0][0.101117,-0.725916,0.0784066][0.79026,0,0.612772][0.168742,0.31735,0][0.101117,-0.725916,0.0784066][0.79026,0,0.612772][0.168742,0.31735,0][0.120397,-0.725917,0.0433216][0.940939,0,0.338577][0.180131,0.31735,0][0.120397,0.751189,0.0433214][0.940939,0,0.338577][0.180131,0.702877,0][0.127892,0.751189,0.00399631][0.999512,0,0.0312336][0.19152,0.702877,0][0.120397,0.751189,0.0433214][0.940939,0,0.338577][0.180131,0.702877,0][0.120397,-0.725917,0.0433216][0.940939,0,0.338577][0.180131,0.31735,0][0.120397,-0.725917,0.0433216][0.940939,0,0.338577][0.180131,0.31735,0][0.127892,-0.725917,0.00399655][0.999512,0,0.0312337][0.19152,0.31735,0][0.127892,0.751189,0.00399631][0.999512,0,0.0312336][0.19152,0.702877,0][0.122867,0.751189,-0.0357196][0.960241,0,-0.279171][0.202909,0.702877,0][0.127892,0.751189,0.00399631][0.999512,0,0.0312336][0.19152,0.702877,0][0.127892,-0.725917,0.00399655][0.999512,0,0.0312337][0.19152,0.31735,0][0.127892,-0.725917,0.00399655][0.999512,0,0.0312337][0.19152,0.31735,0][0.122867,-0.725917,-0.0357194][0.960241,0,-0.279171][0.202909,0.31735,0][0.122867,0.751189,-0.0357196][0.960241,0,-0.279171][0.202909,0.702877,0][0.105815,0.751189,-0.0719396][0.826983,0,-0.562227][0.214298,0.702877,0][0.122867,0.751189,-0.0357196][0.960241,0,-0.279171][0.202909,0.702877,0][0.122867,-0.725917,-0.0357194][0.960241,0,-0.279171][0.202909,0.31735,0][0.122867,-0.725917,-0.0357194][0.960241,0,-0.279171][0.202909,0.31735,0][0.105815,-0.725917,-0.0719394][0.826983,0,-0.562227][0.214298,0.31735,0][0.105815,0.751189,-0.0719396][0.826983,0,-0.562227][0.214298,0.702877,0][0.078406,0.751189,-0.101118][0.612768,0,-0.790263][0.225687,0.702877,0][0.105815,0.751189,-0.0719396][0.826983,0,-0.562227][0.214298,0.702877,0][0.105815,-0.725917,-0.0719394][0.826983,0,-0.562227][0.214298,0.31735,0][0.105815,-0.725917,-0.0719394][0.826983,0,-0.562227][0.214298,0.31735,0][0.078406,-0.725917,-0.101117][0.612768,0,-0.790263][0.225687,0.31735,0][0.078406,0.751189,-0.101118][0.612768,0,-0.790263][0.225687,0.702877,0][0.043322,0.751189,-0.120397][0.338573,0,-0.94094][0.237076,0.702877,0][0.078406,0.751189,-0.101118][0.612768,0,-0.790263][0.225687,0.702877,0][0.078406,-0.725917,-0.101117][0.612768,0,-0.790263][0.225687,0.31735,0][0.078406,-0.725917,-0.101117][0.612768,0,-0.790263][0.225687,0.31735,0][0.043322,-0.725917,-0.120396][0.338573,0,-0.94094][0.237076,0.31735,0][0.043322,0.751189,-0.120397][0.338573,0,-0.94094][0.237076,0.702877,0][0.003997,0.751189,-0.127892][0.0312459,0,-0.999512][0.248464,0.702877,0][0.043322,0.751189,-0.120397][0.338573,0,-0.94094][0.237076,0.702877,0][0.043322,-0.725917,-0.120396][0.338573,0,-0.94094][0.237076,0.31735,0][0.043322,-0.725917,-0.120396][0.338573,0,-0.94094][0.237076,0.31735,0][0.003997,-0.725917,-0.127891][0.0312459,0,-0.999512][0.248464,0.31735,0][0.003997,0.751189,-0.127892][0.0312459,0,-0.999512][0.248464,0.702877,0][-0.028576,-0.75119,-0.0982964][-0.114837,-0.911468,-0.395016][0.64426,0.175778,0][0.003198,-0.75119,-0.102315][0.0128565,-0.911471,-0.411164][0.648653,0.1844,0][0,-0.75119,5.96046e-007][0,-1,1.19209e-007][0.61924,0.192719,0][-0.057553,-0.75119,-0.0846544][-0.231284,-0.911469,-0.340194][0.637419,0.168936,0][-0.028576,-0.75119,-0.0982964][-0.114837,-0.911468,-0.395016][0.64426,0.175778,0][0,-0.75119,5.96046e-007][0,-1,1.19209e-007][0.61924,0.192719,0][-0.080896,-0.75119,-0.0627264][-0.325091,-0.911468,-0.252075][0.628797,0.164543,0][-0.057553,-0.75119,-0.0846544][-0.231284,-0.911469,-0.340194][0.637419,0.168936,0][0,-0.75119,5.96046e-007][0,-1,1.19209e-007][0.61924,0.192719,0][-0.09632,-0.75119,-0.0346584][-0.387073,-0.911469,-0.13928][0.61924,0.16303,0][-0.080896,-0.75119,-0.0627264][-0.325091,-0.911468,-0.252075][0.628797,0.164543,0][0,-0.75119,5.96046e-007][0,-1,1.19209e-007][0.61924,0.192719,0][-0.102316,-0.75119,-0.00319743][-0.411167,-0.911469,-0.0128493][0.609683,0.164543,0][-0.09632,-0.75119,-0.0346584][-0.387073,-0.911469,-0.13928][0.61924,0.16303,0][0,-0.75119,5.96046e-007][0,-1,1.19209e-007][0.61924,0.192719,0][-0.098296,-0.75119,0.0285766][-0.395012,-0.91147,0.114838][0.601062,0.168936,0][-0.102316,-0.75119,-0.00319743][-0.411167,-0.911469,-0.0128493][0.609683,0.164543,0][0,-0.75119,5.96046e-007][0,-1,1.19209e-007][0.61924,0.192719,0][-0.084655,-0.75119,0.0575526][-0.340197,-0.911467,0.231288][0.59422,0.175778,0][-0.098296,-0.75119,0.0285766][-0.395012,-0.91147,0.114838][0.601062,0.168936,0][0,-0.75119,5.96046e-007][0,-1,1.19209e-007][0.61924,0.192719,0][-0.062726,-0.751189,0.0808956][-0.25207,-0.911471,0.325086][0.589827,0.1844,0][-0.084655,-0.75119,0.0575526][-0.340197,-0.911467,0.231288][0.59422,0.175778,0][0,-0.75119,5.96046e-007][0,-1,1.19209e-007][0.61924,0.192719,0][-0.034658,-0.751189,0.0963196][-0.139277,-0.911471,0.387069][0.588313,0.193957,0][-0.062726,-0.751189,0.0808956][-0.25207,-0.911471,0.325086][0.589827,0.1844,0][0,-0.75119,5.96046e-007][0,-1,1.19209e-007][0.61924,0.192719,0][-0.003198,-0.751189,0.102316][-0.0128569,-0.91147,0.411164][0.589827,0.203513,0][-0.034658,-0.751189,0.0963196][-0.139277,-0.911471,0.387069][0.588313,0.193957,0][0,-0.75119,5.96046e-007][0,-1,1.19209e-007][0.61924,0.192719,0][0.028576,-0.751189,0.0982966][0.114837,-0.911468,0.395016][0.59422,0.212135,0][-0.003198,-0.751189,0.102316][-0.0128569,-0.91147,0.411164][0.589827,0.203513,0][0,-0.75119,5.96046e-007][0,-1,1.19209e-007][0.61924,0.192719,0][0.057553,-0.751189,0.0846546][0.231284,-0.911469,0.340194][0.601062,0.218977,0][0.028576,-0.751189,0.0982966][0.114837,-0.911468,0.395016][0.59422,0.212135,0][0,-0.75119,5.96046e-007][0,-1,1.19209e-007][0.61924,0.192719,0][0.080896,-0.75119,0.0627266][0.32509,-0.911468,0.252075][0.609683,0.22337,0][0.057553,-0.751189,0.0846546][0.231284,-0.911469,0.340194][0.601062,0.218977,0][0,-0.75119,5.96046e-007][0,-1,1.19209e-007][0.61924,0.192719,0][0.09632,-0.75119,0.0346586][0.387073,-0.911469,0.13928][0.61924,0.224883,0][0.080896,-0.75119,0.0627266][0.32509,-0.911468,0.252075][0.609683,0.22337,0][0,-0.75119,5.96046e-007][0,-1,1.19209e-007][0.61924,0.192719,0][0.102316,-0.75119,0.00319755][0.411167,-0.911469,0.0128494][0.628797,0.22337,0][0.09632,-0.75119,0.0346586][0.387073,-0.911469,0.13928][0.61924,0.224883,0][0,-0.75119,5.96046e-007][0,-1,1.19209e-007][0.61924,0.192719,0][0.098296,-0.75119,-0.0285764][0.395012,-0.91147,-0.114838][0.637419,0.218977,0][0.102316,-0.75119,0.00319755][0.411167,-0.911469,0.0128494][0.628797,0.22337,0][0,-0.75119,5.96046e-007][0,-1,1.19209e-007][0.61924,0.192719,0][0.084655,-0.75119,-0.0575524][0.340197,-0.911467,-0.231288][0.64426,0.212135,0][0.098296,-0.75119,-0.0285764][0.395012,-0.91147,-0.114838][0.637419,0.218977,0][0,-0.75119,5.96046e-007][0,-1,1.19209e-007][0.61924,0.192719,0][0.062726,-0.75119,-0.0808954][0.25207,-0.911472,-0.325085][0.648653,0.203513,0][0.084655,-0.75119,-0.0575524][0.340197,-0.911467,-0.231288][0.64426,0.212135,0][0,-0.75119,5.96046e-007][0,-1,1.19209e-007][0.61924,0.192719,0][0.034658,-0.75119,-0.0963194][0.139277,-0.911471,-0.387069][0.650167,0.193956,0][0.062726,-0.75119,-0.0808954][0.25207,-0.911472,-0.325085][0.648653,0.203513,0][0,-0.75119,5.96046e-007][0,-1,1.19209e-007][0.61924,0.192719,0][0.003198,-0.75119,-0.102315][0.0128565,-0.911471,-0.411164][0.648653,0.1844,0][0.034658,-0.75119,-0.0963194][0.139277,-0.911471,-0.387069][0.650167,0.193956,0][0,-0.75119,5.96046e-007][0,-1,1.19209e-007][0.61924,0.192719,0]