version 1.00
216
[-1.04058,-0.55981,-0.028033][-0.850856,-0.35229,0.389789][3.86542,-6.43169,0][-1.14833,-0.253002,-0.0542794][-0.991149,-0.127342,-0.0375192][4.7327,-4.7234,0][-1.06647,-0.542849,-0.138412][-0.965363,-0.250389,-0.0733405][4.24031,-6.41118,0][-1.14833,-0.253002,-0.0542794][-0.991149,-0.127342,-0.0375192][4.7327,-4.7234,0][-1.04058,-0.55981,-0.028033][-0.850856,-0.35229,0.389789][3.86542,-6.43169,0][-1.11899,-0.279608,0.0532998][-0.863497,-0.243782,0.441524][4.31747,-4.8199,0][-0.969832,-0.544404,0.0608454][-0.522676,-0.367875,0.769076][3.45757,-6.34672,0][-1.11899,-0.279608,0.0532998][-0.863497,-0.243782,0.441524][4.31747,-4.8199,0][-1.04058,-0.55981,-0.028033][-0.850856,-0.35229,0.389789][3.86542,-6.43169,0][-1.11899,-0.279608,0.0532998][-0.863497,-0.243782,0.441524][4.31747,-4.8199,0][-0.969832,-0.544404,0.0608454][-0.522676,-0.367875,0.769076][3.45757,-6.34672,0][-1.03884,-0.290575,0.134523][-0.510193,-0.290082,0.809664][3.8554,-4.88663,0][-0.873193,-0.50076,0.104409][-0.0423715,-0.290099,0.956058][2.90045,-6.09701,0][-1.03884,-0.290575,0.134523][-0.510193,-0.290082,0.809664][3.8554,-4.88663,0][-0.969832,-0.544404,0.0608454][-0.522676,-0.367875,0.769076][3.45757,-6.34672,0][-1.03884,-0.290575,0.134523][-0.510193,-0.290082,0.809664][3.8554,-4.88663,0][-0.873193,-0.50076,0.104409][-0.0423715,-0.290099,0.956058][2.90045,-6.09701,0][-0.929353,-0.282952,0.167631][-0.0184222,-0.256191,0.966451][3.22421,-4.84413,0][-0.776553,-0.440576,0.0909831][0.463996,-0.141112,0.874525][2.34332,-5.74948,0][-0.929353,-0.282952,0.167631][-0.0184222,-0.256191,0.966451][3.22421,-4.84413,0][-0.873193,-0.50076,0.104409][-0.0423715,-0.290099,0.956058][2.90045,-6.09701,0][-0.929353,-0.282952,0.167631][-0.0184222,-0.256191,0.966451][3.22421,-4.84413,0][-0.776553,-0.440576,0.0909831][0.463996,-0.141112,0.874525][2.34332,-5.74948,0][-0.819865,-0.258788,0.14375][0.48237,-0.153391,0.862433][2.59302,-4.70379,0][-0.705807,-0.379972,0.0241673][0.841199,0.0321603,0.539769][1.93548,-5.39722,0][-0.819865,-0.258788,0.14375][0.48237,-0.153391,0.862433][2.59302,-4.70379,0][-0.776553,-0.440576,0.0909831][0.463996,-0.141112,0.874525][2.34332,-5.74948,0][-0.819865,-0.258788,0.14375][0.48237,-0.153391,0.862433][2.59302,-4.70379,0][-0.705807,-0.379972,0.0241673][0.841199,0.0321603,0.539769][1.93548,-5.39722,0][-0.739715,-0.224557,0.0692789][0.852386,-0.00827556,0.522847][2.13096,-4.50323,0][-0.679912,-0.335198,-0.0781376][0.979927,0.190754,0.0579391][1.47856,-5.07316,0][-0.739715,-0.224557,0.0692789][0.852386,-0.00827556,0.522847][2.13096,-4.50323,0][-0.705807,-0.379972,0.0241673][0.841199,0.0321603,0.539769][1.93548,-5.39722,0][-0.739715,-0.224557,0.0692789][0.852386,-0.00827556,0.522847][2.13096,-4.50323,0][-0.679912,-0.335198,-0.0781376][0.979927,0.190754,0.0579391][1.47856,-5.07316,0][-0.710377,-0.189431,-0.0358269][0.98805,0.147761,0.0438736][1.75674,-4.27569,0][-0.705807,-0.318237,-0.188517][0.844325,0.308876,-0.437849][1.93548,-5.03214,0][-0.710377,-0.189431,-0.0358269][0.98805,0.147761,0.0438736][1.75674,-4.27569,0][-0.679912,-0.335198,-0.0781376][0.979927,0.190754,0.0579391][1.47856,-5.07316,0][-0.710377,-0.189431,-0.0358269][0.98805,0.147761,0.0438736][1.75674,-4.27569,0][-0.705807,-0.318237,-0.188517][0.844325,0.308876,-0.437849][1.93548,-5.03214,0][-0.739715,-0.162821,-0.143405][0.851854,0.277322,-0.444338][2.13096,-4.13815,0][-0.776553,-0.333648,-0.277396][0.464894,0.343816,-0.815883][2.34332,-5.11714,0][-0.739715,-0.162821,-0.143405][0.851854,0.277322,-0.444338][2.13096,-4.13815,0][-0.705807,-0.318237,-0.188517][0.844325,0.308876,-0.437849][1.93548,-5.03214,0][-0.739715,-0.162821,-0.143405][0.851854,0.277322,-0.444338][2.13096,-4.13815,0][-0.776553,-0.333648,-0.277396][0.464894,0.343816,-0.815883][2.34332,-5.11714,0][-0.819865,-0.151862,-0.22463][0.480458,0.336709,-0.809807][2.59302,-4.07146,0][-0.873193,-0.377292,-0.32096][-0.0447617,0.266501,-0.962795][2.90045,-5.36685,0][-0.819865,-0.151862,-0.22463][0.480458,0.336709,-0.809807][2.59302,-4.07146,0][-0.776553,-0.333648,-0.277396][0.464894,0.343816,-0.815883][2.34332,-5.11714,0][-0.819865,-0.151862,-0.22463][0.480458,0.336709,-0.809807][2.59302,-4.07146,0][-0.873193,-0.377292,-0.32096][-0.0447617,0.266501,-0.962795][2.90045,-5.36685,0][-0.929353,-0.159481,-0.257737][-0.0199264,0.302884,-0.952819][3.22421,-4.11395,0][-0.969832,-0.437475,-0.307534][-0.524734,0.103716,-0.844925][3.45757,-5.71437,0][-0.929353,-0.159481,-0.257737][-0.0199264,0.302884,-0.952819][3.22421,-4.11395,0][-0.873193,-0.377292,-0.32096][-0.0447617,0.266501,-0.962795][2.90045,-5.36685,0][-0.929353,-0.159481,-0.257737][-0.0199264,0.302884,-0.952819][3.22421,-4.11395,0][-0.969832,-0.437475,-0.307534][-0.524734,0.103716,-0.844925][3.45757,-5.71437,0][-1.03884,-0.183646,-0.233856][-0.510328,0.188599,-0.839045][3.8554,-4.25429,0][-1.04058,-0.498076,-0.240717][-0.851384,-0.0861248,-0.517424][3.86542,-6.06661,0][-1.03884,-0.183646,-0.233856][-0.510328,0.188599,-0.839045][3.8554,-4.25429,0][-0.969832,-0.437475,-0.307534][-0.524734,0.103716,-0.844925][3.45757,-5.71437,0][-1.03884,-0.183646,-0.233856][-0.510328,0.188599,-0.839045][3.8554,-4.25429,0][-1.04058,-0.498076,-0.240717][-0.851384,-0.0861248,-0.517424][3.86542,-6.06661,0][-1.11899,-0.217873,-0.159384][-0.863085,0.0304074,-0.504143][4.31747,-4.45481,0][-1.06647,-0.542849,-0.138412][-0.965363,-0.250389,-0.0733405][4.24031,-6.41118,0][-1.11899,-0.217873,-0.159384][-0.863085,0.0304074,-0.504143][4.31747,-4.45481,0][-1.04058,-0.498076,-0.240717][-0.851384,-0.0861248,-0.517424][3.86542,-6.06661,0][-1.11899,-0.217873,-0.159384][-0.863085,0.0304074,-0.504143][4.31747,-4.45481,0][-1.06647,-0.542849,-0.138412][-0.965363,-0.250389,-0.0733405][4.24031,-6.41118,0][-1.14833,-0.253002,-0.0542794][-0.991149,-0.127342,-0.0375192][4.7327,-4.7234,0][-1.11899,-0.279608,0.0532998][-0.863497,-0.243782,0.441524][4.31747,-4.8199,0][-1.14887,0.00619316,0.0211099][-0.992976,0.113754,0.0325415][4.69483,-3.19144,0][-1.14833,-0.253002,-0.0542794][-0.991149,-0.127342,-0.0375192][4.7327,-4.7234,0][-1.14887,0.00619316,0.0211099][-0.992976,0.113754,0.0325415][4.69483,-3.19144,0][-1.11899,-0.279608,0.0532998][-0.863497,-0.243782,0.441524][4.31747,-4.8199,0][-1.12093,-0.0234184,0.121115][-0.865102,-0.0302534,0.500683][4.32867,-3.34596,0][-1.03884,-0.290575,0.134523][-0.510193,-0.290082,0.809664][3.8554,-4.88663,0][-1.12093,-0.0234184,0.121115][-0.865102,-0.0302534,0.500683][4.32867,-3.34596,0][-1.11899,-0.279608,0.0532998][-0.863497,-0.243782,0.441524][4.31747,-4.8199,0][-1.12093,-0.0234184,0.121115][-0.865102,-0.0302534,0.500683][4.32867,-3.34596,0][-1.03884,-0.290575,0.134523][-0.510193,-0.290082,0.809664][3.8554,-4.88663,0][-1.0446,-0.0461664,0.194013][-0.511442,-0.1528,0.845624][3.88861,-3.48025,0][-0.929353,-0.282952,0.167631][-0.0184222,-0.256191,0.966451][3.22421,-4.84413,0][-1.0446,-0.0461664,0.194013][-0.511442,-0.1528,0.845624][3.88861,-3.48025,0][-1.03884,-0.290575,0.134523][-0.510193,-0.290082,0.809664][3.8554,-4.88663,0][-1.0446,-0.0461664,0.194013][-0.511442,-0.1528,0.845624][3.88861,-3.48025,0][-0.929353,-0.282952,0.167631][-0.0184222,-0.256191,0.966451][3.22421,-4.84413,0][-0.940327,-0.0559626,0.220268][-0.0190475,-0.223733,0.974464][3.28747,-3.53786,0][-0.819865,-0.258788,0.14375][0.48237,-0.153391,0.862433][2.59302,-4.70379,0][-0.940327,-0.0559626,0.220268][-0.0190475,-0.223733,0.974464][3.28747,-3.53786,0][-0.929353,-0.282952,0.167631][-0.0184222,-0.256191,0.966451][3.22421,-4.84413,0][-0.940327,-0.0559626,0.220268][-0.0190475,-0.223733,0.974464][3.28747,-3.53786,0][-0.819865,-0.258788,0.14375][0.48237,-0.153391,0.862433][2.59302,-4.70379,0][-0.836054,-0.0501728,0.19285][0.484485,-0.223899,0.845661][2.68635,-3.50329,0][-0.739715,-0.224557,0.0692789][0.852386,-0.00827556,0.522847][2.13096,-4.50323,0][-0.836054,-0.0501728,0.19285][0.484485,-0.223899,0.845661][2.68635,-3.50329,0][-0.819865,-0.258788,0.14375][0.48237,-0.153391,0.862433][2.59302,-4.70379,0][-0.836054,-0.0501728,0.19285][0.484485,-0.223899,0.845661][2.68635,-3.50329,0][-0.739715,-0.224557,0.0692789][0.852386,-0.00827556,0.522847][2.13096,-4.50323,0][-0.759719,-0.0303555,0.119101][0.860536,-0.150241,0.486729][2.24628,-3.38586,0][-0.710377,-0.189431,-0.0358269][0.98805,0.147761,0.0438736][1.75674,-4.27569,0][-0.759719,-0.0303555,0.119101][0.860536,-0.150241,0.486729][2.24628,-3.38586,0][-0.739715,-0.224557,0.0692789][0.852386,-0.00827556,0.522847][2.13096,-4.50323,0][-0.759719,-0.0303555,0.119101][0.860536,-0.150241,0.486729][2.24628,-3.38586,0][-0.710377,-0.189431,-0.0358269][0.98805,0.147761,0.0438736][1.75674,-4.27569,0][-0.731779,-0.00182056,0.0187846][0.999802,-0.0190418,-0.00580961][1.85961,-3.23754,0][-0.739715,-0.162821,-0.143405][0.851854,0.277322,-0.444338][2.13096,-4.13815,0][-0.731779,-0.00182056,0.0187846][0.999802,-0.0190418,-0.00580961][1.85961,-3.23754,0][-0.710377,-0.189431,-0.0358269][0.98805,0.147761,0.0438736][1.75674,-4.27569,0][-0.731779,-0.00182056,0.0187846][0.999802,-0.0190418,-0.00580961][1.85961,-3.23754,0][-0.739715,-0.162821,-0.143405][0.851854,0.277322,-0.444338][2.13096,-4.13815,0][-0.759719,0.0277891,-0.0812208][0.860188,0.134675,-0.491873][2.24628,-3.04201,0][-0.819865,-0.151862,-0.22463][0.480458,0.336709,-0.809807][2.59302,-4.07146,0][-0.759719,0.0277891,-0.0812208][0.860188,0.134675,-0.491873][2.24628,-3.04201,0][-0.739715,-0.162821,-0.143405][0.851854,0.277322,-0.444338][2.13096,-4.13815,0][-0.759719,0.0277891,-0.0812208][0.860188,0.134675,-0.491873][2.24628,-3.04201,0][-0.819865,-0.151862,-0.22463][0.480458,0.336709,-0.809807][2.59302,-4.07146,0][-0.836054,0.0505409,-0.154117][0.483833,0.265507,-0.833913][2.68635,-2.90769,0][-0.929353,-0.159481,-0.257737][-0.0199264,0.302884,-0.952819][3.22421,-4.11395,0][-0.836054,0.0505409,-0.154117][0.483833,0.265507,-0.833913][2.68635,-2.90769,0][-0.819865,-0.151862,-0.22463][0.480458,0.336709,-0.809807][2.59302,-4.07146,0][-0.836054,0.0505409,-0.154117][0.483833,0.265507,-0.833913][2.68635,-2.90769,0][-0.929353,-0.159481,-0.257737][-0.0199264,0.302884,-0.952819][3.22421,-4.11395,0][-0.940327,0.0603304,-0.180375][-0.0193416,0.334945,-0.942039][3.28747,-2.85013,0][-1.03884,-0.183646,-0.233856][-0.510328,0.188599,-0.839045][3.8554,-4.25429,0][-0.940327,0.0603304,-0.180375][-0.0193416,0.334945,-0.942039][3.28747,-2.85013,0][-0.929353,-0.159481,-0.257737][-0.0199264,0.302884,-0.952819][3.22421,-4.11395,0][-0.940327,0.0603304,-0.180375][-0.0193416,0.334945,-0.942039][3.28747,-2.85013,0][-1.03884,-0.183646,-0.233856][-0.510328,0.188599,-0.839045][3.8554,-4.25429,0][-1.0446,0.0545473,-0.152954][-0.511085,0.325573,-0.795483][3.88861,-2.88465,0][-1.11899,-0.217873,-0.159384][-0.863085,0.0304074,-0.504143][4.31747,-4.45481,0][-1.0446,0.0545473,-0.152954][-0.511085,0.325573,-0.795483][3.88861,-2.88465,0][-1.03884,-0.183646,-0.233856][-0.510328,0.188599,-0.839045][3.8554,-4.25429,0][-1.0446,0.0545473,-0.152954][-0.511085,0.325573,-0.795483][3.88861,-2.88465,0][-1.11899,-0.217873,-0.159384][-0.863085,0.0304074,-0.504143][4.31747,-4.45481,0][-1.12093,0.0347319,-0.0792063][-0.864625,0.243713,-0.439349][4.32867,-3.00208,0][-1.14833,-0.253002,-0.0542794][-0.991149,-0.127342,-0.0375192][4.7327,-4.7234,0][-1.12093,0.0347319,-0.0792063][-0.864625,0.243713,-0.439349][4.32867,-3.00208,0][-1.11899,-0.217873,-0.159384][-0.863085,0.0304074,-0.504143][4.31747,-4.45481,0][-1.12093,0.0347319,-0.0792063][-0.864625,0.243713,-0.439349][4.32867,-3.00208,0][-1.14833,-0.253002,-0.0542794][-0.991149,-0.127342,-0.0375192][4.7327,-4.7234,0][-1.14887,0.00619316,0.0211099][-0.992976,0.113754,0.0325415][4.69483,-3.19144,0][-1.12093,-0.0234184,0.121115][-0.865102,-0.0302534,0.500683][4.32867,-3.34596,0][-1.08036,0.27288,0.09867][-0.916927,0.383452,0.110501][4.29983,-1.55486,0][-1.14887,0.00619316,0.0211099][-0.992976,0.113754,0.0325415][4.69483,-3.19144,0][-1.08036,0.27288,0.09867][-0.916927,0.383452,0.110501][4.29983,-1.55486,0][-1.12093,-0.0234184,0.121115][-0.865102,-0.0302534,0.500683][4.32867,-3.34596,0][-1.05534,0.237856,0.190584][-0.796369,0.208304,0.567808][3.95051,-1.84277,0][-1.0446,-0.0461664,0.194013][-0.511442,-0.1528,0.845624][3.88861,-3.48025,0][-1.05534,0.237856,0.190584][-0.796369,0.208304,0.567808][3.95051,-1.84277,0][-1.12093,-0.0234184,0.121115][-0.865102,-0.0302534,0.500683][4.32867,-3.34596,0][-1.05534,0.237856,0.190584][-0.796369,0.208304,0.567808][3.95051,-1.84277,0][-1.0446,-0.0461664,0.194013][-0.511442,-0.1528,0.845624][3.88861,-3.48025,0][-0.986993,0.196831,0.253404][-0.462186,-0.0017465,0.886781][3.5565,-2.08198,0][-0.940327,-0.0559626,0.220268][-0.0190475,-0.223733,0.974464][3.28747,-3.53786,0][-0.986993,0.196831,0.253404][-0.462186,-0.0017465,0.886781][3.5565,-2.08198,0][-1.0446,-0.0461664,0.194013][-0.511442,-0.1528,0.845624][3.88861,-3.48025,0][-0.986993,0.196831,0.253404][-0.462186,-0.0017465,0.886781][3.5565,-2.08198,0][-0.940327,-0.0559626,0.220268][-0.0190475,-0.223733,0.974464][3.28747,-3.53786,0][-0.893633,0.160786,0.270293][0.00356656,-0.195381,0.980721][3.01829,-2.29051,0][-0.836054,-0.0501728,0.19285][0.484485,-0.223899,0.845661][2.68635,-3.50329,0][-0.893633,0.160786,0.270293][0.00356656,-0.195381,0.980721][3.01829,-2.29051,0][-0.940327,-0.0559626,0.220268][-0.0190475,-0.223733,0.974464][3.28747,-3.53786,0][-0.893633,0.160786,0.270293][0.00356656,-0.195381,0.980721][3.01829,-2.29051,0][-0.836054,-0.0501728,0.19285][0.484485,-0.223899,0.845661][2.68635,-3.50329,0][-0.800274,0.139387,0.23673][0.48001,-0.321652,0.816168][2.48007,-2.41242,0][-0.759719,-0.0303555,0.119101][0.860536,-0.150241,0.486729][2.24628,-3.38586,0][-0.800274,0.139387,0.23673][0.48001,-0.321652,0.816168][2.48007,-2.41242,0][-0.836054,-0.0501728,0.19285][0.484485,-0.223899,0.845661][2.68635,-3.50329,0][-0.800274,0.139387,0.23673][0.48001,-0.321652,0.816168][2.48007,-2.41242,0][-0.759719,-0.0303555,0.119101][0.860536,-0.150241,0.486729][2.24628,-3.38586,0][-0.731928,0.138364,0.161705][0.835439,-0.341996,0.430209][2.08606,-2.41507,0][-0.731779,-0.00182056,0.0187846][0.999802,-0.0190418,-0.00580961][1.85961,-3.23754,0][-0.731928,0.138364,0.161705][0.835439,-0.341996,0.430209][2.08606,-2.41507,0][-0.759719,-0.0303555,0.119101][0.860536,-0.150241,0.486729][2.24628,-3.38586,0][-0.731928,0.138364,0.161705][0.835439,-0.341996,0.430209][2.08606,-2.41507,0][-0.731779,-0.00182056,0.0187846][0.999802,-0.0190418,-0.00580961][1.85961,-3.23754,0][-0.70691,0.157999,0.0653241][0.966941,-0.244691,-0.0717699][1.65471,-2.40026,0][-0.759719,0.0277891,-0.0812208][0.860188,0.134675,-0.491873][2.24628,-3.04201,0][-0.70691,0.157999,0.0653241][0.966941,-0.244691,-0.0717699][1.65471,-2.40026,0][-0.731779,-0.00182056,0.0187846][0.999802,-0.0190418,-0.00580961][1.85961,-3.23754,0][-0.70691,0.157999,0.0653241][0.966941,-0.244691,-0.0717699][1.65471,-2.40026,0][-0.759719,0.0277891,-0.0812208][0.860188,0.134675,-0.491873][2.24628,-3.04201,0][-0.731928,0.193022,-0.0265899][0.835541,-0.0549716,-0.546672][2.08606,-2.09184,0][-0.836054,0.0505409,-0.154117][0.483833,0.265507,-0.833913][2.68635,-2.90769,0][-0.731928,0.193022,-0.0265899][0.835541,-0.0549716,-0.546672][2.08606,-2.09184,0][-0.759719,0.0277891,-0.0812208][0.860188,0.134675,-0.491873][2.24628,-3.04201,0][-0.731928,0.193022,-0.0265899][0.835541,-0.0549716,-0.546672][2.08606,-2.09184,0][-0.836054,0.0505409,-0.154117][0.483833,0.265507,-0.833913][2.68635,-2.90769,0][-0.800274,0.23405,-0.0894081][0.480231,0.169929,-0.860524][2.48007,-1.85261,0][-0.940327,0.0603304,-0.180375][-0.0193416,0.334945,-0.942039][3.28747,-2.85013,0][-0.800274,0.23405,-0.0894081][0.480231,0.169929,-0.860524][2.48007,-1.85261,0][-0.836054,0.0505409,-0.154117][0.483833,0.265507,-0.833913][2.68635,-2.90769,0][-0.800274,0.23405,-0.0894081][0.480231,0.169929,-0.860524][2.48007,-1.85261,0][-0.940327,0.0603304,-0.180375][-0.0193416,0.334945,-0.942039][3.28747,-2.85013,0][-0.893633,0.270097,-0.106297][0.00443363,0.363747,-0.931487][3.01829,-1.64407,0][-1.0446,0.0545473,-0.152954][-0.511085,0.325573,-0.795483][3.88861,-2.88465,0][-0.893633,0.270097,-0.106297][0.00443363,0.363747,-0.931487][3.01829,-1.64407,0][-0.940327,0.0603304,-0.180375][-0.0193416,0.334945,-0.942039][3.28747,-2.85013,0][-0.893633,0.270097,-0.106297][0.00443363,0.363747,-0.931487][3.01829,-1.64407,0][-1.0446,0.0545473,-0.152954][-0.511085,0.325573,-0.795483][3.88861,-2.88465,0][-0.986993,0.291495,-0.0727333][-0.46076,0.475576,-0.749351][3.5565,-1.52217,0][-1.12093,0.0347319,-0.0792063][-0.864625,0.243713,-0.439349][4.32867,-3.00208,0][-0.986993,0.291495,-0.0727333][-0.46076,0.475576,-0.749351][3.5565,-1.52217,0][-1.0446,0.0545473,-0.152954][-0.511085,0.325573,-0.795483][3.88861,-2.88465,0][-0.986993,0.291495,-0.0727333][-0.46076,0.475576,-0.749351][3.5565,-1.52217,0][-1.12093,0.0347319,-0.0792063][-0.864625,0.243713,-0.439349][4.32867,-3.00208,0][-1.05534,0.292511,0.00228853][-0.795276,0.481167,-0.368802][3.95051,-1.51955,0][-1.14887,0.00619316,0.0211099][-0.992976,0.113754,0.0325415][4.69483,-3.19144,0][-1.05534,0.292511,0.00228853][-0.795276,0.481167,-0.368802][3.95051,-1.51955,0][-1.12093,0.0347319,-0.0792063][-0.864625,0.243713,-0.439349][4.32867,-3.00208,0][-1.05534,0.292511,0.00228853][-0.795276,0.481167,-0.368802][3.95051,-1.51955,0][-1.14887,0.00619316,0.0211099][-0.992976,0.113754,0.0325415][4.69483,-3.19144,0][-1.08036,0.27288,0.09867][-0.916927,0.383452,0.110501][4.29983,-1.55486,0][-1.05534,0.237856,0.190584][-0.796369,0.208304,0.567808][3.95051,-1.84277,0][-0.919381,0.507405,0.167059][-0.667761,0.714763,0.207869][3.24876,-0.205824,0][-1.08036,0.27288,0.09867][-0.916927,0.383452,0.110501][4.29983,-1.55486,0][-0.919381,0.507405,0.167059][-0.667761,0.714763,0.207869][3.24876,-0.205824,0][-1.05534,0.237856,0.190584][-0.796369,0.208304,0.567808][3.95051,-1.84277,0][-0.900853,0.471022,0.244967][-0.563865,0.514464,0.646052][3.05991,-0.500969,0][-0.986993,0.196831,0.253404][-0.462186,-0.0017465,0.886781][3.5565,-2.08198,0][-0.900853,0.471022,0.244967][-0.563865,0.514464,0.646052][3.05991,-0.500969,0][-1.05534,0.237856,0.190584][-0.796369,0.208304,0.567808][3.95051,-1.84277,0][-0.900853,0.471022,0.244967][-0.563865,0.514464,0.646052][3.05991,-0.500969,0][-0.986993,0.196831,0.253404][-0.462186,-0.0017465,0.886781][3.5565,-2.08198,0][-0.850233,0.41897,0.294624][-0.28277,0.224107,0.93264][2.76809,-0.803182,0][-0.893633,0.160786,0.270293][0.00356656,-0.195381,0.980721][3.01829,-2.29051,0][-0.850233,0.41897,0.294624][-0.28277,0.224107,0.93264][2.76809,-0.803182,0][-0.986993,0.196831,0.253404][-0.462186,-0.0017465,0.886781][3.5565,-2.08198,0][-0.850233,0.41897,0.294624][-0.28277,0.224107,0.93264][2.76809,-0.803182,0][-0.893633,0.160786,0.270293][0.00356656,-0.195381,0.980721][3.01829,-2.29051,0][-0.781083,0.365221,0.302727][0.106037,-0.0861686,0.990622][2.36944,-1.11338,0][-0.800274,0.139387,0.23673][0.48001,-0.321652,0.816168][2.48007,-2.41242,0][-0.781083,0.365221,0.302727][0.106037,-0.0861686,0.990622][2.36944,-1.11338,0][-0.893633,0.160786,0.270293][0.00356656,-0.195381,0.980721][3.01829,-2.29051,0][-0.781083,0.365221,0.302727][0.106037,-0.0861686,0.990622][2.36944,-1.11338,0][-0.800274,0.139387,0.23673][0.48001,-0.321652,0.816168][2.48007,-2.41242,0][-0.711932,0.324158,0.267102][0.50285,-0.337321,0.795837][1.97079,-1.34856,0][-0.731928,0.138364,0.161705][0.835439,-0.341996,0.430209][2.08606,-2.41507,0][-0.711932,0.324158,0.267102][0.50285,-0.337321,0.795837][1.97079,-1.34856,0][-0.800274,0.139387,0.23673][0.48001,-0.321652,0.816168][2.48007,-2.41242,0][-0.711932,0.324158,0.267102][0.50285,-0.337321,0.795837][1.97079,-1.34856,0][-0.731928,0.138364,0.161705][0.835439,-0.341996,0.430209][2.08606,-2.41507,0][-0.661312,0.306795,0.197298][0.799269,-0.456734,0.390593][1.67897,-1.44564,0][-0.70691,0.157999,0.0653241][0.966941,-0.244691,-0.0717699][1.65471,-2.40026,0][-0.661312,0.306795,0.197298][0.799269,-0.456734,0.390593][1.67897,-1.44564,0][-0.731928,0.138364,0.161705][0.835439,-0.341996,0.430209][2.08606,-2.41507,0][-0.661312,0.306795,0.197298][0.799269,-0.456734,0.390593][1.67897,-1.44564,0][-0.70691,0.157999,0.0653241][0.966941,-0.244691,-0.0717699][1.65471,-2.40026,0][-0.642784,0.317774,0.112015][0.908189,-0.402134,-0.116112][1.36706,-1.48121,0][-0.731928,0.193022,-0.0265899][0.835541,-0.0549716,-0.546672][2.08606,-2.09184,0][-0.642784,0.317774,0.112015][0.908189,-0.402134,-0.116112][1.36706,-1.48121,0][-0.70691,0.157999,0.0653241][0.966941,-0.244691,-0.0717699][1.65471,-2.40026,0][-0.642784,0.317774,0.112015][0.908189,-0.402134,-0.116112][1.36706,-1.48121,0][-0.731928,0.193022,-0.0265899][0.835541,-0.0549716,-0.546672][2.08606,-2.09184,0][-0.661312,0.35416,0.0341072][0.795566,-0.184801,-0.576995][1.67897,-1.16553,0][-0.800274,0.23405,-0.0894081][0.480231,0.169929,-0.860524][2.48007,-1.85261,0][-0.661312,0.35416,0.0341072][0.795566,-0.184801,-0.576995][1.67897,-1.16553,0][-0.731928,0.193022,-0.0265899][0.835541,-0.0549716,-0.546672][2.08606,-2.09184,0][-0.661312,0.35416,0.0341072][0.795566,-0.184801,-0.576995][1.67897,-1.16553,0][-0.800274,0.23405,-0.0894081][0.480231,0.169929,-0.860524][2.48007,-1.85261,0][-0.711932,0.406203,-0.0155506][0.495501,0.129302,-0.858929][1.97079,-0.863373,0][-0.893633,0.270097,-0.106297][0.00443363,0.363747,-0.931487][3.01829,-1.64407,0][-0.711932,0.406203,-0.0155506][0.495501,0.129302,-0.858929][1.97079,-0.863373,0][-0.800274,0.23405,-0.0894081][0.480231,0.169929,-0.860524][2.48007,-1.85261,0][-0.711932,0.406203,-0.0155506][0.495501,0.129302,-0.858929][1.97079,-0.863373,0][-0.893633,0.270097,-0.106297][0.00443363,0.363747,-0.931487][3.01829,-1.64407,0][-0.781083,0.459958,-0.0236526][0.0964883,0.446407,-0.889613][2.36944,-0.553132,0][-0.986993,0.291495,-0.0727333][-0.46076,0.475576,-0.749351][3.5565,-1.52217,0][-0.781083,0.459958,-0.0236526][0.0964883,0.446407,-0.889613][2.36944,-0.553132,0][-0.893633,0.270097,-0.106297][0.00443363,0.363747,-0.931487][3.01829,-1.64407,0][-0.781083,0.459958,-0.0236526][0.0964883,0.446407,-0.889613][2.36944,-0.553132,0][-0.986993,0.291495,-0.0727333][-0.46076,0.475576,-0.749351][3.5565,-1.52217,0][-0.850233,0.501017,0.0119705][-0.291614,0.680553,-0.672167][2.76809,-0.317983,0][-1.05534,0.292511,0.00228853][-0.795276,0.481167,-0.368802][3.95051,-1.51955,0][-0.850233,0.501017,0.0119705][-0.291614,0.680553,-0.672167][2.76809,-0.317983,0][-0.986993,0.291495,-0.0727333][-0.46076,0.475576,-0.749351][3.5565,-1.52217,0][-0.850233,0.501017,0.0119705][-0.291614,0.680553,-0.672167][2.76809,-0.317983,0][-1.05534,0.292511,0.00228853][-0.795276,0.481167,-0.368802][3.95051,-1.51955,0][-0.900853,0.518389,0.0817769][-0.569096,0.776148,-0.271521][3.05991,-0.220858,0][-1.08036,0.27288,0.09867][-0.916927,0.383452,0.110501][4.29983,-1.55486,0][-0.900853,0.518389,0.0817769][-0.569096,0.776148,-0.271521][3.05991,-0.220858,0][-1.05534,0.292511,0.00228853][-0.795276,0.481167,-0.368802][3.95051,-1.51955,0][-0.900853,0.518389,0.0817769][-0.569096,0.776148,-0.271521][3.05991,-0.220858,0][-1.08036,0.27288,0.09867][-0.916927,0.383452,0.110501][4.29983,-1.55486,0][-0.919381,0.507405,0.167059][-0.667761,0.714763,0.207869][3.24876,-0.205824,0][-0.919381,0.507405,0.167059][-0.667761,0.714763,0.207869][3.24876,-0.205824,0][-0.900853,0.471022,0.244967][-0.563865,0.514464,0.646052][3.05991,-0.500969,0][-0.394809,0.757221,0.23193][0.722105,0.667799,0.18058][0.142593,1.14947,0][-0.900853,0.471022,0.244967][-0.563865,0.514464,0.646052][3.05991,-0.500969,0][-0.850233,0.41897,0.294624][-0.28277,0.224107,0.93264][2.76809,-0.803182,0][-0.394809,0.757221,0.23193][0.722105,0.667799,0.18058][0.142593,1.14947,0][-0.850233,0.41897,0.294624][-0.28277,0.224107,0.93264][2.76809,-0.803182,0][-0.781083,0.365221,0.302727][0.106037,-0.0861686,0.990622][2.36944,-1.11338,0][-0.394809,0.757221,0.23193][0.722105,0.667799,0.18058][0.142593,1.14947,0][-0.781083,0.365221,0.302727][0.106037,-0.0861686,0.990622][2.36944,-1.11338,0][-0.711932,0.324158,0.267102][0.50285,-0.337321,0.795837][1.97079,-1.34856,0][-0.394809,0.757221,0.23193][0.722105,0.667799,0.18058][0.142593,1.14947,0][-0.711932,0.324158,0.267102][0.50285,-0.337321,0.795837][1.97079,-1.34856,0][-0.661312,0.306795,0.197298][0.799269,-0.456734,0.390593][1.67897,-1.44564,0][-0.394809,0.757221,0.23193][0.722105,0.667799,0.18058][0.142593,1.14947,0][-0.661312,0.306795,0.197298][0.799269,-0.456734,0.390593][1.67897,-1.44564,0][-0.642784,0.317774,0.112015][0.908189,-0.402134,-0.116112][1.36706,-1.48121,0][-0.394809,0.757221,0.23193][0.722105,0.667799,0.18058][0.142593,1.14947,0][-0.642784,0.317774,0.112015][0.908189,-0.402134,-0.116112][1.36706,-1.48121,0][-0.661312,0.35416,0.0341072][0.795566,-0.184801,-0.576995][1.67897,-1.16553,0][-0.394809,0.757221,0.23193][0.722105,0.667799,0.18058][0.142593,1.14947,0][-0.661312,0.35416,0.0341072][0.795566,-0.184801,-0.576995][1.67897,-1.16553,0][-0.711932,0.406203,-0.0155506][0.495501,0.129302,-0.858929][1.97079,-0.863373,0][-0.394809,0.757221,0.23193][0.722105,0.667799,0.18058][0.142593,1.14947,0][-0.711932,0.406203,-0.0155506][0.495501,0.129302,-0.858929][1.97079,-0.863373,0][-0.781083,0.459958,-0.0236526][0.0964883,0.446407,-0.889613][2.36944,-0.553132,0][-0.394809,0.757221,0.23193][0.722105,0.667799,0.18058][0.142593,1.14947,0][-0.781083,0.459958,-0.0236526][0.0964883,0.446407,-0.889613][2.36944,-0.553132,0][-0.850233,0.501017,0.0119705][-0.291614,0.680553,-0.672167][2.76809,-0.317983,0][-0.394809,0.757221,0.23193][0.722105,0.667799,0.18058][0.142593,1.14947,0][-0.850233,0.501017,0.0119705][-0.291614,0.680553,-0.672167][2.76809,-0.317983,0][-0.900853,0.518389,0.0817769][-0.569096,0.776148,-0.271521][3.05991,-0.220858,0][-0.394809,0.757221,0.23193][0.722105,0.667799,0.18058][0.142593,1.14947,0][-0.900853,0.518389,0.0817769][-0.569096,0.776148,-0.271521][3.05991,-0.220858,0][-0.919381,0.507405,0.167059][-0.667761,0.714763,0.207869][3.24876,-0.205824,0][-0.394809,0.757221,0.23193][0.722105,0.667799,0.18058][0.142593,1.14947,0][1.06647,-0.542849,-0.138412][0.965363,-0.250389,-0.0733405][4.24031,-6.41118,0][1.14833,-0.253002,-0.0542794][0.991149,-0.127342,-0.0375192][4.7327,-4.7234,0][1.04058,-0.55981,-0.028033][0.850856,-0.35229,0.389789][3.86542,-6.43169,0][1.11899,-0.279608,0.0532998][0.863497,-0.243782,0.441524][4.31747,-4.8199,0][1.04058,-0.55981,-0.028033][0.850856,-0.35229,0.389789][3.86542,-6.43169,0][1.14833,-0.253002,-0.0542794][0.991149,-0.127342,-0.0375192][4.7327,-4.7234,0][1.04058,-0.55981,-0.028033][0.850856,-0.35229,0.389789][3.86542,-6.43169,0][1.11899,-0.279608,0.0532998][0.863497,-0.243782,0.441524][4.31747,-4.8199,0][0.969831,-0.544404,0.0608454][0.522676,-0.367875,0.769076][3.45757,-6.34672,0][1.03884,-0.290575,0.134523][0.510193,-0.290082,0.809664][3.8554,-4.88663,0][0.969831,-0.544404,0.0608454][0.522676,-0.367875,0.769076][3.45757,-6.34672,0][1.11899,-0.279608,0.0532998][0.863497,-0.243782,0.441524][4.31747,-4.8199,0][0.969831,-0.544404,0.0608454][0.522676,-0.367875,0.769076][3.45757,-6.34672,0][1.03884,-0.290575,0.134523][0.510193,-0.290082,0.809664][3.8554,-4.88663,0][0.873192,-0.50076,0.104409][0.0423715,-0.290099,0.956058][2.90045,-6.09701,0][0.929352,-0.282952,0.167631][0.0184222,-0.256191,0.966451][3.22421,-4.84413,0][0.873192,-0.50076,0.104409][0.0423715,-0.290099,0.956058][2.90045,-6.09701,0][1.03884,-0.290575,0.134523][0.510193,-0.290082,0.809664][3.8554,-4.88663,0][0.873192,-0.50076,0.104409][0.0423715,-0.290099,0.956058][2.90045,-6.09701,0][0.929352,-0.282952,0.167631][0.0184222,-0.256191,0.966451][3.22421,-4.84413,0][0.776552,-0.440576,0.0909831][-0.463996,-0.141112,0.874525][2.34332,-5.74948,0][0.819864,-0.258788,0.14375][-0.48237,-0.153391,0.862433][2.59302,-4.70379,0][0.776552,-0.440576,0.0909831][-0.463996,-0.141112,0.874525][2.34332,-5.74948,0][0.929352,-0.282952,0.167631][0.0184222,-0.256191,0.966451][3.22421,-4.84413,0][0.776552,-0.440576,0.0909831][-0.463996,-0.141112,0.874525][2.34332,-5.74948,0][0.819864,-0.258788,0.14375][-0.48237,-0.153391,0.862433][2.59302,-4.70379,0][0.705806,-0.379972,0.0241673][-0.841199,0.0321603,0.539769][1.93548,-5.39722,0][0.739714,-0.224557,0.0692789][-0.852386,-0.00827556,0.522847][2.13096,-4.50323,0][0.705806,-0.379972,0.0241673][-0.841199,0.0321603,0.539769][1.93548,-5.39722,0][0.819864,-0.258788,0.14375][-0.48237,-0.153391,0.862433][2.59302,-4.70379,0][0.705806,-0.379972,0.0241673][-0.841199,0.0321603,0.539769][1.93548,-5.39722,0][0.739714,-0.224557,0.0692789][-0.852386,-0.00827556,0.522847][2.13096,-4.50323,0][0.679911,-0.335198,-0.0781376][-0.979927,0.190754,0.0579391][1.47856,-5.07316,0][0.710376,-0.189431,-0.0358269][-0.98805,0.147761,0.0438736][1.75674,-4.27569,0][0.679911,-0.335198,-0.0781376][-0.979927,0.190754,0.0579391][1.47856,-5.07316,0][0.739714,-0.224557,0.0692789][-0.852386,-0.00827556,0.522847][2.13096,-4.50323,0][0.679911,-0.335198,-0.0781376][-0.979927,0.190754,0.0579391][1.47856,-5.07316,0][0.710376,-0.189431,-0.0358269][-0.98805,0.147761,0.0438736][1.75674,-4.27569,0][0.705806,-0.318237,-0.188517][-0.844325,0.308876,-0.437849][1.93548,-5.03214,0][0.739714,-0.162821,-0.143405][-0.851854,0.277322,-0.444338][2.13096,-4.13815,0][0.705806,-0.318237,-0.188517][-0.844325,0.308876,-0.437849][1.93548,-5.03214,0][0.710376,-0.189431,-0.0358269][-0.98805,0.147761,0.0438736][1.75674,-4.27569,0][0.705806,-0.318237,-0.188517][-0.844325,0.308876,-0.437849][1.93548,-5.03214,0][0.739714,-0.162821,-0.143405][-0.851854,0.277322,-0.444338][2.13096,-4.13815,0][0.776552,-0.333648,-0.277396][-0.464894,0.343816,-0.815883][2.34332,-5.11714,0][0.819864,-0.151862,-0.22463][-0.480458,0.336709,-0.809807][2.59302,-4.07146,0][0.776552,-0.333648,-0.277396][-0.464894,0.343816,-0.815883][2.34332,-5.11714,0][0.739714,-0.162821,-0.143405][-0.851854,0.277322,-0.444338][2.13096,-4.13815,0][0.776552,-0.333648,-0.277396][-0.464894,0.343816,-0.815883][2.34332,-5.11714,0][0.819864,-0.151862,-0.22463][-0.480458,0.336709,-0.809807][2.59302,-4.07146,0][0.873192,-0.377292,-0.32096][0.0447617,0.266501,-0.962795][2.90045,-5.36685,0][0.929352,-0.159481,-0.257737][0.0199264,0.302884,-0.952819][3.22421,-4.11395,0][0.873192,-0.377292,-0.32096][0.0447617,0.266501,-0.962795][2.90045,-5.36685,0][0.819864,-0.151862,-0.22463][-0.480458,0.336709,-0.809807][2.59302,-4.07146,0][0.873192,-0.377292,-0.32096][0.0447617,0.266501,-0.962795][2.90045,-5.36685,0][0.929352,-0.159481,-0.257737][0.0199264,0.302884,-0.952819][3.22421,-4.11395,0][0.969831,-0.437475,-0.307534][0.524734,0.103716,-0.844925][3.45757,-5.71437,0][1.03884,-0.183646,-0.233856][0.510328,0.188599,-0.839045][3.8554,-4.25429,0][0.969831,-0.437475,-0.307534][0.524734,0.103716,-0.844925][3.45757,-5.71437,0][0.929352,-0.159481,-0.257737][0.0199264,0.302884,-0.952819][3.22421,-4.11395,0][0.969831,-0.437475,-0.307534][0.524734,0.103716,-0.844925][3.45757,-5.71437,0][1.03884,-0.183646,-0.233856][0.510328,0.188599,-0.839045][3.8554,-4.25429,0][1.04058,-0.498076,-0.240717][0.851384,-0.0861248,-0.517424][3.86542,-6.06661,0][1.11899,-0.217873,-0.159384][0.863085,0.0304074,-0.504143][4.31747,-4.45481,0][1.04058,-0.498076,-0.240717][0.851384,-0.0861248,-0.517424][3.86542,-6.06661,0][1.03884,-0.183646,-0.233856][0.510328,0.188599,-0.839045][3.8554,-4.25429,0][1.04058,-0.498076,-0.240717][0.851384,-0.0861248,-0.517424][3.86542,-6.06661,0][1.11899,-0.217873,-0.159384][0.863085,0.0304074,-0.504143][4.31747,-4.45481,0][1.06647,-0.542849,-0.138412][0.965363,-0.250389,-0.0733405][4.24031,-6.41118,0][1.14833,-0.253002,-0.0542794][0.991149,-0.127342,-0.0375192][4.7327,-4.7234,0][1.06647,-0.542849,-0.138412][0.965363,-0.250389,-0.0733405][4.24031,-6.41118,0][1.11899,-0.217873,-0.159384][0.863085,0.0304074,-0.504143][4.31747,-4.45481,0][1.14833,-0.253002,-0.0542794][0.991149,-0.127342,-0.0375192][4.7327,-4.7234,0][1.14887,0.00619316,0.0211099][0.992976,0.113754,0.0325414][4.69483,-3.19144,0][1.11899,-0.279608,0.0532998][0.863497,-0.243782,0.441524][4.31747,-4.8199,0][1.12093,-0.0234184,0.121115][0.865102,-0.0302534,0.500683][4.32867,-3.34596,0][1.11899,-0.279608,0.0532998][0.863497,-0.243782,0.441524][4.31747,-4.8199,0][1.14887,0.00619316,0.0211099][0.992976,0.113754,0.0325414][4.69483,-3.19144,0][1.11899,-0.279608,0.0532998][0.863497,-0.243782,0.441524][4.31747,-4.8199,0][1.12093,-0.0234184,0.121115][0.865102,-0.0302534,0.500683][4.32867,-3.34596,0][1.03884,-0.290575,0.134523][0.510193,-0.290082,0.809664][3.8554,-4.88663,0][1.0446,-0.0461664,0.194013][0.511441,-0.1528,0.845624][3.88861,-3.48025,0][1.03884,-0.290575,0.134523][0.510193,-0.290082,0.809664][3.8554,-4.88663,0][1.12093,-0.0234184,0.121115][0.865102,-0.0302534,0.500683][4.32867,-3.34596,0][1.03884,-0.290575,0.134523][0.510193,-0.290082,0.809664][3.8554,-4.88663,0][1.0446,-0.0461664,0.194013][0.511441,-0.1528,0.845624][3.88861,-3.48025,0][0.929352,-0.282952,0.167631][0.0184222,-0.256191,0.966451][3.22421,-4.84413,0][0.940326,-0.0559626,0.220268][0.0190475,-0.223733,0.974464][3.28747,-3.53786,0][0.929352,-0.282952,0.167631][0.0184222,-0.256191,0.966451][3.22421,-4.84413,0][1.0446,-0.0461664,0.194013][0.511441,-0.1528,0.845624][3.88861,-3.48025,0][0.929352,-0.282952,0.167631][0.0184222,-0.256191,0.966451][3.22421,-4.84413,0][0.940326,-0.0559626,0.220268][0.0190475,-0.223733,0.974464][3.28747,-3.53786,0][0.819864,-0.258788,0.14375][-0.48237,-0.153391,0.862433][2.59302,-4.70379,0][0.836053,-0.0501728,0.19285][-0.484485,-0.223899,0.845661][2.68635,-3.50329,0][0.819864,-0.258788,0.14375][-0.48237,-0.153391,0.862433][2.59302,-4.70379,0][0.940326,-0.0559626,0.220268][0.0190475,-0.223733,0.974464][3.28747,-3.53786,0][0.819864,-0.258788,0.14375][-0.48237,-0.153391,0.862433][2.59302,-4.70379,0][0.836053,-0.0501728,0.19285][-0.484485,-0.223899,0.845661][2.68635,-3.50329,0][0.739714,-0.224557,0.0692789][-0.852386,-0.00827556,0.522847][2.13096,-4.50323,0][0.759719,-0.0303555,0.119101][-0.860536,-0.150241,0.486729][2.24628,-3.38586,0][0.739714,-0.224557,0.0692789][-0.852386,-0.00827556,0.522847][2.13096,-4.50323,0][0.836053,-0.0501728,0.19285][-0.484485,-0.223899,0.845661][2.68635,-3.50329,0][0.739714,-0.224557,0.0692789][-0.852386,-0.00827556,0.522847][2.13096,-4.50323,0][0.759719,-0.0303555,0.119101][-0.860536,-0.150241,0.486729][2.24628,-3.38586,0][0.710376,-0.189431,-0.0358269][-0.98805,0.147761,0.0438736][1.75674,-4.27569,0][0.731778,-0.00182056,0.0187846][-0.999802,-0.0190418,-0.00580962][1.85961,-3.23754,0][0.710376,-0.189431,-0.0358269][-0.98805,0.147761,0.0438736][1.75674,-4.27569,0][0.759719,-0.0303555,0.119101][-0.860536,-0.150241,0.486729][2.24628,-3.38586,0][0.710376,-0.189431,-0.0358269][-0.98805,0.147761,0.0438736][1.75674,-4.27569,0][0.731778,-0.00182056,0.0187846][-0.999802,-0.0190418,-0.00580962][1.85961,-3.23754,0][0.739714,-0.162821,-0.143405][-0.851854,0.277322,-0.444338][2.13096,-4.13815,0][0.759719,0.0277891,-0.0812208][-0.860188,0.134675,-0.491873][2.24628,-3.04201,0][0.739714,-0.162821,-0.143405][-0.851854,0.277322,-0.444338][2.13096,-4.13815,0][0.731778,-0.00182056,0.0187846][-0.999802,-0.0190418,-0.00580962][1.85961,-3.23754,0][0.739714,-0.162821,-0.143405][-0.851854,0.277322,-0.444338][2.13096,-4.13815,0][0.759719,0.0277891,-0.0812208][-0.860188,0.134675,-0.491873][2.24628,-3.04201,0][0.819864,-0.151862,-0.22463][-0.480458,0.336709,-0.809807][2.59302,-4.07146,0][0.836053,0.0505409,-0.154117][-0.483833,0.265507,-0.833913][2.68635,-2.90769,0][0.819864,-0.151862,-0.22463][-0.480458,0.336709,-0.809807][2.59302,-4.07146,0][0.759719,0.0277891,-0.0812208][-0.860188,0.134675,-0.491873][2.24628,-3.04201,0][0.819864,-0.151862,-0.22463][-0.480458,0.336709,-0.809807][2.59302,-4.07146,0][0.836053,0.0505409,-0.154117][-0.483833,0.265507,-0.833913][2.68635,-2.90769,0][0.929352,-0.159481,-0.257737][0.0199264,0.302884,-0.952819][3.22421,-4.11395,0][0.940326,0.0603304,-0.180375][0.0193416,0.334945,-0.942039][3.28747,-2.85013,0][0.929352,-0.159481,-0.257737][0.0199264,0.302884,-0.952819][3.22421,-4.11395,0][0.836053,0.0505409,-0.154117][-0.483833,0.265507,-0.833913][2.68635,-2.90769,0][0.929352,-0.159481,-0.257737][0.0199264,0.302884,-0.952819][3.22421,-4.11395,0][0.940326,0.0603304,-0.180375][0.0193416,0.334945,-0.942039][3.28747,-2.85013,0][1.03884,-0.183646,-0.233856][0.510328,0.188599,-0.839045][3.8554,-4.25429,0][1.0446,0.0545473,-0.152954][0.511085,0.325573,-0.795483][3.88861,-2.88465,0][1.03884,-0.183646,-0.233856][0.510328,0.188599,-0.839045][3.8554,-4.25429,0][0.940326,0.0603304,-0.180375][0.0193416,0.334945,-0.942039][3.28747,-2.85013,0][1.03884,-0.183646,-0.233856][0.510328,0.188599,-0.839045][3.8554,-4.25429,0][1.0446,0.0545473,-0.152954][0.511085,0.325573,-0.795483][3.88861,-2.88465,0][1.11899,-0.217873,-0.159384][0.863085,0.0304074,-0.504143][4.31747,-4.45481,0][1.12093,0.0347319,-0.0792063][0.864625,0.243713,-0.439349][4.32867,-3.00208,0][1.11899,-0.217873,-0.159384][0.863085,0.0304074,-0.504143][4.31747,-4.45481,0][1.0446,0.0545473,-0.152954][0.511085,0.325573,-0.795483][3.88861,-2.88465,0][1.11899,-0.217873,-0.159384][0.863085,0.0304074,-0.504143][4.31747,-4.45481,0][1.12093,0.0347319,-0.0792063][0.864625,0.243713,-0.439349][4.32867,-3.00208,0][1.14833,-0.253002,-0.0542794][0.991149,-0.127342,-0.0375192][4.7327,-4.7234,0][1.14887,0.00619316,0.0211099][0.992976,0.113754,0.0325414][4.69483,-3.19144,0][1.14833,-0.253002,-0.0542794][0.991149,-0.127342,-0.0375192][4.7327,-4.7234,0][1.12093,0.0347319,-0.0792063][0.864625,0.243713,-0.439349][4.32867,-3.00208,0][1.14887,0.00619316,0.0211099][0.992976,0.113754,0.0325414][4.69483,-3.19144,0][1.08035,0.27288,0.09867][0.916927,0.383452,0.110501][4.29983,-1.55486,0][1.12093,-0.0234184,0.121115][0.865102,-0.0302534,0.500683][4.32867,-3.34596,0][1.05534,0.237856,0.190584][0.796369,0.208304,0.567808][3.95051,-1.84277,0][1.12093,-0.0234184,0.121115][0.865102,-0.0302534,0.500683][4.32867,-3.34596,0][1.08035,0.27288,0.09867][0.916927,0.383452,0.110501][4.29983,-1.55486,0][1.12093,-0.0234184,0.121115][0.865102,-0.0302534,0.500683][4.32867,-3.34596,0][1.05534,0.237856,0.190584][0.796369,0.208304,0.567808][3.95051,-1.84277,0][1.0446,-0.0461664,0.194013][0.511441,-0.1528,0.845624][3.88861,-3.48025,0][0.986992,0.196831,0.253404][0.462186,-0.00174651,0.886781][3.5565,-2.08198,0][1.0446,-0.0461664,0.194013][0.511441,-0.1528,0.845624][3.88861,-3.48025,0][1.05534,0.237856,0.190584][0.796369,0.208304,0.567808][3.95051,-1.84277,0][1.0446,-0.0461664,0.194013][0.511441,-0.1528,0.845624][3.88861,-3.48025,0][0.986992,0.196831,0.253404][0.462186,-0.00174651,0.886781][3.5565,-2.08198,0][0.940326,-0.0559626,0.220268][0.0190475,-0.223733,0.974464][3.28747,-3.53786,0][0.893632,0.160786,0.270293][-0.00356658,-0.195381,0.980721][3.01829,-2.29051,0][0.940326,-0.0559626,0.220268][0.0190475,-0.223733,0.974464][3.28747,-3.53786,0][0.986992,0.196831,0.253404][0.462186,-0.00174651,0.886781][3.5565,-2.08198,0][0.940326,-0.0559626,0.220268][0.0190475,-0.223733,0.974464][3.28747,-3.53786,0][0.893632,0.160786,0.270293][-0.00356658,-0.195381,0.980721][3.01829,-2.29051,0][0.836053,-0.0501728,0.19285][-0.484485,-0.223899,0.845661][2.68635,-3.50329,0][0.800273,0.139387,0.23673][-0.48001,-0.321652,0.816168][2.48007,-2.41242,0][0.836053,-0.0501728,0.19285][-0.484485,-0.223899,0.845661][2.68635,-3.50329,0][0.893632,0.160786,0.270293][-0.00356658,-0.195381,0.980721][3.01829,-2.29051,0][0.836053,-0.0501728,0.19285][-0.484485,-0.223899,0.845661][2.68635,-3.50329,0][0.800273,0.139387,0.23673][-0.48001,-0.321652,0.816168][2.48007,-2.41242,0][0.759719,-0.0303555,0.119101][-0.860536,-0.150241,0.486729][2.24628,-3.38586,0][0.731927,0.138364,0.161705][-0.835439,-0.341996,0.430209][2.08606,-2.41507,0][0.759719,-0.0303555,0.119101][-0.860536,-0.150241,0.486729][2.24628,-3.38586,0][0.800273,0.139387,0.23673][-0.48001,-0.321652,0.816168][2.48007,-2.41242,0][0.759719,-0.0303555,0.119101][-0.860536,-0.150241,0.486729][2.24628,-3.38586,0][0.731927,0.138364,0.161705][-0.835439,-0.341996,0.430209][2.08606,-2.41507,0][0.731778,-0.00182056,0.0187846][-0.999802,-0.0190418,-0.00580962][1.85961,-3.23754,0][0.70691,0.157999,0.0653241][-0.966941,-0.244691,-0.0717699][1.65471,-2.40026,0][0.731778,-0.00182056,0.0187846][-0.999802,-0.0190418,-0.00580962][1.85961,-3.23754,0][0.731927,0.138364,0.161705][-0.835439,-0.341996,0.430209][2.08606,-2.41507,0][0.731778,-0.00182056,0.0187846][-0.999802,-0.0190418,-0.00580962][1.85961,-3.23754,0][0.70691,0.157999,0.0653241][-0.966941,-0.244691,-0.0717699][1.65471,-2.40026,0][0.759719,0.0277891,-0.0812208][-0.860188,0.134675,-0.491873][2.24628,-3.04201,0][0.731927,0.193022,-0.0265899][-0.835541,-0.0549716,-0.546672][2.08606,-2.09184,0][0.759719,0.0277891,-0.0812208][-0.860188,0.134675,-0.491873][2.24628,-3.04201,0][0.70691,0.157999,0.0653241][-0.966941,-0.244691,-0.0717699][1.65471,-2.40026,0][0.759719,0.0277891,-0.0812208][-0.860188,0.134675,-0.491873][2.24628,-3.04201,0][0.731927,0.193022,-0.0265899][-0.835541,-0.0549716,-0.546672][2.08606,-2.09184,0][0.836053,0.0505409,-0.154117][-0.483833,0.265507,-0.833913][2.68635,-2.90769,0][0.800273,0.23405,-0.0894081][-0.480231,0.169929,-0.860524][2.48007,-1.85261,0][0.836053,0.0505409,-0.154117][-0.483833,0.265507,-0.833913][2.68635,-2.90769,0][0.731927,0.193022,-0.0265899][-0.835541,-0.0549716,-0.546672][2.08606,-2.09184,0][0.836053,0.0505409,-0.154117][-0.483833,0.265507,-0.833913][2.68635,-2.90769,0][0.800273,0.23405,-0.0894081][-0.480231,0.169929,-0.860524][2.48007,-1.85261,0][0.940326,0.0603304,-0.180375][0.0193416,0.334945,-0.942039][3.28747,-2.85013,0][0.893632,0.270097,-0.106297][-0.00443365,0.363747,-0.931487][3.01829,-1.64407,0][0.940326,0.0603304,-0.180375][0.0193416,0.334945,-0.942039][3.28747,-2.85013,0][0.800273,0.23405,-0.0894081][-0.480231,0.169929,-0.860524][2.48007,-1.85261,0][0.940326,0.0603304,-0.180375][0.0193416,0.334945,-0.942039][3.28747,-2.85013,0][0.893632,0.270097,-0.106297][-0.00443365,0.363747,-0.931487][3.01829,-1.64407,0][1.0446,0.0545473,-0.152954][0.511085,0.325573,-0.795483][3.88861,-2.88465,0][0.986992,0.291495,-0.0727333][0.46076,0.475576,-0.749351][3.5565,-1.52217,0][1.0446,0.0545473,-0.152954][0.511085,0.325573,-0.795483][3.88861,-2.88465,0][0.893632,0.270097,-0.106297][-0.00443365,0.363747,-0.931487][3.01829,-1.64407,0][1.0446,0.0545473,-0.152954][0.511085,0.325573,-0.795483][3.88861,-2.88465,0][0.986992,0.291495,-0.0727333][0.46076,0.475576,-0.749351][3.5565,-1.52217,0][1.12093,0.0347319,-0.0792063][0.864625,0.243713,-0.439349][4.32867,-3.00208,0][1.05534,0.292511,0.00228853][0.795276,0.481167,-0.368802][3.95051,-1.51955,0][1.12093,0.0347319,-0.0792063][0.864625,0.243713,-0.439349][4.32867,-3.00208,0][0.986992,0.291495,-0.0727333][0.46076,0.475576,-0.749351][3.5565,-1.52217,0][1.12093,0.0347319,-0.0792063][0.864625,0.243713,-0.439349][4.32867,-3.00208,0][1.05534,0.292511,0.00228853][0.795276,0.481167,-0.368802][3.95051,-1.51955,0][1.14887,0.00619316,0.0211099][0.992976,0.113754,0.0325414][4.69483,-3.19144,0][1.08035,0.27288,0.09867][0.916927,0.383452,0.110501][4.29983,-1.55486,0][1.14887,0.00619316,0.0211099][0.992976,0.113754,0.0325414][4.69483,-3.19144,0][1.05534,0.292511,0.00228853][0.795276,0.481167,-0.368802][3.95051,-1.51955,0][1.08035,0.27288,0.09867][0.916927,0.383452,0.110501][4.29983,-1.55486,0][0.919381,0.507405,0.167059][0.667761,0.714763,0.207869][3.24876,-0.205824,0][1.05534,0.237856,0.190584][0.796369,0.208304,0.567808][3.95051,-1.84277,0][0.900852,0.471022,0.244967][0.563865,0.514464,0.646052][3.05991,-0.500969,0][1.05534,0.237856,0.190584][0.796369,0.208304,0.567808][3.95051,-1.84277,0][0.919381,0.507405,0.167059][0.667761,0.714763,0.207869][3.24876,-0.205824,0][1.05534,0.237856,0.190584][0.796369,0.208304,0.567808][3.95051,-1.84277,0][0.900852,0.471022,0.244967][0.563865,0.514464,0.646052][3.05991,-0.500969,0][0.986992,0.196831,0.253404][0.462186,-0.00174651,0.886781][3.5565,-2.08198,0][0.850232,0.41897,0.294624][0.28277,0.224107,0.93264][2.76809,-0.803182,0][0.986992,0.196831,0.253404][0.462186,-0.00174651,0.886781][3.5565,-2.08198,0][0.900852,0.471022,0.244967][0.563865,0.514464,0.646052][3.05991,-0.500969,0][0.986992,0.196831,0.253404][0.462186,-0.00174651,0.886781][3.5565,-2.08198,0][0.850232,0.41897,0.294624][0.28277,0.224107,0.93264][2.76809,-0.803182,0][0.893632,0.160786,0.270293][-0.00356658,-0.195381,0.980721][3.01829,-2.29051,0][0.781082,0.365221,0.302727][-0.106037,-0.0861686,0.990622][2.36944,-1.11338,0][0.893632,0.160786,0.270293][-0.00356658,-0.195381,0.980721][3.01829,-2.29051,0][0.850232,0.41897,0.294624][0.28277,0.224107,0.93264][2.76809,-0.803182,0][0.893632,0.160786,0.270293][-0.00356658,-0.195381,0.980721][3.01829,-2.29051,0][0.781082,0.365221,0.302727][-0.106037,-0.0861686,0.990622][2.36944,-1.11338,0][0.800273,0.139387,0.23673][-0.48001,-0.321652,0.816168][2.48007,-2.41242,0][0.711931,0.324158,0.267102][-0.50285,-0.337321,0.795837][1.97079,-1.34856,0][0.800273,0.139387,0.23673][-0.48001,-0.321652,0.816168][2.48007,-2.41242,0][0.781082,0.365221,0.302727][-0.106037,-0.0861686,0.990622][2.36944,-1.11338,0][0.800273,0.139387,0.23673][-0.48001,-0.321652,0.816168][2.48007,-2.41242,0][0.711931,0.324158,0.267102][-0.50285,-0.337321,0.795837][1.97079,-1.34856,0][0.731927,0.138364,0.161705][-0.835439,-0.341996,0.430209][2.08606,-2.41507,0][0.661312,0.306795,0.197298][-0.799269,-0.456734,0.390593][1.67897,-1.44564,0][0.731927,0.138364,0.161705][-0.835439,-0.341996,0.430209][2.08606,-2.41507,0][0.711931,0.324158,0.267102][-0.50285,-0.337321,0.795837][1.97079,-1.34856,0][0.731927,0.138364,0.161705][-0.835439,-0.341996,0.430209][2.08606,-2.41507,0][0.661312,0.306795,0.197298][-0.799269,-0.456734,0.390593][1.67897,-1.44564,0][0.70691,0.157999,0.0653241][-0.966941,-0.244691,-0.0717699][1.65471,-2.40026,0][0.642783,0.317774,0.112015][-0.908189,-0.402134,-0.116112][1.36706,-1.48121,0][0.70691,0.157999,0.0653241][-0.966941,-0.244691,-0.0717699][1.65471,-2.40026,0][0.661312,0.306795,0.197298][-0.799269,-0.456734,0.390593][1.67897,-1.44564,0][0.70691,0.157999,0.0653241][-0.966941,-0.244691,-0.0717699][1.65471,-2.40026,0][0.642783,0.317774,0.112015][-0.908189,-0.402134,-0.116112][1.36706,-1.48121,0][0.731927,0.193022,-0.0265899][-0.835541,-0.0549716,-0.546672][2.08606,-2.09184,0][0.661312,0.35416,0.0341072][-0.795566,-0.184801,-0.576995][1.67897,-1.16553,0][0.731927,0.193022,-0.0265899][-0.835541,-0.0549716,-0.546672][2.08606,-2.09184,0][0.642783,0.317774,0.112015][-0.908189,-0.402134,-0.116112][1.36706,-1.48121,0][0.731927,0.193022,-0.0265899][-0.835541,-0.0549716,-0.546672][2.08606,-2.09184,0][0.661312,0.35416,0.0341072][-0.795566,-0.184801,-0.576995][1.67897,-1.16553,0][0.800273,0.23405,-0.0894081][-0.480231,0.169929,-0.860524][2.48007,-1.85261,0][0.711931,0.406203,-0.0155506][-0.495501,0.129302,-0.858929][1.97079,-0.863373,0][0.800273,0.23405,-0.0894081][-0.480231,0.169929,-0.860524][2.48007,-1.85261,0][0.661312,0.35416,0.0341072][-0.795566,-0.184801,-0.576995][1.67897,-1.16553,0][0.800273,0.23405,-0.0894081][-0.480231,0.169929,-0.860524][2.48007,-1.85261,0][0.711931,0.406203,-0.0155506][-0.495501,0.129302,-0.858929][1.97079,-0.863373,0][0.893632,0.270097,-0.106297][-0.00443365,0.363747,-0.931487][3.01829,-1.64407,0][0.781082,0.459958,-0.0236526][-0.0964883,0.446407,-0.889613][2.36944,-0.553132,0][0.893632,0.270097,-0.106297][-0.00443365,0.363747,-0.931487][3.01829,-1.64407,0][0.711931,0.406203,-0.0155506][-0.495501,0.129302,-0.858929][1.97079,-0.863373,0][0.893632,0.270097,-0.106297][-0.00443365,0.363747,-0.931487][3.01829,-1.64407,0][0.781082,0.459958,-0.0236526][-0.0964883,0.446407,-0.889613][2.36944,-0.553132,0][0.986992,0.291495,-0.0727333][0.46076,0.475576,-0.749351][3.5565,-1.52217,0][0.850232,0.501017,0.0119705][0.291614,0.680553,-0.672167][2.76809,-0.317983,0][0.986992,0.291495,-0.0727333][0.46076,0.475576,-0.749351][3.5565,-1.52217,0][0.781082,0.459958,-0.0236526][-0.0964883,0.446407,-0.889613][2.36944,-0.553132,0][0.986992,0.291495,-0.0727333][0.46076,0.475576,-0.749351][3.5565,-1.52217,0][0.850232,0.501017,0.0119705][0.291614,0.680553,-0.672167][2.76809,-0.317983,0][1.05534,0.292511,0.00228853][0.795276,0.481167,-0.368802][3.95051,-1.51955,0][0.900852,0.518389,0.0817769][0.569096,0.776148,-0.271521][3.05991,-0.220858,0][1.05534,0.292511,0.00228853][0.795276,0.481167,-0.368802][3.95051,-1.51955,0][0.850232,0.501017,0.0119705][0.291614,0.680553,-0.672167][2.76809,-0.317983,0][1.05534,0.292511,0.00228853][0.795276,0.481167,-0.368802][3.95051,-1.51955,0][0.900852,0.518389,0.0817769][0.569096,0.776148,-0.271521][3.05991,-0.220858,0][1.08035,0.27288,0.09867][0.916927,0.383452,0.110501][4.29983,-1.55486,0][0.919381,0.507405,0.167059][0.667761,0.714763,0.207869][3.24876,-0.205824,0][1.08035,0.27288,0.09867][0.916927,0.383452,0.110501][4.29983,-1.55486,0][0.900852,0.518389,0.0817769][0.569096,0.776148,-0.271521][3.05991,-0.220858,0][0.394808,0.757221,0.23193][-0.722103,0.667801,0.180582][0.142593,1.14947,0][0.900852,0.471022,0.244967][0.563865,0.514464,0.646052][3.05991,-0.500969,0][0.919381,0.507405,0.167059][0.667761,0.714763,0.207869][3.24876,-0.205824,0][0.394808,0.757221,0.23193][-0.722103,0.667801,0.180582][0.142593,1.14947,0][0.850232,0.41897,0.294624][0.28277,0.224107,0.93264][2.76809,-0.803182,0][0.900852,0.471022,0.244967][0.563865,0.514464,0.646052][3.05991,-0.500969,0][0.394808,0.757221,0.23193][-0.722103,0.667801,0.180582][0.142593,1.14947,0][0.781082,0.365221,0.302727][-0.106037,-0.0861686,0.990622][2.36944,-1.11338,0][0.850232,0.41897,0.294624][0.28277,0.224107,0.93264][2.76809,-0.803182,0][0.394808,0.757221,0.23193][-0.722103,0.667801,0.180582][0.142593,1.14947,0][0.711931,0.324158,0.267102][-0.50285,-0.337321,0.795837][1.97079,-1.34856,0][0.781082,0.365221,0.302727][-0.106037,-0.0861686,0.990622][2.36944,-1.11338,0][0.394808,0.757221,0.23193][-0.722103,0.667801,0.180582][0.142593,1.14947,0][0.661312,0.306795,0.197298][-0.799269,-0.456734,0.390593][1.67897,-1.44564,0][0.711931,0.324158,0.267102][-0.50285,-0.337321,0.795837][1.97079,-1.34856,0][0.394808,0.757221,0.23193][-0.722103,0.667801,0.180582][0.142593,1.14947,0][0.642783,0.317774,0.112015][-0.908189,-0.402134,-0.116112][1.36706,-1.48121,0][0.661312,0.306795,0.197298][-0.799269,-0.456734,0.390593][1.67897,-1.44564,0][0.394808,0.757221,0.23193][-0.722103,0.667801,0.180582][0.142593,1.14947,0][0.661312,0.35416,0.0341072][-0.795566,-0.184801,-0.576995][1.67897,-1.16553,0][0.642783,0.317774,0.112015][-0.908189,-0.402134,-0.116112][1.36706,-1.48121,0][0.394808,0.757221,0.23193][-0.722103,0.667801,0.180582][0.142593,1.14947,0][0.711931,0.406203,-0.0155506][-0.495501,0.129302,-0.858929][1.97079,-0.863373,0][0.661312,0.35416,0.0341072][-0.795566,-0.184801,-0.576995][1.67897,-1.16553,0][0.394808,0.757221,0.23193][-0.722103,0.667801,0.180582][0.142593,1.14947,0][0.781082,0.459958,-0.0236526][-0.0964883,0.446407,-0.889613][2.36944,-0.553132,0][0.711931,0.406203,-0.0155506][-0.495501,0.129302,-0.858929][1.97079,-0.863373,0][0.394808,0.757221,0.23193][-0.722103,0.667801,0.180582][0.142593,1.14947,0][0.850232,0.501017,0.0119705][0.291614,0.680553,-0.672167][2.76809,-0.317983,0][0.781082,0.459958,-0.0236526][-0.0964883,0.446407,-0.889613][2.36944,-0.553132,0][0.394808,0.757221,0.23193][-0.722103,0.667801,0.180582][0.142593,1.14947,0][0.900852,0.518389,0.0817769][0.569096,0.776148,-0.271521][3.05991,-0.220858,0][0.850232,0.501017,0.0119705][0.291614,0.680553,-0.672167][2.76809,-0.317983,0][0.394808,0.757221,0.23193][-0.722103,0.667801,0.180582][0.142593,1.14947,0][0.919381,0.507405,0.167059][0.667761,0.714763,0.207869][3.24876,-0.205824,0][0.900852,0.518389,0.0817769][0.569096,0.776148,-0.271521][3.05991,-0.220858,0]