version 1.00
12
[512,0,-512][1,0,0][69.75,-6,0][512,0,512][1,0,0][5.75,-6,0][512,-40,-512][1,0,0][69.75,-8.5,0][512,-40,-512][1,0,0][69.75,-8.5,0][512,0,512][1,0,0][5.75,-6,0][512,-40,512][1,0,0][5.75,-8.5,0][-512,0,512][0,1,0][69.75,-6,0][512,0,512][0,1,0][5.75,-6,0][-512,0,-512][0,1,0][69.75,-70,0][-512,0,-512][0,1,0][69.75,-70,0][512,0,512][0,1,0][5.75,-6,0][512,0,-512][0,1,0][5.75,-70,0][512,0,512][0,0,1][69.75,-6,0][-512,0,512][0,0,1][5.75,-6,0][512,-40,512][0,0,1][69.75,-8.5,0][512,-40,512][0,0,1][69.75,-8.5,0][-512,0,512][0,0,1][5.75,-6,0][-512,-40,512][0,0,1][5.75,-8.5,0][-512,0,512][-1,0,0][69.75,-6,0][-512,0,-512][-1,0,0][5.75,-6,0][-512,-40,512][-1,0,0][69.75,-8.5,0][-512,-40,512][-1,0,0][69.75,-8.5,0][-512,0,-512][-1,0,0][5.75,-6,0][-512,-40,-512][-1,0,0][5.75,-8.5,0][-512,-40,-512][0,-1,0][69.75,-6,0][512,-40,-512][0,-1,0][5.75,-6,0][-512,-40,512][0,-1,0][69.75,-70,0][-512,-40,512][0,-1,0][69.75,-70,0][512,-40,-512][0,-1,0][5.75,-6,0][512,-40,512][0,-1,0][5.75,-70,0][-512,0,-512][0,0,-1][69.75,-6,0][512,0,-512][0,0,-1][5.75,-6,0][-512,-40,-512][0,0,-1][69.75,-8.5,0][-512,-40,-512][0,0,-1][69.75,-8.5,0][512,0,-512][0,0,-1][5.75,-6,0][512,-40,-512][0,0,-1][5.75,-8.5,0]