version 1.00
312
[-1.13747,-0.401796,-1.12344][0.462744,-0.139506,-0.875446][0.751383,0.331794,0][-1.33551,-0.401796,-1.00149][-0.894349,-0.204332,-0.397979][0.69208,0.319188,0][-1.30065,-0.229197,-1.08491][-0.765495,0.077968,-0.6387][0.699682,0.365397,0][-1.13747,-0.401796,-1.12344][0.462744,-0.139506,-0.875446][0.751383,0.331794,0][-1.30065,-0.229197,-1.08491][-0.765495,0.077968,-0.6387][0.699682,0.365397,0][-1.10538,-0.229197,-1.20687][0.469879,-0.00330178,-0.882725][0.754416,0.386328,0][-1.13449,0.302863,-0.813551][0.462253,0.768254,-0.44284][0.619755,0.500166,0][-1.32604,0.186084,-0.813551][-0.802949,0.464309,-0.37375][0.610651,0.444156,0][-1.32902,0.265134,-0.564054][-0.852316,0.512822,0.102816][0.555387,0.455266,0][-1.13449,0.302863,-0.813551][0.462253,0.768254,-0.44284][0.619755,0.500166,0][-1.32902,0.265134,-0.564054][-0.852316,0.512822,0.102816][0.555387,0.455266,0][-1.13747,0.381924,-0.564054][0.274402,0.935589,-0.222209][0.546441,0.509076,0][-1.13747,-0.401796,-0.564054][0.697253,-0.42412,-0.577893][0.591184,0.221918,0][-1.33551,-0.401796,-0.564054][-0.872781,-0.481631,-0.0792719][0.570163,0.278839,0][-1.33551,-0.401796,-0.773685][-0.82941,-0.519063,0.206522][0.636081,0.292495,0][-1.13747,-0.401796,-0.564054][0.697253,-0.42412,-0.577893][0.591184,0.221918,0][-1.33551,-0.401796,-0.773685][-0.82941,-0.519063,0.206522][0.636081,0.292495,0][-1.13747,-0.401796,-0.773685][0.839381,-0.431053,0.331109][0.644677,0.236899,0][-1.33147,-0.101426,-0.790678][-0.998504,0.0224562,-0.0498519][0.620407,0.376336,0][-1.33551,-0.401796,-0.773685][-0.82941,-0.519063,0.206522][0.636081,0.292495,0][-1.33551,-0.401796,-0.564054][-0.872781,-0.481631,-0.0792719][0.570163,0.278839,0][-1.33147,-0.101426,-0.790678][-0.998504,0.0224562,-0.0498519][0.620407,0.376336,0][-1.33551,-0.401796,-0.564054][-0.872781,-0.481631,-0.0792719][0.570163,0.278839,0][-1.33274,-0.0677262,-0.564054][-0.984621,0.0232768,0.173144][0.561876,0.376182,0][-1.13747,-0.401796,-0.564054][0.697253,-0.42412,-0.577893][0.554868,0.644389,0][-1.13747,-0.401796,-0.773685][0.839381,-0.431053,0.331109][0.503945,0.644988,0][-1.1362,-0.101426,-0.790678][0.999439,-0.0109933,0.0316377][0.500616,0.718122,0][-1.13747,-0.401796,-0.564054][0.697253,-0.42412,-0.577893][0.554868,0.644389,0][-1.1362,-0.101426,-0.790678][0.999439,-0.0109933,0.0316377][0.500616,0.718122,0][-1.13747,-0.0677261,-0.564054][0.955053,-0.000729368,-0.296433][0.555962,0.725684,0][-1.13747,0.381924,-0.564054][0.274402,0.935589,-0.222209][0.546441,0.509076,0][-1.32902,0.265134,-0.564054][-0.852316,0.512822,0.102816][0.555387,0.455266,0][-1.11799,0.269673,-0.187161][-0.716291,0.583646,0.382471][0.453458,0.464788,0][-1.13747,0.381924,-0.564054][0.274402,0.935589,-0.222209][0.546441,0.509076,0][-1.11799,0.269673,-0.187161][-0.716291,0.583646,0.382471][0.453458,0.464788,0][-0.956257,0.381924,-0.304179][0.409512,0.85881,-0.307807][0.462351,0.523789,0][-1.33274,-0.0677262,-0.564054][-0.984621,0.0232768,0.173144][0.561876,0.376182,0][-1.33551,-0.401796,-0.564054][-0.872781,-0.481631,-0.0792719][0.570163,0.278839,0][-1.20563,-0.401796,-0.135835][-0.95052,-0.0734458,0.301856][0.444361,0.295469,0][-1.33274,-0.0677262,-0.564054][-0.984621,0.0232768,0.173144][0.561876,0.376182,0][-1.20563,-0.401796,-0.135835][-0.95052,-0.0734458,0.301856][0.444361,0.295469,0][-1.16827,-0.0657968,-0.157713][-0.915764,0.143666,0.375147][0.450929,0.378367,0][-1.16216,-0.890427,-0.366384][-0.633989,-0.675154,-0.377127][0.472981,0.176661,0][-1.0019,-0.890427,-0.366384][0.575921,-0.513549,-0.636068][0.477981,0.136771,0][-0.937157,-0.950046,-0.174053][0.549862,-0.706222,-0.445984][0.417806,0.12777,0][-1.16216,-0.890427,-0.366384][-0.633989,-0.675154,-0.377127][0.472981,0.176661,0][-0.937157,-0.950046,-0.174053][0.549862,-0.706222,-0.445984][0.417806,0.12777,0][-1.05817,-0.950047,-0.129004][-0.640684,-0.76567,0.0572215][0.413867,0.161938,0][-1.13747,-0.401796,-0.564054][0.697253,-0.42412,-0.577893][0.554868,0.644389,0][-1.13747,-0.0677261,-0.564054][0.955053,-0.000729368,-0.296433][0.555962,0.725684,0][-0.956257,-0.0677261,-0.304179][0.82027,0,-0.571977][0.633364,0.724846,0][-1.13747,-0.401796,-0.564054][0.697253,-0.42412,-0.577893][0.554868,0.644389,0][-0.956257,-0.0677261,-0.304179][0.82027,0,-0.571977][0.633364,0.724846,0][-0.956257,-0.401796,-0.304179][0.819101,-0.0533612,-0.571162][0.6325,0.642737,0][-0.770583,0.381924,-0.0379035][0.344813,0.866207,-0.361648][0.374557,0.532427,0][-0.901772,0.274324,0.199018][-0.56899,0.641219,0.514867][0.345424,0.464258,0][-0.646413,0.292824,0.374441][-0.370466,0.655873,0.657713][0.272393,0.483307,0][-0.770583,0.381924,-0.0379035][0.344813,0.866207,-0.361648][0.374557,0.532427,0][-0.646413,0.292824,0.374441][-0.370466,0.655873,0.657713][0.272393,0.483307,0][-0.472029,0.409614,0.196964][0.211595,0.89304,-0.397123][0.274172,0.554104,0][-0.999751,-0.063816,0.258638][-0.745057,0.263153,0.612895][0.343747,0.380544,0][-1.07254,-0.401796,0.302932][-0.799213,-0.0420078,0.599578][0.339221,0.303677,0][-0.687602,-0.435556,0.58085][-0.51109,-0.0332895,0.858882][0.233573,0.30074,0][-0.999751,-0.063816,0.258638][-0.745057,0.263153,0.612895][0.343747,0.380544,0][-0.687602,-0.435556,0.58085][-0.51109,-0.0332895,0.858882][0.233573,0.30074,0][-0.670045,-0.0752963,0.492871][-0.470799,0.269966,0.839921][0.246517,0.389401,0][-0.951626,-1.01115,0.114224][-0.64451,-0.721582,0.252835][0.346173,0.157548,0][-0.870821,-1.01115,0.0230166][0.227506,-0.815702,-0.531856][0.357587,0.127652,0][-0.483762,-1.14238,0.235885][0.120256,-0.734187,-0.668212][0.245906,0.080632,0][-0.951626,-1.01115,0.114224][-0.64451,-0.721582,0.252835][0.346173,0.157548,0][-0.483762,-1.14238,0.235885][0.120256,-0.734187,-0.668212][0.245906,0.080632,0][-0.658146,-1.14238,0.394991][-0.452214,-0.767535,0.454306][0.252744,0.137562,0][-0.770583,-0.401796,-0.0379035][0.731045,-0.0531669,-0.680255][0.71314,0.641518,0][-0.770583,-0.067726,-0.0379035][0.73541,0,-0.677623][0.713097,0.724564,0][-0.495661,-0.0752963,0.189304][0.508429,-0.00616007,-0.861082][0.800738,0.723376,0][-0.770583,-0.401796,-0.0379035][0.731045,-0.0531669,-0.680255][0.71314,0.641518,0][-0.495661,-0.0752963,0.189304][0.508429,-0.00616007,-0.861082][0.800738,0.723376,0][-0.513218,-0.435556,0.183613][0.526843,-0.018177,-0.849768][0.797833,0.634536,0][-0.472029,0.409614,0.196964][0.211595,0.89304,-0.397123][0.274172,0.554104,0][-0.646413,0.292824,0.374441][-0.370466,0.655873,0.657713][0.272393,0.483307,0][-0.355195,0.286624,0.466021][-0.380109,0.569701,0.728669][0.186841,0.510839,0][-0.472029,0.409614,0.196964][0.211595,0.89304,-0.397123][0.274172,0.554104,0][-0.355195,0.286624,0.466021][-0.380109,0.569701,0.728669][0.186841,0.510839,0][-0.248241,0.403414,0.258731][-0.252384,-0.0688995,-0.965171][0.219963,0.585302,0][-0.513218,-0.435556,0.183613][0.526843,-0.018177,-0.849768][0.797833,0.634536,0][-0.495661,-0.0752963,0.189304][0.508429,-0.00616007,-0.861082][0.800738,0.723376,0][-0.196442,-0.0585659,0.307631][0.368951,-0.0411005,-0.92854][0.87947,0.729067,0][-0.513218,-0.435556,0.183613][0.526843,-0.018177,-0.849768][0.797833,0.634536,0][-0.196442,-0.0585659,0.307631][0.368951,-0.0411005,-0.92854][0.87947,0.729067,0][-0.157959,-0.401787,0.343961][0.341055,0.00195318,-0.940041][0.893393,0.645411,0][-0.658146,-1.14238,0.394991][-0.452214,-0.767535,0.454306][0.252744,0.137562,0][-0.483762,-1.14238,0.235885][0.120256,-0.734187,-0.668212][0.245906,0.080632,0][-0.135249,-1.18772,0.329121][0.102514,-0.730325,-0.675364][0.149327,0.057348,0][-0.658146,-1.14238,0.394991][-0.452214,-0.767535,0.454306][0.252744,0.137562,0][-0.135249,-1.18772,0.329121][0.102514,-0.730325,-0.675364][0.149327,0.057348,0][-0.242203,-1.18772,0.500161][-0.157685,-0.818438,0.552534][0.156084,0.109275,0][-0.670045,-0.0752963,0.492871][-0.470799,0.269966,0.839921][0.246517,0.389401,0][-0.687602,-0.435556,0.58085][-0.51109,-0.0332895,0.858882][0.233573,0.30074,0][-0.264912,-0.401787,0.771021][-0.310236,0.00458394,0.950648][0.122319,0.310741,0][-0.670045,-0.0752963,0.492871][-0.470799,0.269966,0.839921][0.246517,0.389401,0][-0.264912,-0.401787,0.771021][-0.310236,0.00458394,0.950648][0.122319,0.310741,0][-0.303396,-0.0585659,0.641011][-0.317688,0.334585,0.887202][0.145824,0.403725,0][-1.04034,-0.662637,-0.921372][0.760992,-0.490756,0.424322][0.723302,0.222013,0][-1.17173,-0.662637,-0.921372][-0.224545,-0.74888,0.623505][0.713714,0.252978,0][-1.20223,-0.692757,-1.00149][-0.547859,-0.827413,-0.123441][0.729358,0.262993,0][-1.04034,-0.662637,-0.921372][0.760992,-0.490756,0.424322][0.723302,0.222013,0][-1.20223,-0.692757,-1.00149][-0.547859,-0.827413,-0.123441][0.729358,0.262993,0][-1.07084,-0.692757,-1.12344][0.398116,-0.56972,-0.718973][0.769323,0.25646,0][-1.1362,-0.101426,-0.790678][0.999439,-0.0109933,0.0316377][0.500616,0.718122,0][-1.13747,-0.401796,-0.773685][0.839381,-0.431053,0.331109][0.503945,0.644988,0][-1.13747,-0.401796,-1.12344][0.462744,-0.139506,-0.875446][0.41898,0.645808,0][-1.1362,-0.101426,-0.790678][0.999439,-0.0109933,0.0316377][0.500616,0.718122,0][-1.13747,-0.401796,-1.12344][0.462744,-0.139506,-0.875446][0.41898,0.645808,0][-1.10538,-0.229197,-1.20687][0.469879,-0.00330178,-0.882725][0.398667,0.688436,0][-1.10973,0.0170937,-1.07181][0.58225,0.459448,-0.67074][0.704944,0.444381,0][-1.30128,0.0170936,-0.949855][-0.668206,0.386242,-0.63586][0.653461,0.415814,0][-1.32604,0.186084,-0.813551][-0.802949,0.464309,-0.37375][0.610651,0.444156,0][-1.10973,0.0170937,-1.07181][0.58225,0.459448,-0.67074][0.704944,0.444381,0][-1.32604,0.186084,-0.813551][-0.802949,0.464309,-0.37375][0.610651,0.444156,0][-1.13449,0.302863,-0.813551][0.462253,0.768254,-0.44284][0.619755,0.500166,0][-1.33551,-0.401796,-1.00149][-0.894349,-0.204332,-0.397979][0.69208,0.319188,0][-1.33551,-0.401796,-0.773685][-0.82941,-0.519063,0.206522][0.636081,0.292495,0][-1.33147,-0.101426,-0.790678][-0.998504,0.0224562,-0.0498519][0.620407,0.376336,0][-1.33551,-0.401796,-1.00149][-0.894349,-0.204332,-0.397979][0.69208,0.319188,0][-1.33147,-0.101426,-0.790678][-0.998504,0.0224562,-0.0498519][0.620407,0.376336,0][-1.30065,-0.229197,-1.08491][-0.765495,0.077968,-0.6387][0.699682,0.365397,0][-1.13747,-0.401796,-0.773685][0.839381,-0.431053,0.331109][0.644677,0.236899,0][-1.33551,-0.401796,-0.773685][-0.82941,-0.519063,0.206522][0.636081,0.292495,0][-1.17173,-0.662637,-0.921372][-0.224545,-0.74888,0.623505][0.713714,0.252978,0][-1.13747,-0.401796,-0.773685][0.839381,-0.431053,0.331109][0.644677,0.236899,0][-1.17173,-0.662637,-0.921372][-0.224545,-0.74888,0.623505][0.713714,0.252978,0][-1.04034,-0.662637,-0.921372][0.760992,-0.490756,0.424322][0.723302,0.222013,0][-1.33551,-0.401796,-0.773685][-0.82941,-0.519063,0.206522][0.636081,0.292495,0][-1.33551,-0.401796,-1.00149][-0.894349,-0.204332,-0.397979][0.69208,0.319188,0][-1.20223,-0.692757,-1.00149][-0.547859,-0.827413,-0.123441][0.729358,0.262993,0][-1.33551,-0.401796,-0.773685][-0.82941,-0.519063,0.206522][0.636081,0.292495,0][-1.20223,-0.692757,-1.00149][-0.547859,-0.827413,-0.123441][0.729358,0.262993,0][-1.17173,-0.662637,-0.921372][-0.224545,-0.74888,0.623505][0.713714,0.252978,0][-1.33551,-0.401796,-1.00149][-0.894349,-0.204332,-0.397979][0.69208,0.319188,0][-1.13747,-0.401796,-1.12344][0.462744,-0.139506,-0.875446][0.751383,0.331794,0][-1.07084,-0.692757,-1.12344][0.398116,-0.56972,-0.718973][0.769323,0.25646,0][-1.33551,-0.401796,-1.00149][-0.894349,-0.204332,-0.397979][0.69208,0.319188,0][-1.07084,-0.692757,-1.12344][0.398116,-0.56972,-0.718973][0.769323,0.25646,0][-1.20223,-0.692757,-1.00149][-0.547859,-0.827413,-0.123441][0.729358,0.262993,0][-1.13747,-0.401796,-1.12344][0.462744,-0.139506,-0.875446][0.41898,0.645808,0][-1.13747,-0.401796,-0.773685][0.839381,-0.431053,0.331109][0.503945,0.644988,0][-1.04034,-0.662637,-0.921372][0.760992,-0.490756,0.424322][0.467415,0.577718,0][-1.13747,-0.401796,-1.12344][0.462744,-0.139506,-0.875446][0.41898,0.645808,0][-1.04034,-0.662637,-0.921372][0.760992,-0.490756,0.424322][0.467415,0.577718,0][-1.07084,-0.692757,-1.12344][0.398116,-0.56972,-0.718973][0.417426,0.573308,0][-0.0722781,0.695764,-0.152364][-0.430918,-0.496604,-0.753455][0.303591,0.685568,0][-0.0995272,0.859464,-0.150398][-0.511749,0.15958,-0.844184][0.303173,0.727274,0][-1.62252e-007,0.932063,-0.157455][-6.38248e-007,0.517489,-0.85569][0.330273,0.745205,0][-0.0722781,0.695764,-0.152364][-0.430918,-0.496604,-0.753455][0.303591,0.685568,0][-1.62252e-007,0.932063,-0.157455][-6.38248e-007,0.517489,-0.85569][0.330273,0.745205,0][-1.27357e-007,0.700964,-0.187241][-2.13337e-006,-0.443832,-0.89611][0.325457,0.684203,0][-0.157959,-0.401787,0.343961][0.341055,0.00195318,-0.940041][0.893393,0.645411,0][-0.196442,-0.0585659,0.307631][0.368951,-0.0411005,-0.92854][0.87947,0.729067,0][0,-0.0677259,0.386671][7.4563e-007,-0.0418482,-0.999124][0.931074,0.727867,0][-0.157959,-0.401787,0.343961][0.341055,0.00195318,-0.940041][0.893393,0.645411,0][0,-0.0677259,0.386671][7.4563e-007,-0.0418482,-0.999124][0.931074,0.727867,0][0,-0.401787,0.386671][0,0.0275144,-0.999621][0.933316,0.64667,0][-0.242203,-1.18772,0.500161][-0.157685,-0.818438,0.552534][0.156084,0.109275,0][-0.135249,-1.18772,0.329121][0.102514,-0.730325,-0.675364][0.149327,0.057348,0][1.57971e-007,-1.18868,0.343121][1.32781e-007,-0.723149,-0.690692][0.113476,0.047349,0][-0.242203,-1.18772,0.500161][-0.157685,-0.818438,0.552534][0.156084,0.109275,0][1.57971e-007,-1.18868,0.343121][1.32781e-007,-0.723149,-0.690692][0.113476,0.047349,0][1.57971e-007,-1.18868,0.524441][1.87609e-007,-0.812207,0.58337][0.095293,0.093528,0][-0.303396,-0.0585659,0.641011][-0.317688,0.334585,0.887202][0.145824,0.403725,0][-0.264912,-0.401787,0.771021][-0.310236,0.00458394,0.950648][0.122319,0.310741,0][0,-0.401787,0.839401][0,-0.0190677,0.999818][0.052181,0.30826,0][-0.303396,-0.0585659,0.641011][-0.317688,0.334585,0.887202][0.145824,0.403725,0][0,-0.401787,0.839401][0,-0.0190677,0.999818][0.052181,0.30826,0][0,-0.0677259,0.745721][0,0.303944,0.95269][0.058433,0.402258,0][-0.248241,0.403414,0.258731][-0.252384,-0.0688995,-0.965171][0.219963,0.585302,0][-0.355195,0.286624,0.466021][-0.380109,0.569701,0.728669][0.186841,0.510839,0][-0.264912,0.699364,0.247146][-0.821985,0.478143,0.309386][0.17282,0.657522,0][-0.248241,0.403414,0.258731][-0.252384,-0.0688995,-0.965171][0.219963,0.585302,0][-0.264912,0.699364,0.247146][-0.821985,0.478143,0.309386][0.17282,0.657522,0][-0.157959,0.568164,0.0867145][-0.387732,-0.772359,-0.503115][0.239626,0.649938,0][-0.355195,0.286624,0.466021][-0.380109,0.569701,0.728669][0.186841,0.510839,0][0,0.381924,0.619631][0,0.481604,0.876389][0.072224,0.530375,0][-1.33653e-007,0.742664,0.300068][-4.05525e-007,0.777601,0.628758][0.08931,0.659376,0][-0.355195,0.286624,0.466021][-0.380109,0.569701,0.728669][0.186841,0.510839,0][-1.33653e-007,0.742664,0.300068][-4.05525e-007,0.777601,0.628758][0.08931,0.659376,0][-0.264912,0.699364,0.247146][-0.821985,0.478143,0.309386][0.17282,0.657522,0][0,0.381924,0.386671][7.41815e-007,-0.375909,-0.926656][0.929301,0.837091,0][-0.248241,0.403414,0.258731][-0.252384,-0.0688995,-0.965171][0.861425,0.84141,0][-0.157959,0.568164,0.0867145][-0.387732,-0.772359,-0.503115][0.862633,0.903248,0][0,0.381924,0.386671][7.41815e-007,-0.375909,-0.926656][0.929301,0.837091,0][-0.157959,0.568164,0.0867145][-0.387732,-0.772359,-0.503115][0.862633,0.903248,0][0,0.595164,0.119769][1.64499e-007,-0.872735,-0.488194][0.90061,0.914931,0][-0.157959,0.568164,0.0867145][-0.387732,-0.772359,-0.503115][0.239626,0.649938,0][-0.264912,0.699364,0.247146][-0.821985,0.478143,0.309386][0.17282,0.657522,0][-0.264912,0.759764,0.0957085][-0.876378,-0.384082,-0.290589][0.194626,0.719564,0][-0.157959,0.568164,0.0867145][-0.387732,-0.772359,-0.503115][0.239626,0.649938,0][-0.264912,0.759764,0.0957085][-0.876378,-0.384082,-0.290589][0.194626,0.719564,0][-0.157959,0.601264,-0.0156555][-0.450497,-0.733812,-0.5085][0.259024,0.666554,0][-0.264912,0.699364,0.247146][-0.821985,0.478143,0.309386][0.17282,0.657522,0][-1.33653e-007,0.742664,0.300068][-4.05525e-007,0.777601,0.628758][0.08931,0.659376,0][-1.44132e-007,0.812063,0.132445][-2.13755e-007,-0.470732,0.882276][0.094109,0.710439,0][-0.264912,0.699364,0.247146][-0.821985,0.478143,0.309386][0.17282,0.657522,0][-1.44132e-007,0.812063,0.132445][-2.13755e-007,-0.470732,0.882276][0.094109,0.710439,0][-0.264912,0.759764,0.0957085][-0.876378,-0.384082,-0.290589][0.194626,0.719564,0][0,0.595164,0.119769][1.64499e-007,-0.872735,-0.488194][0.90061,0.914931,0][-0.157959,0.568164,0.0867145][-0.387732,-0.772359,-0.503115][0.862633,0.903248,0][-0.157959,0.601264,-0.0156555][-0.450497,-0.733812,-0.5085][0.851496,0.926887,0][0,0.595164,0.119769][1.64499e-007,-0.872735,-0.488194][0.90061,0.914931,0][-0.157959,0.601264,-0.0156555][-0.450497,-0.733812,-0.5085][0.851496,0.926887,0][0,0.633964,0.0072895][3.48833e-007,-0.927646,-0.37346][0.88841,0.941117,0][-0.140924,0.974064,0.0957085][-0.652019,0.739396,-0.167824][0.258656,0.794708,0][-1.88072e-007,1.10306,0.132445][-1.9024e-007,0.990299,-0.138954][0.293878,0.84119,0][-1.88389e-007,1.10516,0.0106575][-2.15558e-007,0.922703,-0.385512][0.318522,0.814349,0][-0.140924,0.974064,0.0957085][-0.652019,0.739396,-0.167824][0.258656,0.794708,0][-1.88389e-007,1.10516,0.0106575][-2.15558e-007,0.922703,-0.385512][0.318522,0.814349,0][-0.0677612,1.01796,-0.0160035][-0.604178,0.644246,-0.468952][0.299714,0.786149,0][-0.157959,0.601264,-0.0156555][-0.450497,-0.733812,-0.5085][0.259024,0.666554,0][-0.264912,0.759764,0.0957085][-0.876378,-0.384082,-0.290589][0.194626,0.719564,0][-0.0995272,0.859464,-0.150398][-0.511749,0.15958,-0.844184][0.303173,0.727274,0][-0.157959,0.601264,-0.0156555][-0.450497,-0.733812,-0.5085][0.259024,0.666554,0][-0.0995272,0.859464,-0.150398][-0.511749,0.15958,-0.844184][0.303173,0.727274,0][-0.0722781,0.695764,-0.152364][-0.430918,-0.496604,-0.753455][0.303591,0.685568,0][0,0.633964,0.0072895][3.48833e-007,-0.927646,-0.37346][0.88841,0.941117,0][-0.157959,0.601264,-0.0156555][-0.450497,-0.733812,-0.5085][0.851496,0.926887,0][-0.0722781,0.695764,-0.152364][-0.430918,-0.496604,-0.753455][0.855601,0.972094,0][0,0.633964,0.0072895][3.48833e-007,-0.927646,-0.37346][0.88841,0.941117,0][-0.0722781,0.695764,-0.152364][-0.430918,-0.496604,-0.753455][0.855601,0.972094,0][-1.27357e-007,0.700964,-0.187241][-2.13337e-006,-0.443832,-0.89611][0.868358,0.986881,0][-1.33551,-0.401796,-0.564054][-0.872781,-0.481631,-0.0792719][0.570163,0.278839,0][-1.13747,-0.401796,-0.564054][0.697253,-0.42412,-0.577893][0.591184,0.221918,0][-1.0019,-0.890427,-0.366384][0.575921,-0.513549,-0.636068][0.477981,0.136771,0][-1.33551,-0.401796,-0.564054][-0.872781,-0.481631,-0.0792719][0.570163,0.278839,0][-1.0019,-0.890427,-0.366384][0.575921,-0.513549,-0.636068][0.477981,0.136771,0][-1.16216,-0.890427,-0.366384][-0.633989,-0.675154,-0.377127][0.472981,0.176661,0][-1.13747,-0.401796,-0.564054][0.697253,-0.42412,-0.577893][0.554868,0.644389,0][-0.956257,-0.401796,-0.304179][0.819101,-0.0533612,-0.571162][0.6325,0.642737,0][-0.937157,-0.950046,-0.174053][0.549862,-0.706222,-0.445984][0.658433,0.506949,0][-1.13747,-0.401796,-0.564054][0.697253,-0.42412,-0.577893][0.554868,0.644389,0][-0.937157,-0.950046,-0.174053][0.549862,-0.706222,-0.445984][0.658433,0.506949,0][-1.0019,-0.890427,-0.366384][0.575921,-0.513549,-0.636068][0.609592,0.523565,0][-1.05817,-0.950047,-0.129004][-0.640684,-0.76567,0.0572215][0.413867,0.161938,0][-1.20563,-0.401796,-0.135835][-0.95052,-0.0734458,0.301856][0.444361,0.295469,0][-1.33551,-0.401796,-0.564054][-0.872781,-0.481631,-0.0792719][0.570163,0.278839,0][-1.05817,-0.950047,-0.129004][-0.640684,-0.76567,0.0572215][0.413867,0.161938,0][-1.33551,-0.401796,-0.564054][-0.872781,-0.481631,-0.0792719][0.570163,0.278839,0][-1.16216,-0.890427,-0.366384][-0.633989,-0.675154,-0.377127][0.472981,0.176661,0][-0.770583,-0.401796,-0.0379035][0.731045,-0.0531669,-0.680255][0.71314,0.641518,0][-0.513218,-0.435556,0.183613][0.526843,-0.018177,-0.849768][0.797833,0.634536,0][-0.483762,-1.14238,0.235885][0.120256,-0.734187,-0.668212][0.816643,0.461153,0][-0.770583,-0.401796,-0.0379035][0.731045,-0.0531669,-0.680255][0.71314,0.641518,0][-0.483762,-1.14238,0.235885][0.120256,-0.734187,-0.668212][0.816643,0.461153,0][-0.870821,-1.01115,0.0230166][0.227506,-0.815702,-0.531856][0.708003,0.488619,0][-0.687602,-0.435556,0.58085][-0.51109,-0.0332895,0.858882][0.233573,0.30074,0][-1.07254,-0.401796,0.302932][-0.799213,-0.0420078,0.599578][0.339221,0.303677,0][-0.951626,-1.01115,0.114224][-0.64451,-0.721582,0.252835][0.346173,0.157548,0][-0.687602,-0.435556,0.58085][-0.51109,-0.0332895,0.858882][0.233573,0.30074,0][-0.951626,-1.01115,0.114224][-0.64451,-0.721582,0.252835][0.346173,0.157548,0][-0.658146,-1.14238,0.394991][-0.452214,-0.767535,0.454306][0.252744,0.137562,0][-0.513218,-0.435556,0.183613][0.526843,-0.018177,-0.849768][0.797833,0.634536,0][-0.157959,-0.401787,0.343961][0.341055,0.00195318,-0.940041][0.893393,0.645411,0][-0.135249,-1.18772,0.329121][0.102514,-0.730325,-0.675364][0.905029,0.453492,0][-0.513218,-0.435556,0.183613][0.526843,-0.018177,-0.849768][0.797833,0.634536,0][-0.135249,-1.18772,0.329121][0.102514,-0.730325,-0.675364][0.905029,0.453492,0][-0.483762,-1.14238,0.235885][0.120256,-0.734187,-0.668212][0.816643,0.461153,0][-0.264912,-0.401787,0.771021][-0.310236,0.00458394,0.950648][0.122319,0.310741,0][-0.687602,-0.435556,0.58085][-0.51109,-0.0332895,0.858882][0.233573,0.30074,0][-0.658146,-1.14238,0.394991][-0.452214,-0.767535,0.454306][0.252744,0.137562,0][-0.264912,-0.401787,0.771021][-0.310236,0.00458394,0.950648][0.122319,0.310741,0][-0.658146,-1.14238,0.394991][-0.452214,-0.767535,0.454306][0.252744,0.137562,0][-0.242203,-1.18772,0.500161][-0.157685,-0.818438,0.552534][0.156084,0.109275,0][-0.157959,-0.401787,0.343961][0.341055,0.00195318,-0.940041][0.893393,0.645411,0][0,-0.401787,0.386671][0,0.0275144,-0.999621][0.933316,0.64667,0][1.57971e-007,-1.18868,0.343121][1.32781e-007,-0.723149,-0.690692][0.938221,0.454296,0][-0.157959,-0.401787,0.343961][0.341055,0.00195318,-0.940041][0.893393,0.645411,0][1.57971e-007,-1.18868,0.343121][1.32781e-007,-0.723149,-0.690692][0.938221,0.454296,0][-0.135249,-1.18772,0.329121][0.102514,-0.730325,-0.675364][0.905029,0.453492,0][0,-0.401787,0.839401][0,-0.0190677,0.999818][0.052181,0.30826,0][-0.264912,-0.401787,0.771021][-0.310236,0.00458394,0.950648][0.122319,0.310741,0][-0.242203,-1.18772,0.500161][-0.157685,-0.818438,0.552534][0.156084,0.109275,0][0,-0.401787,0.839401][0,-0.0190677,0.999818][0.052181,0.30826,0][-0.242203,-1.18772,0.500161][-0.157685,-0.818438,0.552534][0.156084,0.109275,0][1.57971e-007,-1.18868,0.524441][1.87609e-007,-0.812207,0.58337][0.095293,0.093528,0][-1.16827,-0.0657968,-0.157713][-0.915764,0.143666,0.375147][0.450929,0.378367,0][-1.20563,-0.401796,-0.135835][-0.95052,-0.0734458,0.301856][0.444361,0.295469,0][-1.07254,-0.401796,0.302932][-0.799213,-0.0420078,0.599578][0.339221,0.303677,0][-1.16827,-0.0657968,-0.157713][-0.915764,0.143666,0.375147][0.450929,0.378367,0][-1.07254,-0.401796,0.302932][-0.799213,-0.0420078,0.599578][0.339221,0.303677,0][-0.999751,-0.063816,0.258638][-0.745057,0.263153,0.612895][0.343747,0.380544,0][-0.956257,0.381924,-0.304179][0.409512,0.85881,-0.307807][0.462351,0.523789,0][-1.11799,0.269673,-0.187161][-0.716291,0.583646,0.382471][0.453458,0.464788,0][-0.901772,0.274324,0.199018][-0.56899,0.641219,0.514867][0.345424,0.464258,0][-0.956257,0.381924,-0.304179][0.409512,0.85881,-0.307807][0.462351,0.523789,0][-0.901772,0.274324,0.199018][-0.56899,0.641219,0.514867][0.345424,0.464258,0][-0.770583,0.381924,-0.0379035][0.344813,0.866207,-0.361648][0.374557,0.532427,0][-0.956257,-0.401796,-0.304179][0.819101,-0.0533612,-0.571162][0.6325,0.642737,0][-0.956257,-0.0677261,-0.304179][0.82027,0,-0.571977][0.633364,0.724846,0][-0.770583,-0.067726,-0.0379035][0.73541,0,-0.677623][0.713097,0.724564,0][-0.956257,-0.401796,-0.304179][0.819101,-0.0533612,-0.571162][0.6325,0.642737,0][-0.770583,-0.067726,-0.0379035][0.73541,0,-0.677623][0.713097,0.724564,0][-0.770583,-0.401796,-0.0379035][0.731045,-0.0531669,-0.680255][0.71314,0.641518,0][-0.937157,-0.950046,-0.174053][0.549862,-0.706222,-0.445984][0.658433,0.506949,0][-0.956257,-0.401796,-0.304179][0.819101,-0.0533612,-0.571162][0.6325,0.642737,0][-0.770583,-0.401796,-0.0379035][0.731045,-0.0531669,-0.680255][0.71314,0.641518,0][-0.937157,-0.950046,-0.174053][0.549862,-0.706222,-0.445984][0.658433,0.506949,0][-0.770583,-0.401796,-0.0379035][0.731045,-0.0531669,-0.680255][0.71314,0.641518,0][-0.870821,-1.01115,0.0230166][0.227506,-0.815702,-0.531856][0.708003,0.488619,0][-1.05817,-0.950047,-0.129004][-0.640684,-0.76567,0.0572215][0.413867,0.161938,0][-0.937157,-0.950046,-0.174053][0.549862,-0.706222,-0.445984][0.417806,0.12777,0][-0.870821,-1.01115,0.0230166][0.227506,-0.815702,-0.531856][0.357587,0.127652,0][-1.05817,-0.950047,-0.129004][-0.640684,-0.76567,0.0572215][0.413867,0.161938,0][-0.870821,-1.01115,0.0230166][0.227506,-0.815702,-0.531856][0.357587,0.127652,0][-0.951626,-1.01115,0.114224][-0.64451,-0.721582,0.252835][0.346173,0.157548,0][-1.07254,-0.401796,0.302932][-0.799213,-0.0420078,0.599578][0.339221,0.303677,0][-1.20563,-0.401796,-0.135835][-0.95052,-0.0734458,0.301856][0.444361,0.295469,0][-1.05817,-0.950047,-0.129004][-0.640684,-0.76567,0.0572215][0.413867,0.161938,0][-1.07254,-0.401796,0.302932][-0.799213,-0.0420078,0.599578][0.339221,0.303677,0][-1.05817,-0.950047,-0.129004][-0.640684,-0.76567,0.0572215][0.413867,0.161938,0][-0.951626,-1.01115,0.114224][-0.64451,-0.721582,0.252835][0.346173,0.157548,0][-0.355195,0.286624,0.466021][-0.380109,0.569701,0.728669][0.186841,0.510839,0][-0.303396,-0.0585659,0.641011][-0.317688,0.334585,0.887202][0.145824,0.403725,0][0,-0.0677259,0.745721][0,0.303944,0.95269][0.058433,0.402258,0][-0.355195,0.286624,0.466021][-0.380109,0.569701,0.728669][0.186841,0.510839,0][0,-0.0677259,0.745721][0,0.303944,0.95269][0.058433,0.402258,0][0,0.381924,0.619631][0,0.481604,0.876389][0.072224,0.530375,0][-0.646413,0.292824,0.374441][-0.370466,0.655873,0.657713][0.272393,0.483307,0][-0.670045,-0.0752963,0.492871][-0.470799,0.269966,0.839921][0.246517,0.389401,0][-0.303396,-0.0585659,0.641011][-0.317688,0.334585,0.887202][0.145824,0.403725,0][-0.646413,0.292824,0.374441][-0.370466,0.655873,0.657713][0.272393,0.483307,0][-0.303396,-0.0585659,0.641011][-0.317688,0.334585,0.887202][0.145824,0.403725,0][-0.355195,0.286624,0.466021][-0.380109,0.569701,0.728669][0.186841,0.510839,0][-0.901772,0.274324,0.199018][-0.56899,0.641219,0.514867][0.345424,0.464258,0][-0.999751,-0.063816,0.258638][-0.745057,0.263153,0.612895][0.343747,0.380544,0][-0.670045,-0.0752963,0.492871][-0.470799,0.269966,0.839921][0.246517,0.389401,0][-0.901772,0.274324,0.199018][-0.56899,0.641219,0.514867][0.345424,0.464258,0][-0.670045,-0.0752963,0.492871][-0.470799,0.269966,0.839921][0.246517,0.389401,0][-0.646413,0.292824,0.374441][-0.370466,0.655873,0.657713][0.272393,0.483307,0][-1.11799,0.269673,-0.187161][-0.716291,0.583646,0.382471][0.453458,0.464788,0][-1.16827,-0.0657968,-0.157713][-0.915764,0.143666,0.375147][0.450929,0.378367,0][-0.999751,-0.063816,0.258638][-0.745057,0.263153,0.612895][0.343747,0.380544,0][-1.11799,0.269673,-0.187161][-0.716291,0.583646,0.382471][0.453458,0.464788,0][-0.999751,-0.063816,0.258638][-0.745057,0.263153,0.612895][0.343747,0.380544,0][-0.901772,0.274324,0.199018][-0.56899,0.641219,0.514867][0.345424,0.464258,0][-1.32902,0.265134,-0.564054][-0.852316,0.512822,0.102816][0.555387,0.455266,0][-1.33274,-0.0677262,-0.564054][-0.984621,0.0232768,0.173144][0.561876,0.376182,0][-1.16827,-0.0657968,-0.157713][-0.915764,0.143666,0.375147][0.450929,0.378367,0][-1.32902,0.265134,-0.564054][-0.852316,0.512822,0.102816][0.555387,0.455266,0][-1.16827,-0.0657968,-0.157713][-0.915764,0.143666,0.375147][0.450929,0.378367,0][-1.11799,0.269673,-0.187161][-0.716291,0.583646,0.382471][0.453458,0.464788,0][-1.32604,0.186084,-0.813551][-0.802949,0.464309,-0.37375][0.610651,0.444156,0][-1.33147,-0.101426,-0.790678][-0.998504,0.0224562,-0.0498519][0.620407,0.376336,0][-1.33274,-0.0677262,-0.564054][-0.984621,0.0232768,0.173144][0.561876,0.376182,0][-1.32604,0.186084,-0.813551][-0.802949,0.464309,-0.37375][0.610651,0.444156,0][-1.33274,-0.0677262,-0.564054][-0.984621,0.0232768,0.173144][0.561876,0.376182,0][-1.32902,0.265134,-0.564054][-0.852316,0.512822,0.102816][0.555387,0.455266,0][-1.30065,-0.229197,-1.08491][-0.765495,0.077968,-0.6387][0.699682,0.365397,0][-1.33147,-0.101426,-0.790678][-0.998504,0.0224562,-0.0498519][0.620407,0.376336,0][-1.32604,0.186084,-0.813551][-0.802949,0.464309,-0.37375][0.610651,0.444156,0][-1.30065,-0.229197,-1.08491][-0.765495,0.077968,-0.6387][0.699682,0.365397,0][-1.32604,0.186084,-0.813551][-0.802949,0.464309,-0.37375][0.610651,0.444156,0][-1.30128,0.0170936,-0.949855][-0.668206,0.386242,-0.63586][0.653461,0.415814,0][-1.10538,-0.229197,-1.20687][0.469879,-0.00330178,-0.882725][0.754416,0.386328,0][-1.30065,-0.229197,-1.08491][-0.765495,0.077968,-0.6387][0.699682,0.365397,0][-1.30128,0.0170936,-0.949855][-0.668206,0.386242,-0.63586][0.653461,0.415814,0][-1.10538,-0.229197,-1.20687][0.469879,-0.00330178,-0.882725][0.754416,0.386328,0][-1.30128,0.0170936,-0.949855][-0.668206,0.386242,-0.63586][0.653461,0.415814,0][-1.10973,0.0170937,-1.07181][0.58225,0.459448,-0.67074][0.704944,0.444381,0][-1.13449,0.302863,-0.813551][0.462253,0.768254,-0.44284][0.496118,0.816564,0][-1.1362,-0.101426,-0.790678][0.999439,-0.0109933,0.0316377][0.500616,0.718122,0][-1.10538,-0.229197,-1.20687][0.469879,-0.00330178,-0.882725][0.398667,0.688436,0][-1.13449,0.302863,-0.813551][0.462253,0.768254,-0.44284][0.496118,0.816564,0][-1.10538,-0.229197,-1.20687][0.469879,-0.00330178,-0.882725][0.398667,0.688436,0][-1.10973,0.0170937,-1.07181][0.58225,0.459448,-0.67074][0.432276,0.747852,0][-1.13747,-0.0677261,-0.564054][0.955053,-0.000729368,-0.296433][0.555962,0.725684,0][-1.1362,-0.101426,-0.790678][0.999439,-0.0109933,0.0316377][0.500616,0.718122,0][-1.13449,0.302863,-0.813551][0.462253,0.768254,-0.44284][0.496118,0.816564,0][-1.13747,-0.0677261,-0.564054][0.955053,-0.000729368,-0.296433][0.555962,0.725684,0][-1.13449,0.302863,-0.813551][0.462253,0.768254,-0.44284][0.496118,0.816564,0][-1.13747,0.381924,-0.564054][0.274402,0.935589,-0.222209][0.556949,0.835205,0][-0.956257,-0.0677261,-0.304179][0.82027,0,-0.571977][0.633364,0.724846,0][-1.13747,-0.0677261,-0.564054][0.955053,-0.000729368,-0.296433][0.555962,0.725684,0][-1.13747,0.381924,-0.564054][0.274402,0.935589,-0.222209][0.556949,0.835205,0][-0.956257,-0.0677261,-0.304179][0.82027,0,-0.571977][0.633364,0.724846,0][-1.13747,0.381924,-0.564054][0.274402,0.935589,-0.222209][0.556949,0.835205,0][-0.956257,0.381924,-0.304179][0.409512,0.85881,-0.307807][0.633949,0.834601,0][-0.770583,-0.067726,-0.0379035][0.73541,0,-0.677623][0.713097,0.724564,0][-0.956257,-0.0677261,-0.304179][0.82027,0,-0.571977][0.633364,0.724846,0][-0.956257,0.381924,-0.304179][0.409512,0.85881,-0.307807][0.633949,0.834601,0][-0.770583,-0.067726,-0.0379035][0.73541,0,-0.677623][0.713097,0.724564,0][-0.956257,0.381924,-0.304179][0.409512,0.85881,-0.307807][0.633949,0.834601,0][-0.770583,0.381924,-0.0379035][0.344813,0.866207,-0.361648][0.712813,0.83439,0][-0.495661,-0.0752963,0.189304][0.508429,-0.00616007,-0.861082][0.800738,0.723376,0][-0.770583,-0.067726,-0.0379035][0.73541,0,-0.677623][0.713097,0.724564,0][-0.770583,0.381924,-0.0379035][0.344813,0.866207,-0.361648][0.712813,0.83439,0][-0.495661,-0.0752963,0.189304][0.508429,-0.00616007,-0.861082][0.800738,0.723376,0][-0.770583,0.381924,-0.0379035][0.344813,0.866207,-0.361648][0.712813,0.83439,0][-0.472029,0.409614,0.196964][0.211595,0.89304,-0.397123][0.804947,0.841955,0][-0.196442,-0.0585659,0.307631][0.368951,-0.0411005,-0.92854][0.87947,0.729067,0][-0.495661,-0.0752963,0.189304][0.508429,-0.00616007,-0.861082][0.800738,0.723376,0][-0.472029,0.409614,0.196964][0.211595,0.89304,-0.397123][0.804947,0.841955,0][-0.196442,-0.0585659,0.307631][0.368951,-0.0411005,-0.92854][0.87947,0.729067,0][-0.472029,0.409614,0.196964][0.211595,0.89304,-0.397123][0.804947,0.841955,0][-0.248241,0.403414,0.258731][-0.252384,-0.0688995,-0.965171][0.861425,0.84141,0][0,-0.0677259,0.386671][7.4563e-007,-0.0418482,-0.999124][0.931074,0.727867,0][-0.196442,-0.0585659,0.307631][0.368951,-0.0411005,-0.92854][0.87947,0.729067,0][-0.248241,0.403414,0.258731][-0.252384,-0.0688995,-0.965171][0.861425,0.84141,0][0,-0.0677259,0.386671][7.4563e-007,-0.0418482,-0.999124][0.931074,0.727867,0][-0.248241,0.403414,0.258731][-0.252384,-0.0688995,-0.965171][0.861425,0.84141,0][0,0.381924,0.386671][7.41815e-007,-0.375909,-0.926656][0.929301,0.837091,0][-0.246709,0.718164,0.537121][-0.598871,-0.749343,0.282558][0.109981,0.831598,0][0,0.644364,0.671981][0,-0.814559,0.580081][0.033086,0.862322,0][-1.66057e-007,0.957264,0.7809][0,0.00386846,0.999992][0.100233,0.955696,0][-0.246709,0.718164,0.537121][-0.598871,-0.749343,0.282558][0.109981,0.831598,0][-1.66057e-007,0.957264,0.7809][0,0.00386846,0.999992][0.100233,0.955696,0][-0.300327,0.827463,0.59484][-0.865603,-0.13197,0.483028][0.130851,0.858247,0][-1.62252e-007,0.932063,-0.157455][-6.38248e-007,0.517489,-0.85569][0.330273,0.745205,0][-0.0995272,0.859464,-0.150398][-0.511749,0.15958,-0.844184][0.303173,0.727274,0][-0.0997862,0.935464,-0.0892545][-0.551739,0.626452,-0.550584][0.297238,0.752352,0][-1.62252e-007,0.932063,-0.157455][-6.38248e-007,0.517489,-0.85569][0.330273,0.745205,0][-0.0997862,0.935464,-0.0892545][-0.551739,0.626452,-0.550584][0.297238,0.752352,0][-1.75706e-007,1.02116,-0.0446115][0,0.674694,-0.738098][0.321298,0.784821,0][-0.0995272,0.859464,-0.150398][-0.511749,0.15958,-0.844184][0.303173,0.727274,0][-0.264912,0.759764,0.0957085][-0.876378,-0.384082,-0.290589][0.194626,0.719564,0][-0.315658,0.859964,0.0957085][-0.934959,0.231847,-0.268512][0.212372,0.756205,0][-0.0995272,0.859464,-0.150398][-0.511749,0.15958,-0.844184][0.303173,0.727274,0][-0.315658,0.859964,0.0957085][-0.934959,0.231847,-0.268512][0.212372,0.756205,0][-0.0997862,0.935464,-0.0892545][-0.551739,0.626452,-0.550584][0.297238,0.752352,0][-0.264912,0.759764,0.0957085][-0.876378,-0.384082,-0.290589][0.194626,0.719564,0][-1.44132e-007,0.812063,0.132445][-2.13755e-007,-0.470732,0.882276][0.094109,0.710439,0][0,0.644364,0.671981][0,-0.814559,0.580081][0.033086,0.862322,0][-0.264912,0.759764,0.0957085][-0.876378,-0.384082,-0.290589][0.194626,0.719564,0][0,0.644364,0.671981][0,-0.814559,0.580081][0.033086,0.862322,0][-0.246709,0.718164,0.537121][-0.598871,-0.749343,0.282558][0.109981,0.831598,0][-1.88072e-007,1.10306,0.132445][-1.9024e-007,0.990299,-0.138954][0.293878,0.84119,0][-0.140924,0.974064,0.0957085][-0.652019,0.739396,-0.167824][0.258656,0.794708,0][-0.202337,1.07336,0.629821][-0.743676,0.519335,0.420994][0.165763,0.908312,0][-1.88072e-007,1.10306,0.132445][-1.9024e-007,0.990299,-0.138954][0.293878,0.84119,0][-0.202337,1.07336,0.629821][-0.743676,0.519335,0.420994][0.165763,0.908312,0][-2.02311e-007,1.19736,0.71208][-1.436e-007,0.828488,0.560007][0.182007,0.979187,0][-0.315658,0.859964,0.0957085][-0.934959,0.231847,-0.268512][0.212372,0.756205,0][-0.264912,0.759764,0.0957085][-0.876378,-0.384082,-0.290589][0.194626,0.719564,0][-0.246709,0.718164,0.537121][-0.598871,-0.749343,0.282558][0.109981,0.831598,0][-0.315658,0.859964,0.0957085][-0.934959,0.231847,-0.268512][0.212372,0.756205,0][-0.246709,0.718164,0.537121][-0.598871,-0.749343,0.282558][0.109981,0.831598,0][-0.300327,0.827463,0.59484][-0.865603,-0.13197,0.483028][0.130851,0.858247,0][-0.140924,0.974064,0.0957085][-0.652019,0.739396,-0.167824][0.258656,0.794708,0][-0.315658,0.859964,0.0957085][-0.934959,0.231847,-0.268512][0.212372,0.756205,0][-0.300327,0.827463,0.59484][-0.865603,-0.13197,0.483028][0.130851,0.858247,0][-0.140924,0.974064,0.0957085][-0.652019,0.739396,-0.167824][0.258656,0.794708,0][-0.300327,0.827463,0.59484][-0.865603,-0.13197,0.483028][0.130851,0.858247,0][-0.202337,1.07336,0.629821][-0.743676,0.519335,0.420994][0.165763,0.908312,0][-0.0997862,0.935464,-0.0892545][-0.551739,0.626452,-0.550584][0.297238,0.752352,0][-0.315658,0.859964,0.0957085][-0.934959,0.231847,-0.268512][0.212372,0.756205,0][-0.140924,0.974064,0.0957085][-0.652019,0.739396,-0.167824][0.258656,0.794708,0][-0.0997862,0.935464,-0.0892545][-0.551739,0.626452,-0.550584][0.297238,0.752352,0][-0.140924,0.974064,0.0957085][-0.652019,0.739396,-0.167824][0.258656,0.794708,0][-0.0677612,1.01796,-0.0160035][-0.604178,0.644246,-0.468952][0.299714,0.786149,0][-1.75706e-007,1.02116,-0.0446115][0,0.674694,-0.738098][0.321298,0.784821,0][-0.0997862,0.935464,-0.0892545][-0.551739,0.626452,-0.550584][0.297238,0.752352,0][-0.0677612,1.01796,-0.0160035][-0.604178,0.644246,-0.468952][0.299714,0.786149,0][-1.75706e-007,1.02116,-0.0446115][0,0.674694,-0.738098][0.321298,0.784821,0][-0.0677612,1.01796,-0.0160035][-0.604178,0.644246,-0.468952][0.299714,0.786149,0][-1.88389e-007,1.10516,0.0106575][-2.15558e-007,0.922703,-0.385512][0.318522,0.814349,0][-0.300327,0.827463,0.59484][-0.865603,-0.13197,0.483028][0.130851,0.858247,0][-1.66057e-007,0.957264,0.7809][0,0.00386846,0.999992][0.100233,0.955696,0][-2.02311e-007,1.19736,0.71208][-1.436e-007,0.828488,0.560007][0.182007,0.979187,0][-0.300327,0.827463,0.59484][-0.865603,-0.13197,0.483028][0.130851,0.858247,0][-2.02311e-007,1.19736,0.71208][-1.436e-007,0.828488,0.560007][0.182007,0.979187,0][-0.202337,1.07336,0.629821][-0.743676,0.519335,0.420994][0.165763,0.908312,0][1.13747,-0.401796,-1.12344][-0.462745,-0.139504,-0.875446][0.756782,0.330406,0][1.10538,-0.229196,-1.20687][-0.469879,-0.0033021,-0.882725][0.759133,0.386485,0][1.30065,-0.229196,-1.08491][0.765495,0.0779695,-0.6387][0.702858,0.364507,0][1.13747,-0.401796,-1.12344][-0.462745,-0.139504,-0.875446][0.756782,0.330406,0][1.30065,-0.229196,-1.08491][0.765495,0.0779695,-0.6387][0.702858,0.364507,0][1.33551,-0.401796,-1.00149][0.894349,-0.204331,-0.397982][0.695245,0.31707,0][1.13449,0.302863,-0.813551][-0.462254,0.768254,-0.44284][0.619597,0.501231,0][1.13747,0.381924,-0.564054][-0.274402,0.935589,-0.222209][0.545978,0.508836,0][1.32902,0.265134,-0.564054][0.852316,0.512822,0.102816][0.555351,0.454671,0][1.13449,0.302863,-0.813551][-0.462254,0.768254,-0.44284][0.619597,0.501231,0][1.32902,0.265134,-0.564054][0.852316,0.512822,0.102816][0.555351,0.454671,0][1.32604,0.186084,-0.813551][0.802949,0.464309,-0.37375][0.611193,0.443944,0][1.13747,-0.401796,-0.564054][-0.697252,-0.424122,-0.577893][0.58829,0.218379,0][1.13747,-0.401796,-0.773686][-0.839381,-0.431051,0.33111][0.644865,0.230725,0][1.33551,-0.401796,-0.773685][0.82941,-0.519064,0.206522][0.637464,0.290362,0][1.13747,-0.401796,-0.564054][-0.697252,-0.424122,-0.577893][0.58829,0.218379,0][1.33551,-0.401796,-0.773685][0.82941,-0.519064,0.206522][0.637464,0.290362,0][1.33551,-0.401796,-0.564053][0.872783,-0.481628,-0.0792738][0.570415,0.274921,0][1.33147,-0.101426,-0.790678][0.998504,0.0224566,-0.0498519][0.621803,0.37524,0][1.33274,-0.0677257,-0.564054][0.984621,0.0232772,0.173144][0.561983,0.374797,0][1.33551,-0.401796,-0.564053][0.872783,-0.481628,-0.0792738][0.570415,0.274921,0][1.33147,-0.101426,-0.790678][0.998504,0.0224566,-0.0498519][0.621803,0.37524,0][1.33551,-0.401796,-0.564053][0.872783,-0.481628,-0.0792738][0.570415,0.274921,0][1.33551,-0.401796,-0.773685][0.82941,-0.519064,0.206522][0.637464,0.290362,0][1.13747,-0.401796,-0.564054][-0.697252,-0.424122,-0.577893][0.555035,0.642044,0][1.13747,-0.0677258,-0.564054][-0.955053,-0.000729692,-0.296433][0.556145,0.723334,0][1.1362,-0.101426,-0.790679][-0.999439,-0.0109938,0.0316379][0.500803,0.715781,0][1.13747,-0.401796,-0.564054][-0.697252,-0.424122,-0.577893][0.555035,0.642044,0][1.1362,-0.101426,-0.790679][-0.999439,-0.0109938,0.0316379][0.500803,0.715781,0][1.13747,-0.401796,-0.773686][-0.839381,-0.431051,0.33111][0.504124,0.642652,0][1.13747,0.381924,-0.564054][-0.274402,0.935589,-0.222209][0.545978,0.508836,0][0.956257,0.381924,-0.304179][-0.409513,0.85881,-0.307807][0.461448,0.52296,0][1.11799,0.269674,-0.187161][0.716291,0.583646,0.382471][0.452822,0.463758,0][1.13747,0.381924,-0.564054][-0.274402,0.935589,-0.222209][0.545978,0.508836,0][1.11799,0.269674,-0.187161][0.716291,0.583646,0.382471][0.452822,0.463758,0][1.32902,0.265134,-0.564054][0.852316,0.512822,0.102816][0.555351,0.454671,0][1.33274,-0.0677257,-0.564054][0.984621,0.0232772,0.173144][0.561983,0.374797,0][1.16827,-0.0657965,-0.157713][0.915764,0.143667,0.375147][0.450347,0.377346,0][1.20563,-0.401796,-0.135835][0.950521,-0.0734371,0.301856][0.443412,0.294094,0][1.33274,-0.0677257,-0.564054][0.984621,0.0232772,0.173144][0.561983,0.374797,0][1.20563,-0.401796,-0.135835][0.950521,-0.0734371,0.301856][0.443412,0.294094,0][1.33551,-0.401796,-0.564053][0.872783,-0.481628,-0.0792738][0.570415,0.274921,0][1.16216,-0.890426,-0.366384][0.633976,-0.675156,-0.377146][0.470543,0.175848,0][1.05818,-0.950046,-0.129004][0.640688,-0.765665,0.0572275][0.411772,0.161823,0][0.937158,-0.950046,-0.174053][-0.549863,-0.706221,-0.445985][0.415414,0.12799,0][1.16216,-0.890426,-0.366384][0.633976,-0.675156,-0.377146][0.470543,0.175848,0][0.937158,-0.950046,-0.174053][-0.549863,-0.706221,-0.445985][0.415414,0.12799,0][1.0019,-0.890426,-0.366384][-0.575923,-0.513548,-0.636067][0.474937,0.136349,0][1.13747,-0.401796,-0.564054][-0.697252,-0.424122,-0.577893][0.555035,0.642044,0][0.956257,-0.401796,-0.304179][-0.819101,-0.0533622,-0.571162][0.632665,0.640371,0][0.956257,-0.0677258,-0.304179][-0.82027,-1.76383e-007,-0.571977][0.633558,0.722481,0][1.13747,-0.401796,-0.564054][-0.697252,-0.424122,-0.577893][0.555035,0.642044,0][0.956257,-0.0677258,-0.304179][-0.82027,-1.76383e-007,-0.571977][0.633558,0.722481,0][1.13747,-0.0677258,-0.564054][-0.955053,-0.000729692,-0.296433][0.556145,0.723334,0][0.770583,0.381924,-0.0379035][-0.344813,0.866207,-0.361648][0.373757,0.531173,0][0.47203,0.409614,0.196964][-0.211595,0.893041,-0.397122][0.274215,0.552395,0][0.646413,0.292824,0.374441][0.370466,0.655873,0.657713][0.272237,0.482128,0][0.770583,0.381924,-0.0379035][-0.344813,0.866207,-0.361648][0.373757,0.531173,0][0.646413,0.292824,0.374441][0.370466,0.655873,0.657713][0.272237,0.482128,0][0.901772,0.274324,0.199018][0.56899,0.641219,0.514868][0.344892,0.463103,0][0.999751,-0.0638157,0.258638][0.745057,0.263153,0.612895][0.343247,0.379669,0][0.670045,-0.0752961,0.492871][0.470799,0.269966,0.839921][0.246279,0.388692,0][0.687602,-0.435556,0.58085][0.51109,-0.0332893,0.858882][0.233227,0.300402,0][0.999751,-0.0638157,0.258638][0.745057,0.263153,0.612895][0.343247,0.379669,0][0.687602,-0.435556,0.58085][0.51109,-0.0332893,0.858882][0.233227,0.300402,0][1.07254,-0.401796,0.302932][0.799212,-0.0420052,0.59958][0.33852,0.303006,0][0.951626,-1.01115,0.114224][0.644502,-0.721587,0.252843][0.344724,0.157874,0][0.658146,-1.14238,0.394991][0.452214,-0.767534,0.454306][0.251959,0.138354,0][0.483763,-1.14238,0.235885][-0.120255,-0.734188,-0.668211][0.245051,0.081884,0][0.951626,-1.01115,0.114224][0.644502,-0.721587,0.252843][0.344724,0.157874,0][0.483763,-1.14238,0.235885][-0.120255,-0.734188,-0.668211][0.245051,0.081884,0][0.870822,-1.01115,0.0230166][-0.227507,-0.815703,-0.531854][0.355889,0.128218,0][0.770583,-0.401796,-0.0379035][-0.731045,-0.0531678,-0.680255][0.713312,0.639138,0][0.513218,-0.435556,0.183613][-0.526843,-0.0181774,-0.849768][0.798002,0.632141,0][0.495661,-0.0752961,0.189304][-0.508429,-0.00615995,-0.861082][0.800896,0.721017,0][0.770583,-0.401796,-0.0379035][-0.731045,-0.0531678,-0.680255][0.713312,0.639138,0][0.495661,-0.0752961,0.189304][-0.508429,-0.00615995,-0.861082][0.800896,0.721017,0][0.770583,-0.0677258,-0.0379035][-0.73541,-1.49899e-007,-0.677623][0.713294,0.722193,0][0.47203,0.409614,0.196964][-0.211595,0.893041,-0.397122][0.274215,0.552395,0][0.248242,0.403414,0.258731][0.252386,-0.0688983,-0.965171][0.219704,0.584012,0][0.355195,0.286624,0.466021][0.380109,0.5697,0.728669][0.186809,0.509686,0][0.47203,0.409614,0.196964][-0.211595,0.893041,-0.397122][0.274215,0.552395,0][0.355195,0.286624,0.466021][0.380109,0.5697,0.728669][0.186809,0.509686,0][0.646413,0.292824,0.374441][0.370466,0.655873,0.657713][0.272237,0.482128,0][0.513218,-0.435556,0.183613][-0.526843,-0.0181774,-0.849768][0.798002,0.632141,0][0.157959,-0.401787,0.343961][-0.341055,0.00195345,-0.940041][0.893565,0.643031,0][0.196443,-0.0585658,0.307631][-0.368951,-0.0411002,-0.92854][0.879638,0.7267,0][0.513218,-0.435556,0.183613][-0.526843,-0.0181774,-0.849768][0.798002,0.632141,0][0.196443,-0.0585658,0.307631][-0.368951,-0.0411002,-0.92854][0.879638,0.7267,0][0.495661,-0.0752961,0.189304][-0.508429,-0.00615995,-0.861082][0.800896,0.721017,0][0.658146,-1.14238,0.394991][0.452214,-0.767534,0.454306][0.251959,0.138354,0][0.242203,-1.18772,0.500161][0.157686,-0.818438,0.552534][0.155948,0.110433,0][0.135249,-1.18772,0.329121][-0.102513,-0.730326,-0.675363][0.14918,0.058897,0][0.658146,-1.14238,0.394991][0.452214,-0.767534,0.454306][0.251959,0.138354,0][0.135249,-1.18772,0.329121][-0.102513,-0.730326,-0.675363][0.14918,0.058897,0][0.483763,-1.14238,0.235885][-0.120255,-0.734188,-0.668211][0.245051,0.081884,0][0.670045,-0.0752961,0.492871][0.470799,0.269966,0.839921][0.246279,0.388692,0][0.303396,-0.0585658,0.641011][0.317688,0.334585,0.887202][0.14604,0.403013,0][0.264912,-0.401787,0.771021][0.310236,0.004584,0.950648][0.122614,0.310529,0][0.670045,-0.0752961,0.492871][0.470799,0.269966,0.839921][0.246279,0.388692,0][0.264912,-0.401787,0.771021][0.310236,0.004584,0.950648][0.122614,0.310529,0][0.687602,-0.435556,0.58085][0.51109,-0.0332893,0.858882][0.233227,0.300402,0][1.04034,-0.662636,-0.921372][-0.760992,-0.490755,0.424323][0.728349,0.215238,0][1.07084,-0.692756,-1.12344][-0.398117,-0.56972,-0.718973][0.775833,0.251426,0][1.20223,-0.692756,-1.00149][0.547859,-0.827414,-0.123441][0.733964,0.258287,0][1.04034,-0.662636,-0.921372][-0.760992,-0.490755,0.424323][0.728349,0.215238,0][1.20223,-0.692756,-1.00149][0.547859,-0.827414,-0.123441][0.733964,0.258287,0][1.17173,-0.662636,-0.921372][0.224544,-0.748879,0.623506][0.717645,0.248039,0][1.1362,-0.101426,-0.790679][-0.999439,-0.0109938,0.0316379][0.500803,0.715781,0][1.10538,-0.229196,-1.20687][-0.469879,-0.0033021,-0.882725][0.398859,0.686112,0][1.13747,-0.401796,-1.12344][-0.462745,-0.139504,-0.875446][0.419168,0.643482,0][1.1362,-0.101426,-0.790679][-0.999439,-0.0109938,0.0316379][0.500803,0.715781,0][1.13747,-0.401796,-1.12344][-0.462745,-0.139504,-0.875446][0.419168,0.643482,0][1.13747,-0.401796,-0.773686][-0.839381,-0.431051,0.33111][0.504124,0.642652,0][1.10973,0.017094,-1.07181][-0.58225,0.459448,-0.67074][0.707493,0.445584,0][1.13449,0.302863,-0.813551][-0.462254,0.768254,-0.44284][0.619597,0.501231,0][1.32604,0.186084,-0.813551][0.802949,0.464309,-0.37375][0.611193,0.443944,0][1.10973,0.017094,-1.07181][-0.58225,0.459448,-0.67074][0.707493,0.445584,0][1.32604,0.186084,-0.813551][0.802949,0.464309,-0.37375][0.611193,0.443944,0][1.30128,0.017094,-0.949855][0.668206,0.386242,-0.63586][0.655125,0.415706,0][1.33551,-0.401796,-1.00149][0.894349,-0.204331,-0.397982][0.695245,0.31707,0][1.30065,-0.229196,-1.08491][0.765495,0.0779695,-0.6387][0.702858,0.364507,0][1.33147,-0.101426,-0.790678][0.998504,0.0224566,-0.0498519][0.621803,0.37524,0][1.33551,-0.401796,-1.00149][0.894349,-0.204331,-0.397982][0.695245,0.31707,0][1.33147,-0.101426,-0.790678][0.998504,0.0224566,-0.0498519][0.621803,0.37524,0][1.33551,-0.401796,-0.773685][0.82941,-0.519064,0.206522][0.637464,0.290362,0][1.13747,-0.401796,-0.773686][-0.839381,-0.431051,0.33111][0.644865,0.230725,0][1.04034,-0.662636,-0.921372][-0.760992,-0.490755,0.424323][0.728349,0.215238,0][1.17173,-0.662636,-0.921372][0.224544,-0.748879,0.623506][0.717645,0.248039,0][1.13747,-0.401796,-0.773686][-0.839381,-0.431051,0.33111][0.644865,0.230725,0][1.17173,-0.662636,-0.921372][0.224544,-0.748879,0.623506][0.717645,0.248039,0][1.33551,-0.401796,-0.773685][0.82941,-0.519064,0.206522][0.637464,0.290362,0][1.33551,-0.401796,-0.773685][0.82941,-0.519064,0.206522][0.637464,0.290362,0][1.17173,-0.662636,-0.921372][0.224544,-0.748879,0.623506][0.717645,0.248039,0][1.20223,-0.692756,-1.00149][0.547859,-0.827414,-0.123441][0.733964,0.258287,0][1.33551,-0.401796,-0.773685][0.82941,-0.519064,0.206522][0.637464,0.290362,0][1.20223,-0.692756,-1.00149][0.547859,-0.827414,-0.123441][0.733964,0.258287,0][1.33551,-0.401796,-1.00149][0.894349,-0.204331,-0.397982][0.695245,0.31707,0][1.33551,-0.401796,-1.00149][0.894349,-0.204331,-0.397982][0.695245,0.31707,0][1.20223,-0.692756,-1.00149][0.547859,-0.827414,-0.123441][0.733964,0.258287,0][1.07084,-0.692756,-1.12344][-0.398117,-0.56972,-0.718973][0.775833,0.251426,0][1.33551,-0.401796,-1.00149][0.894349,-0.204331,-0.397982][0.695245,0.31707,0][1.07084,-0.692756,-1.12344][-0.398117,-0.56972,-0.718973][0.775833,0.251426,0][1.13747,-0.401796,-1.12344][-0.462745,-0.139504,-0.875446][0.756782,0.330406,0][1.13747,-0.401796,-1.12344][-0.462745,-0.139504,-0.875446][0.419168,0.643482,0][1.07084,-0.692756,-1.12344][-0.398117,-0.56972,-0.718973][0.417606,0.570989,0][1.04034,-0.662636,-0.921372][-0.760992,-0.490755,0.424323][0.46759,0.575394,0][1.13747,-0.401796,-1.12344][-0.462745,-0.139504,-0.875446][0.419168,0.643482,0][1.04034,-0.662636,-0.921372][-0.760992,-0.490755,0.424323][0.46759,0.575394,0][1.13747,-0.401796,-0.773686][-0.839381,-0.431051,0.33111][0.504124,0.642652,0][0.0722789,0.695764,-0.152364][0.430918,-0.496603,-0.753455][0.303381,0.685129,0][-1.27357e-007,0.700964,-0.187241][-2.13337e-006,-0.443832,-0.89611][0.325329,0.683991,0][-1.62252e-007,0.932063,-0.157455][-6.38248e-007,0.517489,-0.85569][0.329513,0.745231,0][0.0722789,0.695764,-0.152364][0.430918,-0.496603,-0.753455][0.303381,0.685129,0][-1.62252e-007,0.932063,-0.157455][-6.38248e-007,0.517489,-0.85569][0.329513,0.745231,0][0.0995279,0.859464,-0.150398][0.51175,0.159583,-0.844183][0.302522,0.72696,0][0.157959,-0.401787,0.343961][-0.341055,0.00195345,-0.940041][0.893565,0.643031,0][0,-0.401787,0.386671][0,0.0275144,-0.999621][0.933492,0.644293,0][0,-0.0677259,0.386671][7.4563e-007,-0.0418482,-0.999124][0.931246,0.725497,0][0.157959,-0.401787,0.343961][-0.341055,0.00195345,-0.940041][0.893565,0.643031,0][0,-0.0677259,0.386671][7.4563e-007,-0.0418482,-0.999124][0.931246,0.725497,0][0.196443,-0.0585658,0.307631][-0.368951,-0.0411002,-0.92854][0.879638,0.7267,0][0.242203,-1.18772,0.500161][0.157686,-0.818438,0.552534][0.155948,0.110433,0][1.57971e-007,-1.18868,0.524441][1.87609e-007,-0.812207,0.58337][0.09558,0.094862,0][1.57971e-007,-1.18868,0.343121][1.32781e-007,-0.723149,-0.690692][0.113587,0.049007,0][0.242203,-1.18772,0.500161][0.157686,-0.818438,0.552534][0.155948,0.110433,0][1.57971e-007,-1.18868,0.343121][1.32781e-007,-0.723149,-0.690692][0.113587,0.049007,0][0.135249,-1.18772,0.329121][-0.102513,-0.730326,-0.675363][0.14918,0.058897,0][0.303396,-0.0585658,0.641011][0.317688,0.334585,0.887202][0.14604,0.403013,0][0,-0.0677259,0.745721][0,0.303944,0.95269][0.059127,0.401533,0][0,-0.401787,0.839401][0,-0.0190677,0.999818][0.052915,0.308098,0][0.303396,-0.0585658,0.641011][0.317688,0.334585,0.887202][0.14604,0.403013,0][0,-0.401787,0.839401][0,-0.0190677,0.999818][0.052915,0.308098,0][0.264912,-0.401787,0.771021][0.310236,0.004584,0.950648][0.122614,0.310529,0][0.248242,0.403414,0.258731][0.252386,-0.0688983,-0.965171][0.219704,0.584012,0][0.157959,0.568164,0.0867145][0.38773,-0.77236,-0.503116][0.239035,0.64813,0][0.264913,0.699364,0.247146][0.821986,0.478143,0.309386][0.172689,0.655643,0][0.248242,0.403414,0.258731][0.252386,-0.0688983,-0.965171][0.219704,0.584012,0][0.264913,0.699364,0.247146][0.821986,0.478143,0.309386][0.172689,0.655643,0][0.355195,0.286624,0.466021][0.380109,0.5697,0.728669][0.186809,0.509686,0][0.355195,0.286624,0.466021][0.380109,0.5697,0.728669][0.186809,0.509686,0][0.264913,0.699364,0.247146][0.821986,0.478143,0.309386][0.172689,0.655643,0][-1.33653e-007,0.742664,0.300068][-4.05525e-007,0.777601,0.628758][0.089473,0.657241,0][0.355195,0.286624,0.466021][0.380109,0.5697,0.728669][0.186809,0.509686,0][-1.33653e-007,0.742664,0.300068][-4.05525e-007,0.777601,0.628758][0.089473,0.657241,0][0,0.381924,0.619631][0,0.481604,0.876389][0.072751,0.528954,0][0,0.381924,0.386671][7.41815e-007,-0.375909,-0.926656][0.929467,0.834725,0][0,0.595164,0.119769][1.64499e-007,-0.872735,-0.488194][0.900771,0.912564,0][0.157959,0.568164,0.0867145][0.38773,-0.77236,-0.503116][0.862794,0.900878,0][0,0.381924,0.386671][7.41815e-007,-0.375909,-0.926656][0.929467,0.834725,0][0.157959,0.568164,0.0867145][0.38773,-0.77236,-0.503116][0.862794,0.900878,0][0.248242,0.403414,0.258731][0.252386,-0.0688983,-0.965171][0.861591,0.839039,0][0.157959,0.568164,0.0867145][0.38773,-0.77236,-0.503116][0.239035,0.64813,0][0.157959,0.601264,-0.0156555][0.450496,-0.733813,-0.5085][0.259147,0.665541,0][0.264913,0.759764,0.0957085][0.87638,-0.38408,-0.290588][0.193969,0.717812,0][0.157959,0.568164,0.0867145][0.38773,-0.77236,-0.503116][0.239035,0.64813,0][0.264913,0.759764,0.0957085][0.87638,-0.38408,-0.290588][0.193969,0.717812,0][0.264913,0.699364,0.247146][0.821986,0.478143,0.309386][0.172689,0.655643,0][0.264913,0.699364,0.247146][0.821986,0.478143,0.309386][0.172689,0.655643,0][0.264913,0.759764,0.0957085][0.87638,-0.38408,-0.290588][0.193969,0.717812,0][-1.44132e-007,0.812063,0.132445][-2.13755e-007,-0.470732,0.882276][0.094088,0.708192,0][0.264913,0.699364,0.247146][0.821986,0.478143,0.309386][0.172689,0.655643,0][-1.44132e-007,0.812063,0.132445][-2.13755e-007,-0.470732,0.882276][0.094088,0.708192,0][-1.33653e-007,0.742664,0.300068][-4.05525e-007,0.777601,0.628758][0.089473,0.657241,0][0,0.595164,0.119769][1.64499e-007,-0.872735,-0.488194][0.900771,0.912564,0][0,0.633964,0.0072895][3.48833e-007,-0.927646,-0.37346][0.888569,0.938749,0][0.157959,0.601264,-0.0156555][0.450496,-0.733813,-0.5085][0.851657,0.924514,0][0,0.595164,0.119769][1.64499e-007,-0.872735,-0.488194][0.900771,0.912564,0][0.157959,0.601264,-0.0156555][0.450496,-0.733813,-0.5085][0.851657,0.924514,0][0.157959,0.568164,0.0867145][0.38773,-0.77236,-0.503116][0.862794,0.900878,0][0.140924,0.974064,0.0957085][0.652018,0.739396,-0.167824][0.256853,0.793981,0][0.0677608,1.01796,-0.0160035][0.604178,0.644247,-0.468952][0.298273,0.786072,0][-1.88389e-007,1.10516,0.0106575][-2.15558e-007,0.922703,-0.385512][0.316808,0.814772,0][0.140924,0.974064,0.0957085][0.652018,0.739396,-0.167824][0.256853,0.793981,0][-1.88389e-007,1.10516,0.0106575][-2.15558e-007,0.922703,-0.385512][0.316808,0.814772,0][-1.88072e-007,1.10306,0.132445][-1.9024e-007,0.990299,-0.138954][0.291542,0.841494,0][0.157959,0.601264,-0.0156555][0.450496,-0.733813,-0.5085][0.259147,0.665541,0][0.0722789,0.695764,-0.152364][0.430918,-0.496603,-0.753455][0.303381,0.685129,0][0.0995279,0.859464,-0.150398][0.51175,0.159583,-0.844183][0.302522,0.72696,0][0.157959,0.601264,-0.0156555][0.450496,-0.733813,-0.5085][0.259147,0.665541,0][0.0995279,0.859464,-0.150398][0.51175,0.159583,-0.844183][0.302522,0.72696,0][0.264913,0.759764,0.0957085][0.87638,-0.38408,-0.290588][0.193969,0.717812,0][0,0.633964,0.0072895][3.48833e-007,-0.927646,-0.37346][0.888569,0.938749,0][-1.27357e-007,0.700964,-0.187241][-2.13337e-006,-0.443832,-0.89611][0.868514,0.984512,0][0.0722789,0.695764,-0.152364][0.430918,-0.496603,-0.753455][0.855757,0.969723,0][0,0.633964,0.0072895][3.48833e-007,-0.927646,-0.37346][0.888569,0.938749,0][0.0722789,0.695764,-0.152364][0.430918,-0.496603,-0.753455][0.855757,0.969723,0][0.157959,0.601264,-0.0156555][0.450496,-0.733813,-0.5085][0.851657,0.924514,0][1.33551,-0.401796,-0.564053][0.872783,-0.481628,-0.0792738][0.570415,0.274921,0][1.16216,-0.890426,-0.366384][0.633976,-0.675156,-0.377146][0.470543,0.175848,0][1.0019,-0.890426,-0.366384][-0.575923,-0.513548,-0.636067][0.474937,0.136349,0][1.33551,-0.401796,-0.564053][0.872783,-0.481628,-0.0792738][0.570415,0.274921,0][1.0019,-0.890426,-0.366384][-0.575923,-0.513548,-0.636067][0.474937,0.136349,0][1.13747,-0.401796,-0.564054][-0.697252,-0.424122,-0.577893][0.58829,0.218379,0][1.13747,-0.401796,-0.564054][-0.697252,-0.424122,-0.577893][0.555035,0.642044,0][1.0019,-0.890426,-0.366384][-0.575923,-0.513548,-0.636067][0.60972,0.521208,0][0.937158,-0.950046,-0.174053][-0.549863,-0.706221,-0.445985][0.658553,0.504576,0][1.13747,-0.401796,-0.564054][-0.697252,-0.424122,-0.577893][0.555035,0.642044,0][0.937158,-0.950046,-0.174053][-0.549863,-0.706221,-0.445985][0.658553,0.504576,0][0.956257,-0.401796,-0.304179][-0.819101,-0.0533622,-0.571162][0.632665,0.640371,0][1.05818,-0.950046,-0.129004][0.640688,-0.765665,0.0572275][0.411772,0.161823,0][1.16216,-0.890426,-0.366384][0.633976,-0.675156,-0.377146][0.470543,0.175848,0][1.33551,-0.401796,-0.564053][0.872783,-0.481628,-0.0792738][0.570415,0.274921,0][1.05818,-0.950046,-0.129004][0.640688,-0.765665,0.0572275][0.411772,0.161823,0][1.33551,-0.401796,-0.564053][0.872783,-0.481628,-0.0792738][0.570415,0.274921,0][1.20563,-0.401796,-0.135835][0.950521,-0.0734371,0.301856][0.443412,0.294094,0][0.770583,-0.401796,-0.0379035][-0.731045,-0.0531678,-0.680255][0.713312,0.639138,0][0.870822,-1.01115,0.0230166][-0.227507,-0.815703,-0.531854][0.708172,0.486238,0][0.483763,-1.14238,0.235885][-0.120255,-0.734188,-0.668211][0.816815,0.458762,0][0.770583,-0.401796,-0.0379035][-0.731045,-0.0531678,-0.680255][0.713312,0.639138,0][0.483763,-1.14238,0.235885][-0.120255,-0.734188,-0.668211][0.816815,0.458762,0][0.513218,-0.435556,0.183613][-0.526843,-0.0181774,-0.849768][0.798002,0.632141,0][0.687602,-0.435556,0.58085][0.51109,-0.0332893,0.858882][0.233227,0.300402,0][0.658146,-1.14238,0.394991][0.452214,-0.767534,0.454306][0.251959,0.138354,0][0.951626,-1.01115,0.114224][0.644502,-0.721587,0.252843][0.344724,0.157874,0][0.687602,-0.435556,0.58085][0.51109,-0.0332893,0.858882][0.233227,0.300402,0][0.951626,-1.01115,0.114224][0.644502,-0.721587,0.252843][0.344724,0.157874,0][1.07254,-0.401796,0.302932][0.799212,-0.0420052,0.59958][0.33852,0.303006,0][0.513218,-0.435556,0.183613][-0.526843,-0.0181774,-0.849768][0.798002,0.632141,0][0.483763,-1.14238,0.235885][-0.120255,-0.734188,-0.668211][0.816815,0.458762,0][0.135249,-1.18772,0.329121][-0.102513,-0.730326,-0.675363][0.905206,0.451102,0][0.513218,-0.435556,0.183613][-0.526843,-0.0181774,-0.849768][0.798002,0.632141,0][0.135249,-1.18772,0.329121][-0.102513,-0.730326,-0.675363][0.905206,0.451102,0][0.157959,-0.401787,0.343961][-0.341055,0.00195345,-0.940041][0.893565,0.643031,0][0.264912,-0.401787,0.771021][0.310236,0.004584,0.950648][0.122614,0.310529,0][0.242203,-1.18772,0.500161][0.157686,-0.818438,0.552534][0.155948,0.110433,0][0.658146,-1.14238,0.394991][0.452214,-0.767534,0.454306][0.251959,0.138354,0][0.264912,-0.401787,0.771021][0.310236,0.004584,0.950648][0.122614,0.310529,0][0.658146,-1.14238,0.394991][0.452214,-0.767534,0.454306][0.251959,0.138354,0][0.687602,-0.435556,0.58085][0.51109,-0.0332893,0.858882][0.233227,0.300402,0][0.157959,-0.401787,0.343961][-0.341055,0.00195345,-0.940041][0.893565,0.643031,0][0.135249,-1.18772,0.329121][-0.102513,-0.730326,-0.675363][0.905206,0.451102,0][1.57971e-007,-1.18868,0.343121][1.32781e-007,-0.723149,-0.690692][0.938401,0.451906,0][0.157959,-0.401787,0.343961][-0.341055,0.00195345,-0.940041][0.893565,0.643031,0][1.57971e-007,-1.18868,0.343121][1.32781e-007,-0.723149,-0.690692][0.938401,0.451906,0][0,-0.401787,0.386671][0,0.0275144,-0.999621][0.933492,0.644293,0][0,-0.401787,0.839401][0,-0.0190677,0.999818][0.052915,0.308098,0][1.57971e-007,-1.18868,0.524441][1.87609e-007,-0.812207,0.58337][0.09558,0.094862,0][0.242203,-1.18772,0.500161][0.157686,-0.818438,0.552534][0.155948,0.110433,0][0,-0.401787,0.839401][0,-0.0190677,0.999818][0.052915,0.308098,0][0.242203,-1.18772,0.500161][0.157686,-0.818438,0.552534][0.155948,0.110433,0][0.264912,-0.401787,0.771021][0.310236,0.004584,0.950648][0.122614,0.310529,0][1.16827,-0.0657965,-0.157713][0.915764,0.143667,0.375147][0.450347,0.377346,0][0.999751,-0.0638157,0.258638][0.745057,0.263153,0.612895][0.343247,0.379669,0][1.07254,-0.401796,0.302932][0.799212,-0.0420052,0.59958][0.33852,0.303006,0][1.16827,-0.0657965,-0.157713][0.915764,0.143667,0.375147][0.450347,0.377346,0][1.07254,-0.401796,0.302932][0.799212,-0.0420052,0.59958][0.33852,0.303006,0][1.20563,-0.401796,-0.135835][0.950521,-0.0734371,0.301856][0.443412,0.294094,0][0.956257,0.381924,-0.304179][-0.409513,0.85881,-0.307807][0.461448,0.52296,0][0.770583,0.381924,-0.0379035][-0.344813,0.866207,-0.361648][0.373757,0.531173,0][0.901772,0.274324,0.199018][0.56899,0.641219,0.514868][0.344892,0.463103,0][0.956257,0.381924,-0.304179][-0.409513,0.85881,-0.307807][0.461448,0.52296,0][0.901772,0.274324,0.199018][0.56899,0.641219,0.514868][0.344892,0.463103,0][1.11799,0.269674,-0.187161][0.716291,0.583646,0.382471][0.452822,0.463758,0][0.956257,-0.401796,-0.304179][-0.819101,-0.0533622,-0.571162][0.632665,0.640371,0][0.770583,-0.401796,-0.0379035][-0.731045,-0.0531678,-0.680255][0.713312,0.639138,0][0.770583,-0.0677258,-0.0379035][-0.73541,-1.49899e-007,-0.677623][0.713294,0.722193,0][0.956257,-0.401796,-0.304179][-0.819101,-0.0533622,-0.571162][0.632665,0.640371,0][0.770583,-0.0677258,-0.0379035][-0.73541,-1.49899e-007,-0.677623][0.713294,0.722193,0][0.956257,-0.0677258,-0.304179][-0.82027,-1.76383e-007,-0.571977][0.633558,0.722481,0][0.937158,-0.950046,-0.174053][-0.549863,-0.706221,-0.445985][0.658553,0.504576,0][0.870822,-1.01115,0.0230166][-0.227507,-0.815703,-0.531854][0.708172,0.486238,0][0.770583,-0.401796,-0.0379035][-0.731045,-0.0531678,-0.680255][0.713312,0.639138,0][0.937158,-0.950046,-0.174053][-0.549863,-0.706221,-0.445985][0.658553,0.504576,0][0.770583,-0.401796,-0.0379035][-0.731045,-0.0531678,-0.680255][0.713312,0.639138,0][0.956257,-0.401796,-0.304179][-0.819101,-0.0533622,-0.571162][0.632665,0.640371,0][1.05818,-0.950046,-0.129004][0.640688,-0.765665,0.0572275][0.411772,0.161823,0][0.951626,-1.01115,0.114224][0.644502,-0.721587,0.252843][0.344724,0.157874,0][0.870822,-1.01115,0.0230166][-0.227507,-0.815703,-0.531854][0.355889,0.128218,0][1.05818,-0.950046,-0.129004][0.640688,-0.765665,0.0572275][0.411772,0.161823,0][0.870822,-1.01115,0.0230166][-0.227507,-0.815703,-0.531854][0.355889,0.128218,0][0.937158,-0.950046,-0.174053][-0.549863,-0.706221,-0.445985][0.415414,0.12799,0][1.07254,-0.401796,0.302932][0.799212,-0.0420052,0.59958][0.33852,0.303006,0][0.951626,-1.01115,0.114224][0.644502,-0.721587,0.252843][0.344724,0.157874,0][1.05818,-0.950046,-0.129004][0.640688,-0.765665,0.0572275][0.411772,0.161823,0][1.07254,-0.401796,0.302932][0.799212,-0.0420052,0.59958][0.33852,0.303006,0][1.05818,-0.950046,-0.129004][0.640688,-0.765665,0.0572275][0.411772,0.161823,0][1.20563,-0.401796,-0.135835][0.950521,-0.0734371,0.301856][0.443412,0.294094,0][0.355195,0.286624,0.466021][0.380109,0.5697,0.728669][0.186809,0.509686,0][0,0.381924,0.619631][0,0.481604,0.876389][0.072751,0.528954,0][0,-0.0677259,0.745721][0,0.303944,0.95269][0.059127,0.401533,0][0.355195,0.286624,0.466021][0.380109,0.5697,0.728669][0.186809,0.509686,0][0,-0.0677259,0.745721][0,0.303944,0.95269][0.059127,0.401533,0][0.303396,-0.0585658,0.641011][0.317688,0.334585,0.887202][0.14604,0.403013,0][0.646413,0.292824,0.374441][0.370466,0.655873,0.657713][0.272237,0.482128,0][0.355195,0.286624,0.466021][0.380109,0.5697,0.728669][0.186809,0.509686,0][0.303396,-0.0585658,0.641011][0.317688,0.334585,0.887202][0.14604,0.403013,0][0.646413,0.292824,0.374441][0.370466,0.655873,0.657713][0.272237,0.482128,0][0.303396,-0.0585658,0.641011][0.317688,0.334585,0.887202][0.14604,0.403013,0][0.670045,-0.0752961,0.492871][0.470799,0.269966,0.839921][0.246279,0.388692,0][0.901772,0.274324,0.199018][0.56899,0.641219,0.514868][0.344892,0.463103,0][0.646413,0.292824,0.374441][0.370466,0.655873,0.657713][0.272237,0.482128,0][0.670045,-0.0752961,0.492871][0.470799,0.269966,0.839921][0.246279,0.388692,0][0.901772,0.274324,0.199018][0.56899,0.641219,0.514868][0.344892,0.463103,0][0.670045,-0.0752961,0.492871][0.470799,0.269966,0.839921][0.246279,0.388692,0][0.999751,-0.0638157,0.258638][0.745057,0.263153,0.612895][0.343247,0.379669,0][1.11799,0.269674,-0.187161][0.716291,0.583646,0.382471][0.452822,0.463758,0][0.901772,0.274324,0.199018][0.56899,0.641219,0.514868][0.344892,0.463103,0][0.999751,-0.0638157,0.258638][0.745057,0.263153,0.612895][0.343247,0.379669,0][1.11799,0.269674,-0.187161][0.716291,0.583646,0.382471][0.452822,0.463758,0][0.999751,-0.0638157,0.258638][0.745057,0.263153,0.612895][0.343247,0.379669,0][1.16827,-0.0657965,-0.157713][0.915764,0.143667,0.375147][0.450347,0.377346,0][1.32902,0.265134,-0.564054][0.852316,0.512822,0.102816][0.555351,0.454671,0][1.11799,0.269674,-0.187161][0.716291,0.583646,0.382471][0.452822,0.463758,0][1.16827,-0.0657965,-0.157713][0.915764,0.143667,0.375147][0.450347,0.377346,0][1.32902,0.265134,-0.564054][0.852316,0.512822,0.102816][0.555351,0.454671,0][1.16827,-0.0657965,-0.157713][0.915764,0.143667,0.375147][0.450347,0.377346,0][1.33274,-0.0677257,-0.564054][0.984621,0.0232772,0.173144][0.561983,0.374797,0][1.32604,0.186084,-0.813551][0.802949,0.464309,-0.37375][0.611193,0.443944,0][1.32902,0.265134,-0.564054][0.852316,0.512822,0.102816][0.555351,0.454671,0][1.33274,-0.0677257,-0.564054][0.984621,0.0232772,0.173144][0.561983,0.374797,0][1.32604,0.186084,-0.813551][0.802949,0.464309,-0.37375][0.611193,0.443944,0][1.33274,-0.0677257,-0.564054][0.984621,0.0232772,0.173144][0.561983,0.374797,0][1.33147,-0.101426,-0.790678][0.998504,0.0224566,-0.0498519][0.621803,0.37524,0][1.30065,-0.229196,-1.08491][0.765495,0.0779695,-0.6387][0.702858,0.364507,0][1.30128,0.017094,-0.949855][0.668206,0.386242,-0.63586][0.655125,0.415706,0][1.32604,0.186084,-0.813551][0.802949,0.464309,-0.37375][0.611193,0.443944,0][1.30065,-0.229196,-1.08491][0.765495,0.0779695,-0.6387][0.702858,0.364507,0][1.32604,0.186084,-0.813551][0.802949,0.464309,-0.37375][0.611193,0.443944,0][1.33147,-0.101426,-0.790678][0.998504,0.0224566,-0.0498519][0.621803,0.37524,0][1.10538,-0.229196,-1.20687][-0.469879,-0.0033021,-0.882725][0.759133,0.386485,0][1.10973,0.017094,-1.07181][-0.58225,0.459448,-0.67074][0.707493,0.445584,0][1.30128,0.017094,-0.949855][0.668206,0.386242,-0.63586][0.655125,0.415706,0][1.10538,-0.229196,-1.20687][-0.469879,-0.0033021,-0.882725][0.759133,0.386485,0][1.30128,0.017094,-0.949855][0.668206,0.386242,-0.63586][0.655125,0.415706,0][1.30065,-0.229196,-1.08491][0.765495,0.0779695,-0.6387][0.702858,0.364507,0][1.13449,0.302863,-0.813551][-0.462254,0.768254,-0.44284][0.496319,0.814215,0][1.10973,0.017094,-1.07181][-0.58225,0.459448,-0.67074][0.432472,0.745519,0][1.10538,-0.229196,-1.20687][-0.469879,-0.0033021,-0.882725][0.398859,0.686112,0][1.13449,0.302863,-0.813551][-0.462254,0.768254,-0.44284][0.496319,0.814215,0][1.10538,-0.229196,-1.20687][-0.469879,-0.0033021,-0.882725][0.398859,0.686112,0][1.1362,-0.101426,-0.790679][-0.999439,-0.0109938,0.0316379][0.500803,0.715781,0][1.13747,-0.0677258,-0.564054][-0.955053,-0.000729692,-0.296433][0.556145,0.723334,0][1.13747,0.381924,-0.564054][-0.274402,0.935589,-0.222209][0.557146,0.832847,0][1.13449,0.302863,-0.813551][-0.462254,0.768254,-0.44284][0.496319,0.814215,0][1.13747,-0.0677258,-0.564054][-0.955053,-0.000729692,-0.296433][0.556145,0.723334,0][1.13449,0.302863,-0.813551][-0.462254,0.768254,-0.44284][0.496319,0.814215,0][1.1362,-0.101426,-0.790679][-0.999439,-0.0109938,0.0316379][0.500803,0.715781,0][0.956257,-0.0677258,-0.304179][-0.82027,-1.76383e-007,-0.571977][0.633558,0.722481,0][0.956257,0.381924,-0.304179][-0.409513,0.85881,-0.307807][0.634151,0.832227,0][1.13747,0.381924,-0.564054][-0.274402,0.935589,-0.222209][0.557146,0.832847,0][0.956257,-0.0677258,-0.304179][-0.82027,-1.76383e-007,-0.571977][0.633558,0.722481,0][1.13747,0.381924,-0.564054][-0.274402,0.935589,-0.222209][0.557146,0.832847,0][1.13747,-0.0677258,-0.564054][-0.955053,-0.000729692,-0.296433][0.556145,0.723334,0][0.770583,-0.0677258,-0.0379035][-0.73541,-1.49899e-007,-0.677623][0.713294,0.722193,0][0.770583,0.381924,-0.0379035][-0.344813,0.866207,-0.361648][0.713001,0.832009,0][0.956257,0.381924,-0.304179][-0.409513,0.85881,-0.307807][0.634151,0.832227,0][0.770583,-0.0677258,-0.0379035][-0.73541,-1.49899e-007,-0.677623][0.713294,0.722193,0][0.956257,0.381924,-0.304179][-0.409513,0.85881,-0.307807][0.634151,0.832227,0][0.956257,-0.0677258,-0.304179][-0.82027,-1.76383e-007,-0.571977][0.633558,0.722481,0][0.495661,-0.0752961,0.189304][-0.508429,-0.00615995,-0.861082][0.800896,0.721017,0][0.47203,0.409614,0.196964][-0.211595,0.893041,-0.397122][0.805114,0.839581,0][0.770583,0.381924,-0.0379035][-0.344813,0.866207,-0.361648][0.713001,0.832009,0][0.495661,-0.0752961,0.189304][-0.508429,-0.00615995,-0.861082][0.800896,0.721017,0][0.770583,0.381924,-0.0379035][-0.344813,0.866207,-0.361648][0.713001,0.832009,0][0.770583,-0.0677258,-0.0379035][-0.73541,-1.49899e-007,-0.677623][0.713294,0.722193,0][0.196443,-0.0585658,0.307631][-0.368951,-0.0411002,-0.92854][0.879638,0.7267,0][0.248242,0.403414,0.258731][0.252386,-0.0688983,-0.965171][0.861591,0.839039,0][0.47203,0.409614,0.196964][-0.211595,0.893041,-0.397122][0.805114,0.839581,0][0.196443,-0.0585658,0.307631][-0.368951,-0.0411002,-0.92854][0.879638,0.7267,0][0.47203,0.409614,0.196964][-0.211595,0.893041,-0.397122][0.805114,0.839581,0][0.495661,-0.0752961,0.189304][-0.508429,-0.00615995,-0.861082][0.800896,0.721017,0][0,-0.0677259,0.386671][7.4563e-007,-0.0418482,-0.999124][0.931246,0.725497,0][0,0.381924,0.386671][7.41815e-007,-0.375909,-0.926656][0.929467,0.834725,0][0.248242,0.403414,0.258731][0.252386,-0.0688983,-0.965171][0.861591,0.839039,0][0,-0.0677259,0.386671][7.4563e-007,-0.0418482,-0.999124][0.931246,0.725497,0][0.248242,0.403414,0.258731][0.252386,-0.0688983,-0.965171][0.861591,0.839039,0][0.196443,-0.0585658,0.307631][-0.368951,-0.0411002,-0.92854][0.879638,0.7267,0][0.246709,0.718164,0.537121][0.598871,-0.749343,0.282558][0.10925,0.828561,0][0.300327,0.827463,0.59484][0.865603,-0.131969,0.483028][0.12935,0.85479,0][-1.66057e-007,0.957264,0.7809][0,0.00386846,0.999992][0.09826,0.95054,0][0.246709,0.718164,0.537121][0.598871,-0.749343,0.282558][0.10925,0.828561,0][-1.66057e-007,0.957264,0.7809][0,0.00386846,0.999992][0.09826,0.95054,0][0,0.644364,0.671981][0,-0.814559,0.580081][0.033258,0.858146,0][-1.62252e-007,0.932063,-0.157455][-6.38248e-007,0.517489,-0.85569][0.329513,0.745231,0][-1.75706e-007,1.02116,-0.0446115][0,0.674694,-0.738098][0.320021,0.785024,0][0.0997858,0.935464,-0.0892545][0.551737,0.626455,-0.550582][0.296252,0.752042,0][-1.62252e-007,0.932063,-0.157455][-6.38248e-007,0.517489,-0.85569][0.329513,0.745231,0][0.0997858,0.935464,-0.0892545][0.551737,0.626455,-0.550582][0.296252,0.752042,0][0.0995279,0.859464,-0.150398][0.51175,0.159583,-0.844183][0.302522,0.72696,0][0.0995279,0.859464,-0.150398][0.51175,0.159583,-0.844183][0.302522,0.72696,0][0.0997858,0.935464,-0.0892545][0.551737,0.626455,-0.550582][0.296252,0.752042,0][0.315658,0.859964,0.0957085][0.934958,0.231851,-0.268511][0.211156,0.754682,0][0.0995279,0.859464,-0.150398][0.51175,0.159583,-0.844183][0.302522,0.72696,0][0.315658,0.859964,0.0957085][0.934958,0.231851,-0.268511][0.211156,0.754682,0][0.264913,0.759764,0.0957085][0.87638,-0.38408,-0.290588][0.193969,0.717812,0][0.264913,0.759764,0.0957085][0.87638,-0.38408,-0.290588][0.193969,0.717812,0][0.246709,0.718164,0.537121][0.598871,-0.749343,0.282558][0.10925,0.828561,0][0,0.644364,0.671981][0,-0.814559,0.580081][0.033258,0.858146,0][0.264913,0.759764,0.0957085][0.87638,-0.38408,-0.290588][0.193969,0.717812,0][0,0.644364,0.671981][0,-0.814559,0.580081][0.033258,0.858146,0][-1.44132e-007,0.812063,0.132445][-2.13755e-007,-0.470732,0.882276][0.094088,0.708192,0][-1.88072e-007,1.10306,0.132445][-1.9024e-007,0.990299,-0.138954][0.291542,0.841494,0][-2.02311e-007,1.19736,0.71208][-1.436e-007,0.828488,0.560007][0.17829,0.974787,0][0.202337,1.07336,0.629821][0.743676,0.519336,0.420994][0.163417,0.904736,0][-1.88072e-007,1.10306,0.132445][-1.9024e-007,0.990299,-0.138954][0.291542,0.841494,0][0.202337,1.07336,0.629821][0.743676,0.519336,0.420994][0.163417,0.904736,0][0.140924,0.974064,0.0957085][0.652018,0.739396,-0.167824][0.256853,0.793981,0][0.315658,0.859964,0.0957085][0.934958,0.231851,-0.268511][0.211156,0.754682,0][0.300327,0.827463,0.59484][0.865603,-0.131969,0.483028][0.12935,0.85479,0][0.246709,0.718164,0.537121][0.598871,-0.749343,0.282558][0.10925,0.828561,0][0.315658,0.859964,0.0957085][0.934958,0.231851,-0.268511][0.211156,0.754682,0][0.246709,0.718164,0.537121][0.598871,-0.749343,0.282558][0.10925,0.828561,0][0.264913,0.759764,0.0957085][0.87638,-0.38408,-0.290588][0.193969,0.717812,0][0.140924,0.974064,0.0957085][0.652018,0.739396,-0.167824][0.256853,0.793981,0][0.202337,1.07336,0.629821][0.743676,0.519336,0.420994][0.163417,0.904736,0][0.300327,0.827463,0.59484][0.865603,-0.131969,0.483028][0.12935,0.85479,0][0.140924,0.974064,0.0957085][0.652018,0.739396,-0.167824][0.256853,0.793981,0][0.300327,0.827463,0.59484][0.865603,-0.131969,0.483028][0.12935,0.85479,0][0.315658,0.859964,0.0957085][0.934958,0.231851,-0.268511][0.211156,0.754682,0][0.0997858,0.935464,-0.0892545][0.551737,0.626455,-0.550582][0.296252,0.752042,0][0.0677608,1.01796,-0.0160035][0.604178,0.644247,-0.468952][0.298273,0.786072,0][0.140924,0.974064,0.0957085][0.652018,0.739396,-0.167824][0.256853,0.793981,0][0.0997858,0.935464,-0.0892545][0.551737,0.626455,-0.550582][0.296252,0.752042,0][0.140924,0.974064,0.0957085][0.652018,0.739396,-0.167824][0.256853,0.793981,0][0.315658,0.859964,0.0957085][0.934958,0.231851,-0.268511][0.211156,0.754682,0][-1.75706e-007,1.02116,-0.0446115][0,0.674694,-0.738098][0.320021,0.785024,0][-1.88389e-007,1.10516,0.0106575][-2.15558e-007,0.922703,-0.385512][0.316808,0.814772,0][0.0677608,1.01796,-0.0160035][0.604178,0.644247,-0.468952][0.298273,0.786072,0][-1.75706e-007,1.02116,-0.0446115][0,0.674694,-0.738098][0.320021,0.785024,0][0.0677608,1.01796,-0.0160035][0.604178,0.644247,-0.468952][0.298273,0.786072,0][0.0997858,0.935464,-0.0892545][0.551737,0.626455,-0.550582][0.296252,0.752042,0][0.300327,0.827463,0.59484][0.865603,-0.131969,0.483028][0.12935,0.85479,0][0.202337,1.07336,0.629821][0.743676,0.519336,0.420994][0.163417,0.904736,0][-2.02311e-007,1.19736,0.71208][-1.436e-007,0.828488,0.560007][0.17829,0.974787,0][0.300327,0.827463,0.59484][0.865603,-0.131969,0.483028][0.12935,0.85479,0][-2.02311e-007,1.19736,0.71208][-1.436e-007,0.828488,0.560007][0.17829,0.974787,0][-1.66057e-007,0.957264,0.7809][0,0.00386846,0.999992][0.09826,0.95054,0]